
<svg width="192px" height="192px" viewBox="0 0 192 192" version="1.1" xmlns="http://www.w3.org/2000/svg" xmlns:xlink="http://www.w3.org/1999/xlink">
    <!-- Generator: Sketch 43.1 (39012) - http://www.bohemiancoding.com/sketch -->
    <desc>Created with Sketch.</desc>
    <defs></defs>
    <g id="Page-1" stroke="none" stroke-width="1" fill="none" fill-rule="evenodd">
        <g id="Desktop-Copy-15" transform="translate(-44.000000, -164.000000)">
            <g id="Page-1" transform="translate(44.000000, 164.000000)">
                <polygon id="Fill-1" fill="#827083" points="0 192 192 192 192 0 0 0"></polygon>
                <g id="Group-42" transform="translate(17.250000, 47.500000)" fill="#B1C1E3">
                    <path d="M0.322662162,70.6553007 C0.745783784,69.9665912 1.23573649,69.175064 1.71930405,68.3797129 C2.21266216,67.5686418 2.88991216,67.3179702 3.78553378,67.6727342 C3.96559459,67.7441118 4.16438514,67.7700287 4.42489865,67.8337588 C4.79523649,67.3647056 5.13024324,66.8620879 5.54527703,66.4380706 C5.91518919,66.059939 6.34725,65.7234443 6.80102027,65.4494051 C7.29565541,65.1502987 7.84988514,65.280308 8.26875,65.711548 C8.6625,66.1168711 8.59864865,66.564681 8.32664189,67.0018691 C8.00738514,67.5155334 7.64811486,68.0062548 7.34971622,68.5313904 C7.02024324,69.1121836 6.74014865,69.7210181 6.41322973,70.3672408 C7.05302027,71.5173559 7.93076351,72.3959809 8.94557432,73.1186797 C9.12946622,73.0400793 9.2925,73.0226597 9.36273649,72.9330128 C10.8125878,71.0831418 12.4467568,69.3705028 13.5203108,67.2397947 C13.8195608,66.6458306 14.2231014,66.0709855 14.6951757,65.6040566 C17.0998176,63.2256511 18.9204324,60.3650214 21.1701284,57.8621298 C23.4764392,55.2963578 25.3894257,52.4510234 27.2151486,49.5398346 C27.3568986,49.3138053 27.5220608,49.0971231 27.7051014,48.902534 C28.1482297,48.4309316 28.5909324,48.4555739 29.0557703,48.9790101 C29.3622568,49.324427 29.6444797,49.6915121 29.9948108,50.1180786 C29.8407162,50.4783658 29.7287635,50.8594715 29.529973,51.1891684 C27.9988176,53.7235001 26.474473,56.2633552 24.8956419,58.7683711 C24.3605676,59.6176803 23.6215946,60.3369802 23.0665135,61.1756677 C21.0581757,64.2113426 18.7544189,67.0031437 16.3101892,69.6972255 C15.6584797,70.4156757 15.3170878,71.4170872 14.8496959,72.2974117 C14.47425,73.005665 14.1294527,73.6807787 13.3972905,74.1668266 C12.7349392,74.6057142 12.3352297,75.3624024 12.0717365,76.1522302 C11.7609932,77.082689 11.2327297,77.8712422 10.2447365,78.1644004 C9.49384459,78.3866059 9.42743919,79.1806823 8.89960135,79.6123472 C7.91288514,79.6076737 7.28373649,78.945306 6.69970946,78.3309483 C4.93996622,76.4810773 3.23300676,74.5802222 1.52051351,72.6853153 C1.02928378,72.1414855 0.501871622,71.6044536 0.322662162,70.6553007" id="Fill-2"></path>
                    <path d="M28.2705264,58.2694498 C28.412702,58.0774099 28.5250804,57.8254638 28.7196142,57.7014026 C28.8349723,57.6270509 29.1427358,57.6912058 29.2551142,57.8020961 C29.6820669,58.2256885 30.1017831,58.6667005 30.4572223,59.1501991 C32.0879858,61.3671553 33.5306007,63.6975509 34.7850669,66.1524325 C36.0386818,68.604765 37.4025466,71.001015 38.6808507,73.4414511 C39.1478169,74.3328221 39.5194318,75.2747523 39.9106277,76.2035116 C40.0396074,76.5102656 40.1192088,76.8433614 40.1783777,77.1717836 C40.269898,77.6828986 39.8412426,78.0984186 39.3291547,78.0155695 C38.5574047,77.8910834 37.9491142,77.5044545 37.5264182,76.8471852 C37.4187223,76.6802124 37.3408236,76.4902969 37.2714385,76.3025057 C35.2371345,70.8000529 32.2667696,65.7704771 29.3687696,60.7039378 C29.1018709,60.2374338 28.8145399,59.7798521 28.5821209,59.2963534 C28.4407966,59.0023454 28.3871615,58.6662756 28.2705264,58.2694498" id="Fill-4"></path>
                    <path d="M25.68195,71.3423956 C26.9862203,71.919365 27.7673351,73.0805266 28.5075851,74.2748278 C28.7817203,74.7171144 28.7570311,75.1891416 28.4194703,75.5825685 C27.6358014,76.4960326 26.8431932,77.4026988 26.0186595,78.2783497 C25.6104365,78.7125638 25.0698284,78.7605738 24.5390108,78.4869594 C24.1886797,78.306391 23.8174905,78.1215738 23.53995,77.8517832 C22.9180378,77.2471975 22.3246459,76.6090472 21.7665851,75.9458298 C21.336227,75.433865 21.30345,74.5187015 21.7785041,74.1082799 C22.9695446,73.0796769 23.856227,71.6083624 25.68195,71.3423956" id="Fill-6"></path>
                    <path d="M65.2462905,64.3403747 C66.0640135,64.3403747 66.6603851,64.3110588 67.2533514,64.3475974 C68.1081081,64.3998561 68.8611284,64.7439983 69.4775068,65.4084904 C70.0483378,66.0236978 69.9346824,67.1079584 69.1935811,67.476743 C68.731723,67.7065961 68.1936689,67.815362 67.6820068,67.8536001 C66.8702432,67.9135063 66.0520946,67.8693201 65.2880068,67.8693201 C64.6282095,70.055261 64.6643919,73.1886553 65.3199324,75.1889292 C67.2516486,75.547517 69.8567838,75.4128341 71.8127635,74.8367144 C72.4380811,75.5772576 73.0991554,76.3309717 73.7278784,77.1152763 C74.0547973,77.5231486 73.7853446,78.4395868 73.2783649,78.522011 C72.3137838,78.678362 71.3360068,78.7731074 70.3612095,78.8121951 C68.6367973,78.8805987 66.9213243,78.8657284 65.25225,79.5208733 C64.2676622,79.9079272 62.8774054,79.02038 62.3406284,77.7593747 C61.833223,76.5676227 61.40925,75.3321094 61.4862973,73.9763587 C61.5412095,72.9966154 61.6323041,72.0185715 61.6633784,71.0384033 C61.6944527,70.0692816 61.6701892,69.0984604 61.6701892,68.0205728 C60.4868108,67.661985 59.139973,67.9568428 58.3218243,66.7859092 C57.9076419,66.1927949 57.564973,65.5542197 57.7535473,64.7219053 C58.7926216,63.5530961 60.434027,64.5638547 61.6403919,63.4541021 C61.6970068,62.9115469 61.7949122,62.2767955 61.8238581,61.6377955 C61.9051622,59.8389086 61.9570946,58.0391719 62.0243514,56.2402849 C62.0401014,55.8192417 62.0349932,55.4079704 61.5922905,55.2380236 C61.2551554,55.1084392 60.9805946,55.6509943 61.047,56.3554239 C61.1002095,56.9230462 61.268777,57.4940675 61.2279122,58.0497936 C61.2023716,58.3939358 60.9388784,58.8901805 60.6753851,58.9925735 C60.4033784,59.0983654 59.9134257,58.9143979 59.675473,58.6734983 C59.1697703,58.1619584 58.7977297,57.447757 58.9607635,56.6923434 C59.2238311,55.4767989 58.9020203,54.4346001 58.446973,53.3783807 C58.3226757,53.0898959 58.2490338,52.7601991 58.2171081,52.4415489 C58.1545338,51.8152949 58.3431081,51.3007809 58.9271351,51.0658295 C59.5609662,50.8104844 60.2024595,50.5793567 60.8413986,50.3410063 C62.5811351,49.6913846 63.9054122,50.3817936 65.0168514,51.8420615 C65.5834257,52.5868534 65.7060203,53.3431167 65.6072635,54.3317822 C65.3241892,57.1775416 65.1947838,60.0415701 65.0326014,62.9000755 C65.0104662,63.2871293 65.1437027,63.6848049 65.2462905,64.3403747" id="Fill-8"></path>
                    <path d="M42.3905716,50.5371674 C44.1128554,50.3608476 45.3779635,50.206196 46.6473284,50.107202 C48.4028149,49.9708197 49.7322,51.0890697 49.7717878,52.8526927 C49.8139297,54.7306049 49.8207405,56.6221129 49.6394027,58.4881289 C49.3708014,61.2552878 48.8506257,63.9978044 48.5735108,66.7641136 C48.3261932,69.2304666 48.2482946,71.7142392 48.1342135,74.1916388 C48.1142068,74.6228789 48.2108351,75.0957559 48.3857878,75.4900324 C48.5888351,75.9471894 49.0604838,76.0610537 49.5427743,75.9790544 C49.9552541,75.9085265 50.2178959,75.6340624 50.2791932,75.2317133 C50.34645,74.7881521 50.313673,74.3280211 50.3937,73.8878589 C50.4728757,73.4502459 50.6014297,73.0117831 50.7759568,72.603061 C50.9998622,72.0770757 51.7047811,71.9270976 52.0883149,72.3001309 C52.8174973,73.008809 53.3159635,73.8262532 53.2099703,74.8956435 C53.0992946,76.0126189 52.9788284,77.1287445 52.8489973,78.3723303 C52.3356324,78.4717492 51.8435514,78.6085564 51.3429568,78.654442 C50.5137405,78.7296435 49.7283689,78.855829 48.9608757,79.2509553 C47.4263149,80.0403582 46.1595041,79.5101242 45.6018689,77.9147485 C45.4797,77.5646581 45.4192541,77.1780291 45.4111662,76.8062705 C45.3579568,74.4767246 45.2651595,72.1459041 45.3043216,69.8176328 C45.3634905,66.2759414 46.0279703,62.7988297 46.5600649,59.3081222 C46.7848216,57.8317093 46.9768014,56.3421255 46.9597743,54.7378277 C46.3838351,54.4782339 45.8674905,54.2458316 45.2323824,53.960321 C45.1148959,54.3813642 44.976977,54.6524294 44.9795311,54.9213702 C44.9829365,55.2905797 45.1280919,55.656815 45.1493757,56.0277239 C45.1847068,56.6420816 44.7590311,57.4136402 44.4763824,57.2878795 C44.0221865,57.0860677 43.6275851,56.7385265 43.2342608,56.4198762 C43.1393351,56.3429753 43.1440176,56.1403137 43.1069838,55.9950092 C42.6595986,54.241583 42.8073081,52.442696 42.3905716,50.5371674" id="Fill-10"></path>
                    <path d="M135.673991,70.5320892 C136.479795,72.2897641 138.166747,73.2074769 139.641288,74.5568545 C141.347396,73.1403479 142.305592,71.267534 143.540903,69.5791125 C142.944957,68.3950081 142.476288,67.2194011 141.397626,66.3675427 C139.532741,67.6310972 137.727876,68.8500407 135.93195,70.0813053 C135.822977,70.1565068 135.783815,70.3336763 135.673991,70.5320892 M147.139991,72.0756311 C145.745051,72.7452215 145.749734,72.7486205 144.64468,74.3707628 C144.391403,74.7420965 144.045328,75.0556484 143.826957,75.4439769 C143.207599,76.542683 142.2792,77.5160533 142.542268,78.913441 C141.650051,79.1279988 141.134984,79.8150088 140.265754,79.5541404 C139.373964,79.2864742 138.643504,78.8484363 138.018612,78.1448565 C136.223538,76.1229144 134.368869,74.1536557 132.576349,72.1300141 C132.086396,71.5772621 131.641565,70.94506 131.340612,70.2754695 C130.927281,69.3556324 131.352957,68.6057422 132.250707,68.0708346 C134.119423,66.957683 135.961747,65.7986457 137.795984,64.6302614 C138.618815,64.1059755 139.387159,63.4971411 140.199349,62.9554356 C140.837436,62.529294 141.426146,62.5777289 141.736038,63.2158791 C142.178741,64.1284935 143.01945,64.6901677 143.545585,65.4816949 C144.863903,67.4636996 146.343977,69.3641298 147.160423,71.641417 C147.205545,71.7676025 147.14893,71.9299017 147.139991,72.0756311" id="Fill-12"></path>
                    <path d="M140.898521,55.6662896 C141.636643,55.4258148 142.365399,55.3506134 142.886852,54.9826785 C143.80546,54.3334817 144.771744,54.6287643 145.722703,54.6019977 C145.898082,54.5968993 146.192649,54.7987111 146.233089,54.9559119 C146.297366,55.2027596 146.290555,55.5847151 146.13944,55.7482889 C145.685244,56.2407098 145.142082,56.6498567 144.642339,57.1014904 C144.185163,57.5153108 144.090663,58.0039079 144.410345,58.5027018 C144.652555,58.8799837 144.945845,59.2266752 145.230622,59.5759159 C146.463379,61.090142 147.555237,62.6931652 148.598994,64.3492969 C149.593372,65.9264033 150.873805,67.3318634 152.090386,68.7606912 C152.710595,69.4889132 153.220555,69.5275761 154.102129,69.0920874 C154.571224,68.8596852 154.980298,68.5006725 155.457055,68.2899385 C155.780994,68.1467583 156.177298,68.1042716 156.536568,68.1195668 C157.120595,68.1442091 157.48242,68.6803913 157.326622,69.2314438 C156.89371,70.7596905 155.858893,71.8469252 154.592082,72.7013328 C153.903339,73.1657124 153.09796,72.9545535 152.467534,72.5016453 C151.007467,71.4526486 149.487379,70.4724804 148.493001,68.8877264 C147.01846,66.5377869 145.488156,64.2226865 143.971899,61.8990888 C143.114589,60.5862497 142.348798,59.2156287 140.801467,58.5014272 C140.107616,58.1810775 140.035251,57.5221087 140.351102,56.7552237 C140.407717,56.6175668 140.51073,56.5003035 140.576284,56.3656207 C140.704839,56.1017783 140.821899,55.8332623 140.898521,55.6662896" id="Fill-14"></path>
                    <path d="M99.1290953,64.3922509 C99.3615142,64.0489584 99.4883655,63.7591991 99.7041831,63.5692835 C99.9766155,63.3300834 100.321839,63.1724577 100.610021,62.9952882 C102.166717,63.7876652 102.585156,65.2806479 103.131298,66.6385229 C103.978818,68.7445887 104.258487,70.9951093 104.502825,73.2328839 C104.673947,74.7985189 104.699487,76.3807237 104.791433,77.9552809 C104.799947,78.104834 104.842089,78.2560867 104.828467,78.4030907 C104.737798,79.3747616 103.665947,79.9126432 102.801399,79.4359424 C101.850866,78.9116565 101.509899,78.0032908 101.303447,77.0311951 C101.226825,76.670483 101.283866,76.2817297 101.280034,75.9065721 C101.256197,73.2711219 101.096568,70.654366 100.398034,68.0924178 C100.22223,67.4457702 100.263947,66.737092 100.061325,66.1023407 C99.8850953,65.5508633 99.5062439,65.0635408 99.1290953,64.3922509" id="Fill-16"></path>
                    <path d="M114.024424,67.181248 C113.470194,68.8858145 112.941079,70.5130552 112.39962,72.1793836 C110.817809,72.6900738 110.631363,72.5494428 109.454795,69.8086257 C107.341741,69.6374043 105.401937,69.0052021 104.560802,66.6943504 C104.826424,66.1042101 105.238903,65.6929388 105.941268,65.7715392 C107.676748,65.9648537 109.372214,65.8059535 111.077897,65.4252726 C111.68789,65.2893152 112.404728,65.4754069 113.036856,65.6479029 C113.503822,65.7745133 113.571505,66.0222108 114.024424,67.181248" id="Fill-18"></path>
                    <path d="M118.806209,68.6616547 C118.983716,67.9771939 119.353202,67.5111148 120.157729,67.4125456 C121.272574,67.2744638 122.381459,67.0773255 123.486087,66.8687158 C124.380006,66.6996187 125.095141,66.9715336 125.745148,67.5756945 C126.221053,68.018406 126.406222,68.4789618 126.33556,69.1612983 C126.032053,72.1141241 126.13677,73.7919239 126.696533,76.8594638 C127.056655,76.983525 127.499357,77.0701979 127.873526,77.2796573 C128.441803,77.597033 128.450743,78.4484665 127.933972,78.788785 C126.287884,79.8721959 124.544317,79.7766008 122.79479,79.1359013 C122.361452,78.9774259 122.184371,78.5155955 122.254182,78.0074545 C122.560243,75.7709545 121.975364,73.5544233 122.254182,71.2478202 C120.734945,70.7804665 119.231033,70.414656 118.806209,68.6616547" id="Fill-20"></path>
                    <path d="M125.953303,59.94606 C125.827303,61.2121638 125.703857,62.4506511 125.574878,63.7443712 C124.48004,64.1276013 123.474168,64.3209158 122.564074,63.5595541 C121.485837,62.6575614 120.793263,61.5193426 120.959276,60.0556757 C120.993756,59.7506212 121.317695,59.2892156 121.581189,59.2310088 C122.898229,58.9416744 124.23783,58.8363074 125.503364,59.4761571 C125.688533,59.5696279 125.808574,59.7901338 125.953303,59.94606" id="Fill-22"></path>
                    <path d="M81.293923,76.3627943 C82.5143351,76.15291 83.5423419,75.9838129 84.5673689,75.798146 C86.3386054,75.4765217 88.1132473,75.171892 89.8742676,74.8060815 C90.7835108,74.6174406 91.0644568,74.2665004 91.0227405,73.4235642 C90.9418622,71.7878262 90.8073486,70.1554871 90.6770919,68.5227231 C90.6673014,68.3965376 90.5170378,68.2813987 90.3757135,68.0808614 C87.9514905,68.0175562 85.5289703,68.5307956 83.0898486,68.8388242 C82.7450514,68.8825855 82.4283486,69.1434539 82.049923,69.3269964 C81.9975649,69.8704013 81.8890176,70.3870396 81.9103014,70.8981547 C81.9758554,72.4837584 81.9298824,74.0353727 81.1193959,75.4731227 C81.0406459,75.6120543 81.1913351,75.8801453 81.293923,76.3627943 M78.7411459,69.4459592 C77.9970649,69.2390489 77.4760378,69.1477025 77.0001324,68.9484399 C76.4552676,68.721136 76.1977338,68.2108707 76.3254365,67.6615177 C76.395673,67.3594372 76.7089703,67.0203934 77.0005581,66.8784878 C78.4921257,66.1515403 80.0326459,65.6501972 81.7400311,65.6132338 C83.2388351,65.580519 84.7525378,65.4033495 86.2228216,65.107642 C87.7292878,64.804287 89.2234095,64.8697165 90.7226392,64.9308973 C92.4547135,65.0014253 93.1047203,65.6586945 93.2447676,67.4252916 C93.3035108,68.16541 93.2222068,68.9169997 93.1983689,69.6626414 C93.15495,70.9962989 92.9208284,72.3439771 93.4418554,73.6376972 C94.2978892,73.7872504 95.0977338,73.9270316 95.7651932,74.0434452 C95.9278014,74.2312364 96.0057,74.2813707 96.0218757,74.3459505 C96.524173,76.3793641 96.4437203,76.5833003 94.5779838,77.1267052 C92.8493149,77.6301726 91.1146865,78.0750084 89.3021595,78.274271 C87.4402541,78.478632 85.6107,78.974027 83.7670986,79.344511 C83.4716797,79.4035676 83.1800919,79.4808934 82.8842473,79.5374007 C80.52345,79.9886094 79.0727473,78.3532963 78.9782473,76.0764339 C78.9186527,74.6514299 78.9867608,73.2209027 78.9531324,71.7937743 C78.9361054,71.0523814 78.8228757,70.3131128 78.7411459,69.4459592" id="Fill-24"></path>
                    <path d="M86.8775959,72.2879797 C86.8358797,72.762981 86.8448189,72.9902848 86.7920351,73.2027184 C86.6345351,73.8349205 85.7269946,74.1395501 85.1846838,73.7563201 C84.5482986,73.305961 84.2103122,72.3342902 84.437623,71.6098919 C84.6385419,70.9683427 85.8525689,70.6441691 86.2854811,71.1680302 C86.5936703,71.5410634 86.7503189,72.0381578 86.8775959,72.2879797" id="Fill-26"></path>
                    <g id="Group-5" transform="translate(49.000000, 0.000000)">
                        <path d="M18.3339318,41.0430465 C18.4914318,36.2764634 23.1410872,31.4155598 28.0193304,30.6805398 C31.1876345,30.2034142 33.9025939,31.5188025 36.5920128,32.8575584 C39.5704655,34.3407692 40.7014858,36.9762193 40.6525331,40.5633716 C42.1492088,38.7742566 42.8869047,37.2039481 42.9652291,35.3502533 C43.2551142,28.5077699 36.2795669,21.7893477 29.4244858,22.1432619 C19.8046412,22.6395066 17.6336953,27.1979049 16.4933101,32.7543158 C15.8948101,35.670603 16.4077493,38.4322386 18.3339318,41.0430465 M39.119675,40.5374547 C39.2120466,35.1645864 33.0418777,30.8029015 27.5089453,32.26147 C24.7620601,32.9854434 22.6681615,34.6662174 20.8611682,36.7123769 C19.0784385,38.7304953 19.8663642,41.04772 20.4116547,43.2859195 C20.5555331,43.8773344 21.1233845,44.5562719 20.4780601,45.0253251 C19.7965534,45.5202951 19.3002155,44.7338663 18.895398,44.3502114 C15.557675,41.1845272 14.2312696,37.2417612 14.9876953,32.7611136 C16.3026074,24.9720265 20.6547155,21.1545963 28.5790939,20.5466116 C36.0020264,19.976865 42.8532764,25.0366063 44.6045061,32.3812825 C45.2459993,35.0706908 42.9992831,41.6735491 41.0301074,42.7352918 C40.5192966,43.0106057 39.9995466,43.6746728 39.3210196,43.1873503 C38.7412493,42.7714055 39.1239318,42.1230584 39.1201007,41.5728557 C39.1179723,41.2278636 39.119675,40.8824467 39.119675,40.5374547" id="Fill-28"></path>
                        <path d="M25.2904514,7.23561283 C25.259377,8.96397188 25.1891405,10.7127245 26.2048027,12.2307744 C26.5781203,12.7881999 27.0480662,13.4696866 27.7721405,12.4822957 C29.27435,10.4323123 28.9853162,4.2768389 27.2970865,2.44438743 C26.5295932,1.61207294 26.0822081,1.77437214 25.7731676,2.80849847 C25.3406811,4.25814475 25.2283027,5.73710685 25.2904514,7.23561283 M23.8678432,6.22952773 C23.8227216,5.23236483 24.0951541,3.47256563 24.7226,1.79264142 C25.3402554,0.138634109 26.4478635,-0.0725248005 27.7738432,1.11922719 C30.0014041,3.12077573 30.882127,8.21875512 29.5799851,11.6359606 C29.2530662,12.4937671 28.8631473,13.3277811 28.5468703,14.1894114 C28.0807554,15.4606135 27.495877,15.439795 26.5419378,14.5760404 C24.2713838,12.5209586 23.8993432,9.85449315 23.8678432,6.22952773" id="Fill-30"></path>
                        <path d="M8.38461419,33.3981168 C6.96583716,32.6482265 5.70158041,32.6282577 4.46712095,32.5135436 C3.99930338,32.4702072 3.49870878,32.6660709 3.44039122,33.2090509 C3.37441149,33.8195848 3.91799932,33.9355735 4.36495878,33.9776354 C5.64964797,34.0974479 6.94838446,34.2325556 8.38461419,33.3981168 M5.61474257,35.471043 C4.11593851,35.4531985 2.87041149,35.2424645 1.85730338,34.374886 C0.917411486,33.5706128 0.733093919,32.486777 1.15366149,31.3927444 C1.55166824,30.3577684 2.52263446,30.2808674 3.48721554,30.3917577 C5.37423581,30.6097145 7.30126959,30.7520449 8.88776284,31.9476207 C10.5053304,33.1665642 10.390398,33.8336055 8.52338446,34.5741487 C7.51495878,34.9739485 6.56825608,35.589156 5.61474257,35.471043" id="Fill-32"></path>
                        <path d="M55.9259892,31.5131942 C53.5370973,30.5173059 50.8136243,31.1503578 49.1270973,33.1472328 C51.5134351,32.5464708 53.7137527,32.5893824 55.9259892,31.5131942 M50.5858878,34.4154608 C50.4147662,34.3954921 50.2432189,34.3755233 50.072523,34.3547049 C49.1488068,34.2433897 47.8219757,34.7528053 47.4848405,33.5980167 C47.1532392,32.4619223 48.4136649,31.8280207 49.2024419,31.2841909 C50.9847459,30.0571749 52.9824419,29.3225799 55.2108541,29.7266284 C56.2639757,29.9173937 57.3136919,30.341411 57.4328811,31.5569555 C57.5478135,32.7257647 56.5632257,33.2326311 55.6420635,33.5941929 C54.0240703,34.2297939 52.3422257,34.57776 50.5858878,34.4154608" id="Fill-34"></path>
                        <path d="M31.4637703,41.8183013 C31.3986419,41.4193512 31.3275541,40.9201324 30.7571486,40.8763711 C30.1782297,40.832185 29.9879527,41.2893419 29.969223,41.768167 C29.9479392,42.3064735 30.1020338,42.8503033 30.7482095,42.8579509 C31.3215946,42.8643239 31.4088581,42.3459862 31.4637703,41.8183013 M28.2265068,41.0233751 C28.1818108,39.0702614 28.9510068,38.0021457 30.3966014,38.0119177 C32.019277,38.0221145 33.5981081,39.7190334 33.6168378,41.4716098 C33.6355676,43.2815434 32.5190203,44.784298 31.0998176,44.8586497 C29.2251419,44.956794 28.2882297,43.7064104 28.2265068,41.0233751" id="Fill-36"></path>
                        <path d="M10.2047608,14.2477881 C10.1817743,15.9396086 11.0309973,16.9053313 11.9223622,17.8413134 C12.1381797,18.0681924 12.4450919,18.0958087 12.6873014,17.8595826 C12.9341932,17.6195328 12.8648081,17.3102296 12.6966662,17.0744284 C12.0160108,16.1189025 11.4332608,15.0669317 10.2047608,14.2477881 M14.4593892,19.2667422 C14.5517608,19.9329337 14.2052608,20.2830241 13.5756865,19.995814 C11.6405649,19.1133652 9.70629459,18.1990514 8.61358514,16.2060002 C8.16194324,15.382183 7.90781486,14.5082316 8.04403108,13.5641771 C8.28070676,11.9233406 9.68756486,11.2941126 10.9122338,12.4200102 C12.8946054,14.24184 14.3883014,16.3988898 14.4593892,19.2667422" id="Fill-38"></path>
                        <path d="M45.3830669,17.3276491 C46.8512223,16.0674936 48.4883709,14.9339483 49.1877561,12.9948553 C47.2360331,13.8195221 46.1667358,15.4395401 45.3830669,17.3276491 M50.8508709,12.8584729 C50.6529318,13.7349736 50.2476885,14.423683 49.7300669,15.0558852 C48.2291345,16.8896112 46.6937223,18.6876485 44.5568304,19.8309656 C44.0894385,20.0807874 43.5117966,20.3038426 43.1218777,19.8224683 C42.570202,19.1422562 43.3210939,18.9880295 43.7084588,18.7122908 C43.9532223,18.5385201 44.1469047,18.3273612 44.1311547,18.0065866 C43.9813169,14.9292748 46.4532155,13.5777728 48.270425,11.8226471 C48.8063507,11.305584 49.5942764,11.0515135 50.3472966,11.5375614 C50.8444858,11.8574862 50.8713034,12.3936684 50.8508709,12.8584729" id="Fill-40"></path>
                    </g>
                </g>
            </g>
        </g>
    </g>
</svg>