<svg width="256px" height="256px" viewBox="0 0 256 256" version="1.1" xmlns="http://www.w3.org/2000/svg" xmlns:xlink="http://www.w3.org/1999/xlink">
    <!-- Generator: Sketch 43.1 (39012) - http://www.bohemiancoding.com/sketch -->
    <desc>Created with Sketch.</desc>
    <defs>
        <linearGradient x1="42.7881211%" y1="85.4326986%" x2="42.7881203%" y2="0%" id="linearGradient-1">
            <stop stop-color="#FFFEEC" offset="0%"></stop>
            <stop stop-color="#9EE5FF" offset="100%"></stop>
        </linearGradient>
        <rect id="path-2" x="0" y="0" width="256" height="256"></rect>
        <circle id="path-4" cx="19.5" cy="19.5" r="19.5"></circle>
        <linearGradient x1="50%" y1="0%" x2="50%" y2="100%" id="linearGradient-6">
            <stop stop-color="#FCE248" stop-opacity="0.584805254" offset="0%"></stop>
            <stop stop-color="#40F45E" stop-opacity="0.52" offset="100%"></stop>
        </linearGradient>
        <circle id="path-7" cx="19.5" cy="19.5" r="19.5"></circle>
        <path d="M25.3709693,18.3205481 C35.9035051,18.3205481 35.4155739,5.87964774 35.4155739,5.87964774 C35.8145295,2.2966167 39.0580808,-0.320210192 42.6638753,0.0351587265 L44.392431,0.205516452 C47.9966017,0.560725338 50.7138271,3.78146474 50.205466,7.37022682 C50.205466,7.37022682 50.5311901,32.3232323 25.3709693,32.3232323 C0.210748561,32.3232323 0.843420164,7.37022682 0.843420164,7.37022682 C0.494005286,3.76847543 3.13572238,0.557398541 6.73316208,0.199151228 L8.31602009,0.0415239507 C11.9182496,-0.317200351 15.0010834,2.32881397 15.4852443,5.90612993 C15.4852443,5.90612993 14.8384336,18.3205481 25.3709693,18.3205481 Z" id="path-9"></path>
        <path d="M7.28389055,143.596834 C3.26110888,143.596834 -1.27971428e-13,146.859814 6.39488462e-14,150.885601 L1.69476297e-13,153.099181 C1.14103527e-12,173.478941 16.5197988,190 36.9052347,190 L42.3585268,190 C62.7407251,190 79.2637615,173.471122 79.2637615,153.09851 L79.2637615,7.00172928 C79.2637615,3.13478098 76.1321363,0 72.2614583,0 L71.7512659,0 C67.8840006,0 64.7489627,3.12404557 64.7489627,6.99578918 L64.7489627,152.29414 C64.7489627,165.216916 54.2697342,175.692897 41.3533323,175.692897 L39.0151936,175.692897 C26.0941437,175.692897 15.6195632,165.216758 15.6195632,152.29307 L15.6195632,150.879927 C15.6195632,146.857586 12.3642037,143.596834 8.33567268,143.596834 L7.28389055,143.596834 Z" id="path-11"></path>
    </defs>
    <g id="Page-1" stroke="none" stroke-width="1" fill="none" fill-rule="evenodd">
        <g id="Desktop" transform="translate(-512.000000, -386.000000)">
            <g id="Group-4-Copy-11" transform="translate(512.000000, 386.000000)">
                <mask id="mask-3" fill="white">
                    <use xlink:href="#path-2"></use>
                </mask>
                <use id="Rectangle-2-Copy-3" fill="url(#linearGradient-1)" xlink:href="#path-2"></use>
                <path d="M60.0721035,97 C60.0721035,97 57.0155358,68 90.7042228,68 C124.39291,68 133.729418,68 167.251928,68 C200.774439,68 196.859658,97 196.859658,97" id="Path-2" stroke="#6E6E6E" stroke-width="3" mask="url(#mask-3)"></path>
                <path d="M65,96.0095798 C65,91.0337263 69.0318595,87 73.9984212,87 L182.001579,87 C186.97127,87 191,91.0253119 191,96.0095798 L191,149.99042 C191,154.966274 186.97351,159 181.995678,159 L145.216016,159 C133.580696,159 133.558295,142.68211 128,142.68211 C122.441705,142.68211 121.997154,159 111.229708,159 C100.462262,159 73.998952,159 73.998952,159 C69.028968,159 65,154.974688 65,149.99042 L65,96.0095798 Z" id="Rectangle" fill="#6E6E6E" mask="url(#mask-3)"></path>
                <rect id="Rectangle-7" fill="#6E6E6E" mask="url(#mask-3)" x="121" y="65" width="15" height="26"></rect>
                <g id="Group-4" mask="url(#mask-3)">
                    <g transform="translate(78.000000, 103.000000)">
                        <mask id="mask-5" fill="white">
                            <use xlink:href="#path-4"></use>
                        </mask>
                        <g id="Oval-2" stroke="none" fill="none">
                            <use fill="#A4C7DD" fill-rule="evenodd" xlink:href="#path-4"></use>
                            <circle stroke="#979797" stroke-width="1.5" cx="19.5" cy="19.5" r="20.25"></circle>
                        </g>
                        <g id="Group-7" stroke="none" stroke-width="1" fill="none" fill-rule="evenodd" mask="url(#mask-5)">
                            <g transform="translate(26.250000, 25.500000)">
                                <path d="M0.269736235,2.15370532 C0.269736235,2.15370532 3.97562387,5.52692451 5.36364099,5.82920504 C6.75165811,6.13148558 14.1204528,6.60287213 14.1204528,6.60287213 C14.1204528,6.60287213 14.5841693,4.31493148 13.6435851,4.03156561 C12.7030009,3.74819973 11.9339446,3.7159311 11.9339446,3.7159311 L10.9514123,0.93564271 L13.0379,0.862027183 L12.9280358,0.708459602 L8.36345382,0.160815989 L8.36345382,0.530664126 L10.0631338,0.93564271 L10.9514123,3.57460127 L0.269736235,2.15370532 Z" id="Path-7" fill="#A5A5A5"></path>
                                <polygon id="Path-8" fill="#77A3B3" points="5.99385782 2.20859299 7.12190811 1.5 10.8497282 2.90019942 11.0320098 3.67647765 4.96941917 2.90019942"></polygon>
                            </g>
                        </g>
                        <path d="M20.5597304,28.461901 C34.2196438,29.5357308 31.2929427,32.4494241 46.9542026,32.1141276 C62.6154625,31.7788312 36.6052047,47.4663317 18.4744136,47.8001703 C0.34362238,48.134009 -11.457038,38.7422683 -7.92767843,34.9534184 C-4.39831882,31.1645685 6.89981709,27.3880712 20.5597304,28.461901 Z" id="Path-4" stroke="none" fill="#888888" fill-rule="evenodd" mask="url(#mask-5)"></path>
                        <path d="M21.0903633,32.9239469 C21.0903633,32.9239469 22.4439595,26.4365728 21.9408813,22.9965067 C21.4378031,19.5564406 19.4167929,15.2562436 19.4167929,15.2562436 C19.4167929,15.2562436 18.2632378,15.4388898 17.3500066,17.1600672 C16.4367755,18.8812447 16.0485951,21.7216452 16.0485951,21.7216452 C16.0485951,21.7216452 14.3136848,20.2491952 14.8840537,17.7043438 C15.4544227,15.1594924 17.3500066,14.343928 17.3500066,14.343928 C17.3500066,14.343928 15.0355723,13.8239127 13.7739858,16.1909894 C12.5123994,18.5580661 13.218723,19.7606016 13.218723,19.7606016 C13.218723,19.7606016 10.7967151,16.504555 12.2853505,14.343928 C13.7739858,12.183301 16.4509661,12.3764757 16.4509661,12.3764757 C16.4509661,12.3764757 15.2710389,10.7860511 13.4518706,11.2091878 C11.6327023,11.6323245 9.86988079,13.9496552 9.86988079,13.9496552 C9.86988079,13.9496552 9.22284046,9.51025723 12.6499231,8.42973174 C16.0770057,7.34920625 17.9720158,11.4987641 17.9720158,11.4987641 C17.9720158,11.4987641 17.4932855,7.11406718 20.3483344,6.35967876 C23.2033832,5.60529035 24.5780364,7.91102726 24.5780364,7.91102726 C24.5780364,7.91102726 22.2155372,7.62813161 20.7845796,8.87598526 C19.353622,10.1238389 19.4167929,11.7424781 19.4167929,11.7424781 C19.4167929,11.7424781 20.783082,9.58335473 23.6493963,9.35195015 C26.5157106,9.12054558 27.4349541,11.4987641 27.4349541,11.4987641 C27.4349541,11.4987641 25.9396428,10.6758974 23.6493963,11.2091878 C21.3591497,11.7424781 20.7845796,13.495241 20.7845796,13.495241 C20.7845796,13.495241 22.0887377,12.5028174 23.9509053,12.7641983 C25.8130728,13.0255793 26.1266383,15.2562436 26.1266383,15.2562436 C26.1266383,15.2562436 25.1973856,14.343928 23.3471199,14.343928 C21.4968541,14.343928 20.7845796,14.9133097 20.7845796,14.9133097 C20.7845796,14.9133097 23.5045893,20.4838623 24.0548168,23.8117772 C24.6050442,27.1396921 24.5780364,32.9239469 24.5780364,32.9239469 L21.0903633,32.9239469 Z" id="Path-6" stroke="none" fill="#888888" fill-rule="evenodd" mask="url(#mask-5)"></path>
                        <rect id="Rectangle-4" stroke="none" fill="url(#linearGradient-6)" fill-rule="evenodd" mask="url(#mask-5)" x="-5.25" y="-3.75" width="49.5" height="47.25"></rect>
                    </g>
                </g>
                <path d="M53,104.50208 C53,102.01565 55.0236492,100 57.5026852,100 L63,100 L63,133 L57.5026852,133 C55.0159208,133 53,130.985378 53,128.49792 L53,104.50208 Z" id="Rectangle-2" fill="#6E6E6E" mask="url(#mask-3)"></path>
                <path d="M193,104.50208 C193,102.01565 195.023649,100 197.502685,100 L203,100 L203,133 L197.502685,133 C195.015921,133 193,130.985378 193,128.49792 L193,104.50208 Z" id="Rectangle-2-Copy" fill="#6E6E6E" mask="url(#mask-3)" transform="translate(198.000000, 116.500000) scale(-1, 1) translate(-198.000000, -116.500000) "></path>
                <g id="Group-5" mask="url(#mask-3)">
                    <g transform="translate(139.000000, 103.000000)">
                        <mask id="mask-8" fill="white">
                            <use xlink:href="#path-7"></use>
                        </mask>
                        <g id="Oval-2-Copy" stroke="none" fill="none">
                            <use fill="#A4C7DC" fill-rule="evenodd" xlink:href="#path-7"></use>
                            <circle stroke="#979797" stroke-width="1.5" cx="19.5" cy="19.5" r="20.25"></circle>
                        </g>
                        <g id="Group-7" stroke="none" stroke-width="1" fill="none" fill-rule="evenodd" mask="url(#mask-8)">
                            <g transform="translate(21.000000, 24.750000)">
                                <path d="M0.269736235,2.15370532 C0.269736235,2.15370532 3.97562387,5.52692451 5.36364099,5.82920504 C6.75165811,6.13148558 14.1204528,6.60287213 14.1204528,6.60287213 C14.1204528,6.60287213 14.5841693,4.31493148 13.6435851,4.03156561 C12.7030009,3.74819973 11.9339446,3.7159311 11.9339446,3.7159311 L10.9514123,0.93564271 L13.0379,0.862027183 L12.9280358,0.708459602 L8.36345382,0.160815989 L8.36345382,0.530664126 L10.0631338,0.93564271 L10.9514123,3.57460127 L0.269736235,2.15370532 Z" id="Path-7" fill="#A5A5A5"></path>
                                <polygon id="Path-8" fill="#77A3B3" points="5.99385782 2.20859299 7.12190811 1.5 10.8497282 2.90019942 11.0320098 3.67647765 4.96941917 2.90019942"></polygon>
                            </g>
                        </g>
                        <path d="M-7.91502835,31.0368056 C2.37752609,31.0368056 11.4032324,28.4461635 22.8776601,29.4258123 C34.3520878,30.405461 48.3310342,31.0368056 48.3310342,31.0368056 C48.3310342,31.0368056 37.0694468,47.5465113 22.8776601,46.8525934 C8.68587329,46.1586755 -18.2075828,31.0368056 -7.91502835,31.0368056 Z" id="Path-5" stroke="none" fill="#888888" fill-rule="evenodd" mask="url(#mask-8)"></path>
                        <path d="M14.3403633,32.9239469 C14.3403633,32.9239469 15.6939595,26.4365728 15.1908813,22.9965067 C14.6878031,19.5564406 12.6667929,15.2562436 12.6667929,15.2562436 C12.6667929,15.2562436 11.5132378,15.4388898 10.6000066,17.1600672 C9.68677553,18.8812447 9.29859508,21.7216452 9.29859508,21.7216452 C9.29859508,21.7216452 7.56368484,20.2491952 8.13405375,17.7043438 C8.70442266,15.1594924 10.6000066,14.343928 10.6000066,14.343928 C10.6000066,14.343928 8.2855723,13.8239127 7.02398585,16.1909894 C5.7623994,18.5580661 6.46872302,19.7606016 6.46872302,19.7606016 C6.46872302,19.7606016 4.04671508,16.504555 5.53535046,14.343928 C7.02398585,12.183301 9.70096609,12.3764757 9.70096609,12.3764757 C9.70096609,12.3764757 8.52103892,10.7860511 6.70187059,11.2091878 C4.88270226,11.6323245 3.11988079,13.9496552 3.11988079,13.9496552 C3.11988079,13.9496552 2.47284046,9.51025723 5.89992306,8.42973174 C9.32700567,7.34920625 11.2220158,11.4987641 11.2220158,11.4987641 C11.2220158,11.4987641 10.7432855,7.11406718 13.5983344,6.35967876 C16.4533832,5.60529035 17.8280364,7.91102726 17.8280364,7.91102726 C17.8280364,7.91102726 15.4655372,7.62813161 14.0345796,8.87598526 C12.603622,10.1238389 12.6667929,11.7424781 12.6667929,11.7424781 C12.6667929,11.7424781 14.033082,9.58335473 16.8993963,9.35195015 C19.7657106,9.12054558 20.6849541,11.4987641 20.6849541,11.4987641 C20.6849541,11.4987641 19.1896428,10.6758974 16.8993963,11.2091878 C14.6091497,11.7424781 14.0345796,13.495241 14.0345796,13.495241 C14.0345796,13.495241 15.3387377,12.5028174 17.2009053,12.7641983 C19.0630728,13.0255793 19.3766383,15.2562436 19.3766383,15.2562436 C19.3766383,15.2562436 18.4473856,14.343928 16.5971199,14.343928 C14.7468541,14.343928 14.0345796,14.9133097 14.0345796,14.9133097 C14.0345796,14.9133097 16.7545893,20.4838623 17.3048168,23.8117772 C17.8550442,27.1396921 17.8280364,32.9239469 17.8280364,32.9239469 L14.3403633,32.9239469 Z" id="Path-6" stroke="none" fill="#888888" fill-rule="evenodd" mask="url(#mask-8)"></path>
                        <rect id="Rectangle-4" stroke="none" fill="url(#linearGradient-6)" fill-rule="evenodd" mask="url(#mask-8)" x="-6.75" y="-3.75" width="49.5" height="47.25"></rect>
                    </g>
                </g>
                <g id="Group-13" mask="url(#mask-3)">
                    <g transform="translate(129.000000, 41.000000)">
                        <g id="Group-9" transform="translate(0.000000, 123.737374)">
                            <mask id="mask-10" fill="white">
                                <use xlink:href="#path-9"></use>
                            </mask>
                            <use id="Path-10" fill="#BDBDBD" xlink:href="#path-9"></use>
                            <path d="M-7.94579991,-10.5518464 C11.5405037,-9.1138248 1.56629059,5.41005493 7.91837933,19.1295685 C14.2704681,32.8490821 34.7533522,27.4704712 28.6978146,36.7512268 C22.6422771,46.0319825 -21.8307441,21.7966456 -21.8307441,14.611316 C-21.8307441,7.42598638 -27.4321035,-11.9898681 -7.94579991,-10.5518464 Z" id="Path-12" fill="#C8C6C6" mask="url(#mask-10)"></path>
                        </g>
                        <g id="Group-8" transform="translate(17.837156, 0.000000)">
                            <mask id="mask-12" fill="white">
                                <use xlink:href="#path-11"></use>
                            </mask>
                            <use id="Path-9" fill="#FFF4A2" xlink:href="#path-11"></use>
                            <path d="M4.64991002,137.198974 C4.64991002,137.198974 -4.51259684,179.638028 42.1631552,179.638028 C68.9792669,179.638028 68.9792669,151.14567 68.9792669,151.14567 L68.9792669,-12.1370458 C68.9792669,-20.9690013 4.64991002,137.198974 4.64991002,137.198974 Z" id="Path-11" fill="#FCE383" mask="url(#mask-12)"></path>
                        </g>
                    </g>
                </g>
            </g>
        </g>
    </g>
</svg>