
<svg width="352px" height="113px" viewBox="340 1238 352 113" version="1.1" xmlns="http://www.w3.org/2000/svg" xmlns:xlink="http://www.w3.org/1999/xlink">
    <!-- Generator: Sketch 42 (36781) - http://www.bohemiancoding.com/sketch -->
    <desc>Created with Sketch.</desc>
    <defs></defs>
    <g id="Group-4" stroke="none" stroke-width="1" fill="none" fill-rule="evenodd" transform="translate(340.000000, 1238.000000)">
        <rect id="Rectangle" fill="#F3F3F3" x="0" y="0" width="176" height="113"></rect>
        <rect id="Rectangle-Copy" fill="#71A5E1" x="176" y="0" width="176" height="113"></rect>
        <path d="M29.3007812,33.9375 C31.2382909,33.9375 32.757807,34.3808549 33.859375,35.2675781 C34.960943,36.1543013 35.5117188,37.3788984 35.5117188,38.9414062 C35.5117188,39.8007855 35.2812523,40.5468718 34.8203125,41.1796875 C34.3593727,41.8125032 33.6835982,42.3242168 32.7929688,42.7148438 C33.8007863,43.0117202 34.5253884,43.5058559 34.9667969,44.1972656 C35.4082053,44.8886753 35.6289062,45.7460886 35.6289062,46.7695312 L35.6289062,47.6367188 C35.6289062,48.0117206 35.7031243,48.3027333 35.8515625,48.5097656 C36.0000007,48.7167979 36.246092,48.8398436 36.5898438,48.8789062 L37.0117188,48.9375 L37.0117188,51 L35.2421875,51 C34.1249944,51 33.339846,50.6992218 32.8867188,50.0976562 C32.4335915,49.4960907 32.2070312,48.7187548 32.2070312,47.765625 L32.2070312,46.7929688 C32.2070312,45.9648396 31.9863303,45.3144555 31.5449219,44.8417969 C31.1035134,44.3691383 30.4804728,44.1210939 29.6757812,44.0976562 L26.875,44.0976562 L26.875,48.5976562 L28.703125,48.9492188 L28.703125,51 L21.6367188,51 L21.6367188,48.9492188 L23.453125,48.5976562 L23.453125,36.3515625 L21.6367188,36 L21.6367188,33.9375 L29.3007812,33.9375 Z M26.875,41.4609375 L29.2421875,41.4609375 C30.1953173,41.4609375 30.9101539,41.2578145 31.3867188,40.8515625 C31.8632836,40.4453105 32.1015625,39.8593788 32.1015625,39.09375 C32.1015625,38.3281212 31.8652367,37.7167992 31.3925781,37.2597656 C30.9199195,36.8027321 30.2226609,36.5742188 29.3007812,36.5742188 L26.875,36.5742188 L26.875,41.4609375 Z M38.21875,44.5429688 C38.21875,42.6523343 38.7480416,41.1035217 39.8066406,39.8964844 C40.8652397,38.6894471 42.3281157,38.0859375 44.1953125,38.0859375 C46.0703219,38.0859375 47.5371041,38.687494 48.5957031,39.890625 C49.6543022,41.093756 50.1835938,42.6445218 50.1835938,44.5429688 L50.1835938,44.7890625 C50.1835938,46.695322 49.6543022,48.2480409 48.5957031,49.4472656 C47.5371041,50.6464904 46.0781343,51.2460938 44.21875,51.2460938 C42.3359281,51.2460938 40.8652397,50.6464904 39.8066406,49.4472656 C38.7480416,48.2480409 38.21875,46.695322 38.21875,44.7890625 L38.21875,44.5429688 Z M41.640625,44.7890625 C41.640625,45.9453183 41.843748,46.8730434 42.25,47.5722656 C42.656252,48.2714879 43.3124955,48.6210938 44.21875,48.6210938 C45.1015669,48.6210938 45.7480448,48.2695348 46.1582031,47.5664062 C46.5683614,46.8632777 46.7734375,45.9375057 46.7734375,44.7890625 L46.7734375,44.5429688 C46.7734375,43.4179631 46.5664083,42.5000036 46.1523438,41.7890625 C45.7382792,41.0781214 45.085942,40.7226562 44.1953125,40.7226562 C43.304683,40.7226562 42.656252,41.0781214 42.25,41.7890625 C41.843748,42.5000036 41.640625,43.4179631 41.640625,44.5429688 L41.640625,44.7890625 Z M63.9296875,45.0117188 C63.9296875,46.9023532 63.5078167,48.4140568 62.6640625,49.546875 C61.8203083,50.6796932 60.6015705,51.2460938 59.0078125,51.2460938 C58.2656213,51.2460938 57.6210965,51.0917984 57.0742188,50.7832031 C56.527341,50.4746078 56.0664081,50.0273467 55.6914062,49.4414062 L55.4453125,51 L52.4921875,51 L52.4921875,35.1328125 L50.6757812,34.78125 L50.6757812,32.71875 L55.9023438,32.71875 L55.9023438,39.6679688 C56.2695331,39.1601537 56.7089818,38.7695326 57.2207031,38.4960938 C57.7324244,38.2226549 58.3203092,38.0859375 58.984375,38.0859375 C60.593758,38.0859375 61.8203083,38.6933533 62.6640625,39.9082031 C63.5078167,41.1230529 63.9296875,42.7421774 63.9296875,44.765625 L63.9296875,45.0117188 Z M60.5195312,44.765625 C60.5195312,43.5312438 60.3378924,42.552738 59.9746094,41.8300781 C59.6113263,41.1074183 58.9921919,40.7460938 58.1171875,40.7460938 C57.5859348,40.7460938 57.1367206,40.8574208 56.7695312,41.0800781 C56.4023419,41.3027355 56.1132823,41.6210917 55.9023438,42.0351562 L55.9023438,47.390625 C56.1132823,47.781252 56.404295,48.078124 56.7753906,48.28125 C57.1464862,48.484376 57.6015598,48.5859375 58.140625,48.5859375 C59.0234419,48.5859375 59.6406232,48.2753937 59.9921875,47.6542969 C60.3437518,47.0332 60.5195312,46.1523495 60.5195312,45.0117188 L60.5195312,44.765625 Z M65.5117188,44.5429688 C65.5117188,42.6523343 66.0410103,41.1035217 67.0996094,39.8964844 C68.1582084,38.6894471 69.6210844,38.0859375 71.4882812,38.0859375 C73.3632906,38.0859375 74.8300728,38.687494 75.8886719,39.890625 C76.9472709,41.093756 77.4765625,42.6445218 77.4765625,44.5429688 L77.4765625,44.7890625 C77.4765625,46.695322 76.9472709,48.2480409 75.8886719,49.4472656 C74.8300728,50.6464904 73.371103,51.2460938 71.5117188,51.2460938 C69.6288968,51.2460938 68.1582084,50.6464904 67.0996094,49.4472656 C66.0410103,48.2480409 65.5117188,46.695322 65.5117188,44.7890625 L65.5117188,44.5429688 Z M68.9335938,44.7890625 C68.9335938,45.9453183 69.1367167,46.8730434 69.5429688,47.5722656 C69.9492208,48.2714879 70.6054642,48.6210938 71.5117188,48.6210938 C72.3945357,48.6210938 73.0410136,48.2695348 73.4511719,47.5664062 C73.8613302,46.8632777 74.0664062,45.9375057 74.0664062,44.7890625 L74.0664062,44.5429688 C74.0664062,43.4179631 73.8593771,42.5000036 73.4453125,41.7890625 C73.0312479,41.0781214 72.3789107,40.7226562 71.4882812,40.7226562 C70.5976518,40.7226562 69.9492208,41.0781214 69.5429688,41.7890625 C69.1367167,42.5000036 68.9335938,43.4179631 68.9335938,44.5429688 L68.9335938,44.7890625 Z M84.015625,35.2148438 L84.015625,38.3203125 L86.2421875,38.3203125 L86.2421875,40.7226562 L84.015625,40.7226562 L84.015625,47.1796875 C84.015625,47.6718775 84.1171865,48.0234364 84.3203125,48.234375 C84.5234385,48.4453136 84.7968733,48.5507812 85.140625,48.5507812 C85.3750012,48.5507812 85.5800772,48.5410157 85.7558594,48.5214844 C85.9316415,48.501953 86.1289052,48.4687502 86.3476562,48.421875 L86.640625,50.8945312 C86.2578106,51.0117193 85.8789081,51.0996091 85.5039062,51.1582031 C85.1289044,51.2167972 84.7226584,51.2460938 84.2851562,51.2460938 C83.1054629,51.2460938 82.1972688,50.9218782 81.5605469,50.2734375 C80.9238249,49.6249968 80.6054688,48.5976633 80.6054688,47.1914062 L80.6054688,40.7226562 L78.7421875,40.7226562 L78.7421875,38.3203125 L80.6054688,38.3203125 L80.6054688,35.2148438 L84.015625,35.2148438 Z M87.5664062,44.5429688 C87.5664062,42.6523343 88.0956978,41.1035217 89.1542969,39.8964844 C90.2128959,38.6894471 91.6757719,38.0859375 93.5429688,38.0859375 C95.4179781,38.0859375 96.8847603,38.687494 97.9433594,39.890625 C99.0019584,41.093756 99.53125,42.6445218 99.53125,44.5429688 L99.53125,44.7890625 C99.53125,46.695322 99.0019584,48.2480409 97.9433594,49.4472656 C96.8847603,50.6464904 95.4257905,51.2460938 93.5664062,51.2460938 C91.6835843,51.2460938 90.2128959,50.6464904 89.1542969,49.4472656 C88.0956978,48.2480409 87.5664062,46.695322 87.5664062,44.7890625 L87.5664062,44.5429688 Z M90.9882812,44.7890625 C90.9882812,45.9453183 91.1914042,46.8730434 91.5976562,47.5722656 C92.0039083,48.2714879 92.6601517,48.6210938 93.5664062,48.6210938 C94.4492232,48.6210938 95.0957011,48.2695348 95.5058594,47.5664062 C95.9160177,46.8632777 96.1210938,45.9375057 96.1210938,44.7890625 L96.1210938,44.5429688 C96.1210938,43.4179631 95.9140646,42.5000036 95.5,41.7890625 C95.0859354,41.0781214 94.4335982,40.7226562 93.5429688,40.7226562 C92.6523393,40.7226562 92.0039083,41.0781214 91.5976562,41.7890625 C91.1914042,42.5000036 90.9882812,43.4179631 90.9882812,44.5429688 L90.9882812,44.7890625 Z M119.78125,39.3867188 L117.214844,39.3867188 L116.769531,37.0429688 C116.472655,36.8554678 116.039065,36.691407 115.46875,36.5507812 C114.898435,36.4101555 114.292972,36.3398438 113.652344,36.3398438 C112.714839,36.3398438 111.990237,36.5371074 111.478516,36.9316406 C110.966794,37.3261738 110.710938,37.8359344 110.710938,38.4609375 C110.710938,39.0390654 110.978513,39.51367 111.513672,39.8847656 C112.048831,40.2558612 112.97265,40.6484354 114.285156,41.0625 C116.167978,41.5859401 117.595698,42.2773395 118.568359,43.1367188 C119.54102,43.996098 120.027344,45.124993 120.027344,46.5234375 C120.027344,47.9843823 119.449225,49.1367145 118.292969,49.9804688 C117.136713,50.824223 115.613291,51.2460938 113.722656,51.2460938 C112.371087,51.2460938 111.150396,51.0312521 110.060547,50.6015625 C108.970698,50.1718729 108.062504,49.5781288 107.335938,48.8203125 L107.335938,45.2578125 L109.984375,45.2578125 L110.347656,47.6835938 C110.691408,47.9648452 111.1582,48.1972647 111.748047,48.3808594 C112.337894,48.564454 112.99609,48.65625 113.722656,48.65625 C114.660161,48.65625 115.373044,48.4648457 115.861328,48.0820312 C116.349612,47.6992168 116.59375,47.1875032 116.59375,46.546875 C116.59375,45.8906217 116.36133,45.3632832 115.896484,44.9648438 C115.431638,44.5664043 114.617193,44.191408 113.453125,43.8398438 C111.429677,43.2539033 109.898443,42.5585978 108.859375,41.7539062 C107.820307,40.9492147 107.300781,39.8476632 107.300781,38.4492188 C107.300781,37.0663993 107.886713,35.9355513 109.058594,35.0566406 C110.230475,34.17773 111.703116,33.7265626 113.476562,33.703125 C114.789069,33.703125 115.98437,33.9023418 117.0625,34.3007812 C118.14063,34.6992207 119.046871,35.2304654 119.78125,35.8945312 L119.78125,39.3867188 Z M121.09375,34.78125 L121.09375,32.71875 L126.34375,32.71875 L126.34375,48.5976562 L127.996094,48.9492188 L127.996094,51 L121.269531,51 L121.269531,48.9492188 L122.921875,48.5976562 L122.921875,35.1328125 L121.09375,34.78125 Z M137.183594,51 C137.089843,50.7890614 137.007813,50.5722667 136.9375,50.3496094 C136.867187,50.126952 136.8125,49.9023449 136.773438,49.6757812 C136.367185,50.1445336 135.87305,50.5234361 135.291016,50.8125 C134.708981,51.1015639 134.042973,51.2460938 133.292969,51.2460938 C132.050775,51.2460938 131.064457,50.9082065 130.333984,50.2324219 C129.603512,49.5566372 129.238281,48.6367246 129.238281,47.4726562 C129.238281,46.2851503 129.714839,45.3671907 130.667969,44.71875 C131.621099,44.0703093 133.019522,43.7460938 134.863281,43.7460938 L136.609375,43.7460938 L136.609375,42.5039062 C136.609375,41.8945282 136.433596,41.4218767 136.082031,41.0859375 C135.730467,40.7499983 135.210941,40.5820312 134.523438,40.5820312 C134.132811,40.5820312 133.785158,40.6269527 133.480469,40.7167969 C133.17578,40.8066411 132.929688,40.9140619 132.742188,41.0390625 L132.519531,42.3984375 L129.941406,42.3984375 L129.953125,39.5859375 C130.578128,39.1640604 131.294918,38.8085952 132.103516,38.5195312 C132.912113,38.2304673 133.792964,38.0859375 134.746094,38.0859375 C136.316414,38.0859375 137.591792,38.4706993 138.572266,39.2402344 C139.552739,40.0097695 140.042969,41.1054616 140.042969,42.5273438 L140.042969,47.765625 C140.042969,47.9609385 140.044922,48.1445304 140.048828,48.3164062 C140.052734,48.4882821 140.066406,48.652343 140.089844,48.8085938 L141.132812,48.9492188 L141.132812,51 L137.183594,51 Z M134.21875,48.7148438 C134.734378,48.7148438 135.203123,48.6035167 135.625,48.3808594 C136.046877,48.158202 136.374999,47.8789079 136.609375,47.5429688 L136.609375,45.609375 L134.863281,45.609375 C134.136715,45.609375 133.585939,45.7792952 133.210938,46.1191406 C132.835936,46.4589861 132.648438,46.8671851 132.648438,47.34375 C132.648438,47.7734396 132.787108,48.1093738 133.064453,48.3515625 C133.341798,48.5937512 133.72656,48.7148438 134.21875,48.7148438 Z M154.175781,45.0117188 C154.175781,46.9023532 153.75391,48.4140568 152.910156,49.546875 C152.066402,50.6796932 150.847664,51.2460938 149.253906,51.2460938 C148.511715,51.2460938 147.86719,51.0917984 147.320312,50.7832031 C146.773435,50.4746078 146.312502,50.0273467 145.9375,49.4414062 L145.691406,51 L142.738281,51 L142.738281,35.1328125 L140.921875,34.78125 L140.921875,32.71875 L146.148438,32.71875 L146.148438,39.6679688 C146.515627,39.1601537 146.955076,38.7695326 147.466797,38.4960938 C147.978518,38.2226549 148.566403,38.0859375 149.230469,38.0859375 C150.839852,38.0859375 152.066402,38.6933533 152.910156,39.9082031 C153.75391,41.1230529 154.175781,42.7421774 154.175781,44.765625 L154.175781,45.0117188 Z M150.765625,44.765625 C150.765625,43.5312438 150.583986,42.552738 150.220703,41.8300781 C149.85742,41.1074183 149.238286,40.7460938 148.363281,40.7460938 C147.832029,40.7460938 147.382814,40.8574208 147.015625,41.0800781 C146.648436,41.3027355 146.359376,41.6210917 146.148438,42.0351562 L146.148438,47.390625 C146.359376,47.781252 146.650389,48.078124 147.021484,48.28125 C147.39258,48.484376 147.847654,48.5859375 148.386719,48.5859375 C149.269536,48.5859375 149.886717,48.2753937 150.238281,47.6542969 C150.589846,47.0332 150.765625,46.1523495 150.765625,45.0117188 L150.765625,44.765625 Z" id="Roboto-Slab" fill="#303030"></path>
        <path d="M205.300781,33.9375 C207.238291,33.9375 208.757807,34.3808549 209.859375,35.2675781 C210.960943,36.1543013 211.511719,37.3788984 211.511719,38.9414062 C211.511719,39.8007855 211.281252,40.5468718 210.820312,41.1796875 C210.359373,41.8125032 209.683598,42.3242168 208.792969,42.7148438 C209.800786,43.0117202 210.525388,43.5058559 210.966797,44.1972656 C211.408205,44.8886753 211.628906,45.7460886 211.628906,46.7695312 L211.628906,47.6367188 C211.628906,48.0117206 211.703124,48.3027333 211.851562,48.5097656 C212.000001,48.7167979 212.246092,48.8398436 212.589844,48.8789062 L213.011719,48.9375 L213.011719,51 L211.242188,51 C210.124994,51 209.339846,50.6992218 208.886719,50.0976562 C208.433591,49.4960907 208.207031,48.7187548 208.207031,47.765625 L208.207031,46.7929688 C208.207031,45.9648396 207.98633,45.3144555 207.544922,44.8417969 C207.103513,44.3691383 206.480473,44.1210939 205.675781,44.0976562 L202.875,44.0976562 L202.875,48.5976562 L204.703125,48.9492188 L204.703125,51 L197.636719,51 L197.636719,48.9492188 L199.453125,48.5976562 L199.453125,36.3515625 L197.636719,36 L197.636719,33.9375 L205.300781,33.9375 Z M202.875,41.4609375 L205.242188,41.4609375 C206.195317,41.4609375 206.910154,41.2578145 207.386719,40.8515625 C207.863284,40.4453105 208.101562,39.8593788 208.101562,39.09375 C208.101562,38.3281212 207.865237,37.7167992 207.392578,37.2597656 C206.91992,36.8027321 206.222661,36.5742188 205.300781,36.5742188 L202.875,36.5742188 L202.875,41.4609375 Z M214.21875,44.5429688 C214.21875,42.6523343 214.748042,41.1035217 215.806641,39.8964844 C216.86524,38.6894471 218.328116,38.0859375 220.195312,38.0859375 C222.070322,38.0859375 223.537104,38.687494 224.595703,39.890625 C225.654302,41.093756 226.183594,42.6445218 226.183594,44.5429688 L226.183594,44.7890625 C226.183594,46.695322 225.654302,48.2480409 224.595703,49.4472656 C223.537104,50.6464904 222.078134,51.2460938 220.21875,51.2460938 C218.335928,51.2460938 216.86524,50.6464904 215.806641,49.4472656 C214.748042,48.2480409 214.21875,46.695322 214.21875,44.7890625 L214.21875,44.5429688 Z M217.640625,44.7890625 C217.640625,45.9453183 217.843748,46.8730434 218.25,47.5722656 C218.656252,48.2714879 219.312495,48.6210938 220.21875,48.6210938 C221.101567,48.6210938 221.748045,48.2695348 222.158203,47.5664062 C222.568361,46.8632777 222.773438,45.9375057 222.773438,44.7890625 L222.773438,44.5429688 C222.773438,43.4179631 222.566408,42.5000036 222.152344,41.7890625 C221.738279,41.0781214 221.085942,40.7226562 220.195312,40.7226562 C219.304683,40.7226562 218.656252,41.0781214 218.25,41.7890625 C217.843748,42.5000036 217.640625,43.4179631 217.640625,44.5429688 L217.640625,44.7890625 Z M239.929688,45.0117188 C239.929688,46.9023532 239.507817,48.4140568 238.664062,49.546875 C237.820308,50.6796932 236.60157,51.2460938 235.007812,51.2460938 C234.265621,51.2460938 233.621096,51.0917984 233.074219,50.7832031 C232.527341,50.4746078 232.066408,50.0273467 231.691406,49.4414062 L231.445312,51 L228.492188,51 L228.492188,35.1328125 L226.675781,34.78125 L226.675781,32.71875 L231.902344,32.71875 L231.902344,39.6679688 C232.269533,39.1601537 232.708982,38.7695326 233.220703,38.4960938 C233.732424,38.2226549 234.320309,38.0859375 234.984375,38.0859375 C236.593758,38.0859375 237.820308,38.6933533 238.664062,39.9082031 C239.507817,41.1230529 239.929688,42.7421774 239.929688,44.765625 L239.929688,45.0117188 Z M236.519531,44.765625 C236.519531,43.5312438 236.337892,42.552738 235.974609,41.8300781 C235.611326,41.1074183 234.992192,40.7460938 234.117188,40.7460938 C233.585935,40.7460938 233.136721,40.8574208 232.769531,41.0800781 C232.402342,41.3027355 232.113282,41.6210917 231.902344,42.0351562 L231.902344,47.390625 C232.113282,47.781252 232.404295,48.078124 232.775391,48.28125 C233.146486,48.484376 233.60156,48.5859375 234.140625,48.5859375 C235.023442,48.5859375 235.640623,48.2753937 235.992188,47.6542969 C236.343752,47.0332 236.519531,46.1523495 236.519531,45.0117188 L236.519531,44.765625 Z M241.511719,44.5429688 C241.511719,42.6523343 242.04101,41.1035217 243.099609,39.8964844 C244.158208,38.6894471 245.621084,38.0859375 247.488281,38.0859375 C249.363291,38.0859375 250.830073,38.687494 251.888672,39.890625 C252.947271,41.093756 253.476562,42.6445218 253.476562,44.5429688 L253.476562,44.7890625 C253.476562,46.695322 252.947271,48.2480409 251.888672,49.4472656 C250.830073,50.6464904 249.371103,51.2460938 247.511719,51.2460938 C245.628897,51.2460938 244.158208,50.6464904 243.099609,49.4472656 C242.04101,48.2480409 241.511719,46.695322 241.511719,44.7890625 L241.511719,44.5429688 Z M244.933594,44.7890625 C244.933594,45.9453183 245.136717,46.8730434 245.542969,47.5722656 C245.949221,48.2714879 246.605464,48.6210938 247.511719,48.6210938 C248.394536,48.6210938 249.041014,48.2695348 249.451172,47.5664062 C249.86133,46.8632777 250.066406,45.9375057 250.066406,44.7890625 L250.066406,44.5429688 C250.066406,43.4179631 249.859377,42.5000036 249.445312,41.7890625 C249.031248,41.0781214 248.378911,40.7226562 247.488281,40.7226562 C246.597652,40.7226562 245.949221,41.0781214 245.542969,41.7890625 C245.136717,42.5000036 244.933594,43.4179631 244.933594,44.5429688 L244.933594,44.7890625 Z M260.015625,35.2148438 L260.015625,38.3203125 L262.242188,38.3203125 L262.242188,40.7226562 L260.015625,40.7226562 L260.015625,47.1796875 C260.015625,47.6718775 260.117186,48.0234364 260.320312,48.234375 C260.523439,48.4453136 260.796873,48.5507812 261.140625,48.5507812 C261.375001,48.5507812 261.580077,48.5410157 261.755859,48.5214844 C261.931642,48.501953 262.128905,48.4687502 262.347656,48.421875 L262.640625,50.8945312 C262.257811,51.0117193 261.878908,51.0996091 261.503906,51.1582031 C261.128904,51.2167972 260.722658,51.2460938 260.285156,51.2460938 C259.105463,51.2460938 258.197269,50.9218782 257.560547,50.2734375 C256.923825,49.6249968 256.605469,48.5976633 256.605469,47.1914062 L256.605469,40.7226562 L254.742188,40.7226562 L254.742188,38.3203125 L256.605469,38.3203125 L256.605469,35.2148438 L260.015625,35.2148438 Z M263.566406,44.5429688 C263.566406,42.6523343 264.095698,41.1035217 265.154297,39.8964844 C266.212896,38.6894471 267.675772,38.0859375 269.542969,38.0859375 C271.417978,38.0859375 272.88476,38.687494 273.943359,39.890625 C275.001958,41.093756 275.53125,42.6445218 275.53125,44.5429688 L275.53125,44.7890625 C275.53125,46.695322 275.001958,48.2480409 273.943359,49.4472656 C272.88476,50.6464904 271.425791,51.2460938 269.566406,51.2460938 C267.683584,51.2460938 266.212896,50.6464904 265.154297,49.4472656 C264.095698,48.2480409 263.566406,46.695322 263.566406,44.7890625 L263.566406,44.5429688 Z M266.988281,44.7890625 C266.988281,45.9453183 267.191404,46.8730434 267.597656,47.5722656 C268.003908,48.2714879 268.660152,48.6210938 269.566406,48.6210938 C270.449223,48.6210938 271.095701,48.2695348 271.505859,47.5664062 C271.916018,46.8632777 272.121094,45.9375057 272.121094,44.7890625 L272.121094,44.5429688 C272.121094,43.4179631 271.914065,42.5000036 271.5,41.7890625 C271.085935,41.0781214 270.433598,40.7226562 269.542969,40.7226562 C268.652339,40.7226562 268.003908,41.0781214 267.597656,41.7890625 C267.191404,42.5000036 266.988281,43.4179631 266.988281,44.5429688 L266.988281,44.7890625 Z M295.78125,39.3867188 L293.214844,39.3867188 L292.769531,37.0429688 C292.472655,36.8554678 292.039065,36.691407 291.46875,36.5507812 C290.898435,36.4101555 290.292972,36.3398438 289.652344,36.3398438 C288.714839,36.3398438 287.990237,36.5371074 287.478516,36.9316406 C286.966794,37.3261738 286.710938,37.8359344 286.710938,38.4609375 C286.710938,39.0390654 286.978513,39.51367 287.513672,39.8847656 C288.048831,40.2558612 288.97265,40.6484354 290.285156,41.0625 C292.167978,41.5859401 293.595698,42.2773395 294.568359,43.1367188 C295.54102,43.996098 296.027344,45.124993 296.027344,46.5234375 C296.027344,47.9843823 295.449225,49.1367145 294.292969,49.9804688 C293.136713,50.824223 291.613291,51.2460938 289.722656,51.2460938 C288.371087,51.2460938 287.150396,51.0312521 286.060547,50.6015625 C284.970698,50.1718729 284.062504,49.5781288 283.335938,48.8203125 L283.335938,45.2578125 L285.984375,45.2578125 L286.347656,47.6835938 C286.691408,47.9648452 287.1582,48.1972647 287.748047,48.3808594 C288.337894,48.564454 288.99609,48.65625 289.722656,48.65625 C290.660161,48.65625 291.373044,48.4648457 291.861328,48.0820312 C292.349612,47.6992168 292.59375,47.1875032 292.59375,46.546875 C292.59375,45.8906217 292.36133,45.3632832 291.896484,44.9648438 C291.431638,44.5664043 290.617193,44.191408 289.453125,43.8398438 C287.429677,43.2539033 285.898443,42.5585978 284.859375,41.7539062 C283.820307,40.9492147 283.300781,39.8476632 283.300781,38.4492188 C283.300781,37.0663993 283.886713,35.9355513 285.058594,35.0566406 C286.230475,34.17773 287.703116,33.7265626 289.476562,33.703125 C290.789069,33.703125 291.98437,33.9023418 293.0625,34.3007812 C294.14063,34.6992207 295.046871,35.2304654 295.78125,35.8945312 L295.78125,39.3867188 Z M297.09375,34.78125 L297.09375,32.71875 L302.34375,32.71875 L302.34375,48.5976562 L303.996094,48.9492188 L303.996094,51 L297.269531,51 L297.269531,48.9492188 L298.921875,48.5976562 L298.921875,35.1328125 L297.09375,34.78125 Z M313.183594,51 C313.089843,50.7890614 313.007813,50.5722667 312.9375,50.3496094 C312.867187,50.126952 312.8125,49.9023449 312.773438,49.6757812 C312.367185,50.1445336 311.87305,50.5234361 311.291016,50.8125 C310.708981,51.1015639 310.042973,51.2460938 309.292969,51.2460938 C308.050775,51.2460938 307.064457,50.9082065 306.333984,50.2324219 C305.603512,49.5566372 305.238281,48.6367246 305.238281,47.4726562 C305.238281,46.2851503 305.714839,45.3671907 306.667969,44.71875 C307.621099,44.0703093 309.019522,43.7460938 310.863281,43.7460938 L312.609375,43.7460938 L312.609375,42.5039062 C312.609375,41.8945282 312.433596,41.4218767 312.082031,41.0859375 C311.730467,40.7499983 311.210941,40.5820312 310.523438,40.5820312 C310.132811,40.5820312 309.785158,40.6269527 309.480469,40.7167969 C309.17578,40.8066411 308.929688,40.9140619 308.742188,41.0390625 L308.519531,42.3984375 L305.941406,42.3984375 L305.953125,39.5859375 C306.578128,39.1640604 307.294918,38.8085952 308.103516,38.5195312 C308.912113,38.2304673 309.792964,38.0859375 310.746094,38.0859375 C312.316414,38.0859375 313.591792,38.4706993 314.572266,39.2402344 C315.552739,40.0097695 316.042969,41.1054616 316.042969,42.5273438 L316.042969,47.765625 C316.042969,47.9609385 316.044922,48.1445304 316.048828,48.3164062 C316.052734,48.4882821 316.066406,48.652343 316.089844,48.8085938 L317.132812,48.9492188 L317.132812,51 L313.183594,51 Z M310.21875,48.7148438 C310.734378,48.7148438 311.203123,48.6035167 311.625,48.3808594 C312.046877,48.158202 312.374999,47.8789079 312.609375,47.5429688 L312.609375,45.609375 L310.863281,45.609375 C310.136715,45.609375 309.585939,45.7792952 309.210938,46.1191406 C308.835936,46.4589861 308.648438,46.8671851 308.648438,47.34375 C308.648438,47.7734396 308.787108,48.1093738 309.064453,48.3515625 C309.341798,48.5937512 309.72656,48.7148438 310.21875,48.7148438 Z M330.175781,45.0117188 C330.175781,46.9023532 329.75391,48.4140568 328.910156,49.546875 C328.066402,50.6796932 326.847664,51.2460938 325.253906,51.2460938 C324.511715,51.2460938 323.86719,51.0917984 323.320312,50.7832031 C322.773435,50.4746078 322.312502,50.0273467 321.9375,49.4414062 L321.691406,51 L318.738281,51 L318.738281,35.1328125 L316.921875,34.78125 L316.921875,32.71875 L322.148438,32.71875 L322.148438,39.6679688 C322.515627,39.1601537 322.955076,38.7695326 323.466797,38.4960938 C323.978518,38.2226549 324.566403,38.0859375 325.230469,38.0859375 C326.839852,38.0859375 328.066402,38.6933533 328.910156,39.9082031 C329.75391,41.1230529 330.175781,42.7421774 330.175781,44.765625 L330.175781,45.0117188 Z M326.765625,44.765625 C326.765625,43.5312438 326.583986,42.552738 326.220703,41.8300781 C325.85742,41.1074183 325.238286,40.7460938 324.363281,40.7460938 C323.832029,40.7460938 323.382814,40.8574208 323.015625,41.0800781 C322.648436,41.3027355 322.359376,41.6210917 322.148438,42.0351562 L322.148438,47.390625 C322.359376,47.781252 322.650389,48.078124 323.021484,48.28125 C323.39258,48.484376 323.847654,48.5859375 324.386719,48.5859375 C325.269536,48.5859375 325.886717,48.2753937 326.238281,47.6542969 C326.589846,47.0332 326.765625,46.1523495 326.765625,45.0117188 L326.765625,44.765625 Z" id="Roboto-Slab-Copy" fill="#FEFFFF"></path>
        <path d="M23.8867188,78.9492188 L26.7695312,78.5976562 L26.7695312,67.0429688 L23.8515625,67.0429688 L23.8515625,65.0859375 L30.1796875,63.9375 L30.1796875,78.5976562 L33.0625,78.9492188 L33.0625,81 L23.8867188,81 L23.8867188,78.9492188 Z M34.5859375,81 L34.5859375,78.7617188 L40.1054688,72.84375 C40.9023477,71.9296829 41.4687483,71.1582063 41.8046875,70.5292969 C42.1406267,69.9003875 42.3085938,69.3164089 42.3085938,68.7773438 C42.3085938,68.0585902 42.1152363,67.4707054 41.7285156,67.0136719 C41.3417949,66.5566383 40.7929723,66.328125 40.0820312,66.328125 C39.2929648,66.328125 38.6933614,66.5957004 38.2832031,67.1308594 C37.8730448,67.6660183 37.6679688,68.3789018 37.6679688,69.2695312 L34.3398438,69.2695312 L34.3164062,69.1992188 C34.2773436,67.6601486 34.7831979,66.3574272 35.8339844,65.2910156 C36.8847709,64.224604 38.3007723,63.6914062 40.0820312,63.6914062 C41.8398525,63.6914062 43.2226512,64.1484329 44.2304688,65.0625 C45.2382863,65.9765671 45.7421875,67.1953049 45.7421875,68.71875 C45.7421875,69.7500052 45.4589872,70.7031206 44.8925781,71.578125 C44.326169,72.4531294 43.3867253,73.593743 42.0742188,75 L39.0390625,78.3164062 L39.0625,78.375 L43.4921875,78.375 L43.6328125,76.6875 L46.234375,76.6875 L46.234375,81 L34.5859375,81 Z M51.4609375,71.015625 L53.3828125,71.015625 C54.1953166,71.015625 54.796873,70.8027365 55.1875,70.3769531 C55.578127,69.9511697 55.7734375,69.3593788 55.7734375,68.6015625 C55.7734375,67.9140591 55.578127,67.3632833 55.1875,66.9492188 C54.796873,66.5351542 54.2304725,66.328125 53.4882812,66.328125 C52.847653,66.328125 52.3085959,66.5156231 51.8710938,66.890625 C51.4335916,67.2656269 51.2148438,67.7578095 51.2148438,68.3671875 L47.8984375,68.3671875 L47.875,68.296875 C47.8281248,66.9609308 48.3398384,65.8593793 49.4101562,64.9921875 C50.4804741,64.1249957 51.8085858,63.6914062 53.3945312,63.6914062 C55.1601651,63.6914062 56.5683541,64.113277 57.6191406,64.9570312 C58.6699271,65.8007855 59.1953125,67.0038984 59.1953125,68.5664062 C59.1953125,69.3085975 58.9609398,70.0136685 58.4921875,70.6816406 C58.0234352,71.3496127 57.3789104,71.8710919 56.5585938,72.2460938 C57.503911,72.5820329 58.2246069,73.0976528 58.7207031,73.7929688 C59.2167994,74.4882847 59.4648438,75.2968704 59.4648438,76.21875 C59.4648438,77.7812578 58.8964901,79.0097612 57.7597656,79.9042969 C56.6230412,80.7988326 55.1679776,81.2460938 53.3945312,81.2460938 C51.8085858,81.2460938 50.4472713,80.8261761 49.3105469,79.9863281 C48.1738224,79.1464802 47.6249998,77.9609452 47.6640625,76.4296875 L47.6875,76.359375 L51.0039062,76.359375 C51.0039062,77.0156283 51.2382789,77.5566385 51.7070312,77.9824219 C52.1757836,78.4082053 52.7695277,78.6210938 53.4882812,78.6210938 C54.2773477,78.6210938 54.9003883,78.4023459 55.3574219,77.9648438 C55.8144554,77.5273416 56.0429688,76.9335975 56.0429688,76.1835938 C56.0429688,75.2851518 55.8183616,74.6269552 55.3691406,74.2089844 C54.9199196,73.7910135 54.2578169,73.5820312 53.3828125,73.5820312 L51.4609375,73.5820312 L51.4609375,71.015625 Z M70.984375,74.6484375 L72.9179688,74.6484375 L72.9179688,76.921875 L70.984375,76.921875 L70.984375,78.5976562 L72.8007812,78.9492188 L72.8007812,81 L65.7460938,81 L65.7460938,78.9492188 L67.5742188,78.5976562 L67.5742188,76.921875 L60.6132812,76.921875 L60.4492188,75.2460938 L67.5390625,63.9375 L70.984375,63.9375 L70.984375,74.6484375 Z M63.6484375,74.6484375 L67.5742188,74.6484375 L67.5742188,68.4960938 L67.5039062,68.4726562 L67.2226562,68.9648438 L63.6484375,74.6484375 Z M83.3242188,67.828125 L83.0195312,66.6796875 L78.4257812,66.6796875 L77.9453125,70.6171875 C78.2656266,70.3828113 78.6484353,70.1894539 79.09375,70.0371094 C79.5390647,69.8847649 80.0312473,69.8046875 80.5703125,69.796875 C82.2109457,69.7734374 83.4804643,70.2695262 84.3789062,71.2851562 C85.2773482,72.3007863 85.7265625,73.7148347 85.7265625,75.5273438 C85.7265625,77.167977 85.2324268,78.5312446 84.2441406,79.6171875 C83.2558544,80.7031304 81.8320405,81.2460938 79.9726562,81.2460938 C78.4101484,81.2460938 77.0703181,80.8183637 75.953125,79.9628906 C74.8359319,79.1074176 74.2968748,77.929695 74.3359375,76.4296875 L74.359375,76.3710938 L77.640625,76.2070312 C77.640625,76.9648475 77.8554666,77.5566385 78.2851562,77.9824219 C78.7148459,78.4082053 79.2773403,78.6210938 79.9726562,78.6210938 C80.7695352,78.6210938 81.3593731,78.3359404 81.7421875,77.765625 C82.1250019,77.1953096 82.3164062,76.4570358 82.3164062,75.5507812 C82.3164062,74.5664013 82.1132833,73.7773467 81.7070312,73.1835938 C81.3007792,72.5898408 80.6953165,72.2929688 79.890625,72.2929688 C79.2421843,72.2929688 78.7441424,72.4140613 78.3964844,72.65625 C78.0488264,72.8984387 77.800782,73.2265604 77.6523438,73.640625 L74.6289062,73.4414062 L75.6132812,63.9375 L85.4335938,63.9375 L85.4335938,67.828125 L83.3242188,67.828125 Z M94.2578125,63.6914062 C94.8984407,63.6914062 95.4902317,63.7519525 96.0332031,63.8730469 C96.5761746,63.9941412 97.121091,64.1718738 97.6679688,64.40625 L97.0703125,66.9023438 C96.5781225,66.7304679 96.1250021,66.5996098 95.7109375,66.5097656 C95.2968729,66.4199214 94.8203152,66.375 94.28125,66.375 C93.2656199,66.375 92.4511749,66.74609 91.8378906,67.4882812 C91.2246063,68.2304725 90.9140625,69.3242115 90.90625,70.7695312 L90.9414062,70.828125 C91.3242207,70.4296855 91.8105439,70.1171886 92.4003906,69.890625 C92.9902373,69.6640614 93.6484339,69.5507812 94.375,69.5507812 C95.8984451,69.5507812 97.0937457,70.0917915 97.9609375,71.1738281 C98.8281293,72.2558648 99.2617188,73.6367104 99.2617188,75.3164062 C99.2617188,77.0351648 98.7265679,78.4531194 97.65625,79.5703125 C96.5859321,80.6875056 95.2031335,81.2460938 93.5078125,81.2460938 C91.7109285,81.2460938 90.2460994,80.6347717 89.1132812,79.4121094 C87.9804631,78.189447 87.4140625,76.4961046 87.4140625,74.3320312 L87.4140625,71.3320312 C87.4140625,68.9179567 88.052728,67.0410223 89.3300781,65.7011719 C90.6074283,64.3613214 92.24999,63.6914062 94.2578125,63.6914062 Z M93.4726562,72.140625 C92.8398406,72.140625 92.3007835,72.2421865 91.8554688,72.4453125 C91.410154,72.6484385 91.0664075,72.9257795 90.8242188,73.2773438 L90.8242188,74.4140625 C90.8242188,75.7656318 91.0683569,76.8046839 91.5566406,77.53125 C92.0449243,78.2578161 92.6953084,78.6210938 93.5078125,78.6210938 C94.210941,78.6210938 94.7753885,78.2988313 95.2011719,77.6542969 C95.6269553,77.0097624 95.8398438,76.2304733 95.8398438,75.3164062 C95.8398438,74.371089 95.6250021,73.6054717 95.1953125,73.0195312 C94.7656229,72.4335908 94.1914098,72.140625 93.4726562,72.140625 Z M112.386719,66.5742188 C110.558585,68.7148545 109.31055,70.7109282 108.642578,72.5625 C107.974606,74.4140718 107.496095,76.6484244 107.207031,79.265625 L107.042969,81 L103.621094,81 L103.785156,79.265625 C104.050783,76.7578 104.621089,74.4550886 105.496094,72.3574219 C106.371098,70.2597551 107.570305,68.33204 109.09375,66.5742188 L103.082031,66.5742188 L102.953125,68.2617188 L100.328125,68.2617188 L100.328125,63.9375 L112.386719,63.9375 L112.386719,66.5742188 Z M124.75,68.4609375 C124.75,69.3125043 124.52344,70.066403 124.070312,70.7226562 C123.617185,71.3789095 122.996098,71.8906232 122.207031,72.2578125 C123.113286,72.6406269 123.828122,73.1874964 124.351562,73.8984375 C124.875003,74.6093786 125.136719,75.4218704 125.136719,76.3359375 C125.136719,77.9140704 124.601568,79.1269489 123.53125,79.9746094 C122.460932,80.8222699 121.062509,81.2460938 119.335938,81.2460938 C117.601554,81.2460938 116.197271,80.8222699 115.123047,79.9746094 C114.048823,79.1269489 113.511719,77.9140704 113.511719,76.3359375 C113.511719,75.4140579 113.771482,74.5996129 114.291016,73.8925781 C114.810549,73.1855433 115.523433,72.6406269 116.429688,72.2578125 C115.632809,71.8906232 115.011721,71.3789095 114.566406,70.7226562 C114.121092,70.066403 113.898438,69.3125043 113.898438,68.4609375 C113.898438,66.9453049 114.394526,65.7714885 115.386719,64.9394531 C116.378911,64.1074177 117.687492,63.6914062 119.3125,63.6914062 C120.937508,63.6914062 122.249995,64.1074177 123.25,64.9394531 C124.250005,65.7714885 124.75,66.9453049 124.75,68.4609375 Z M121.726562,76.1015625 C121.726562,75.3359337 121.501955,74.7226586 121.052734,74.2617188 C120.603513,73.8007789 120.023441,73.5703125 119.3125,73.5703125 C118.601559,73.5703125 118.027346,73.8007789 117.589844,74.2617188 C117.152342,74.7226586 116.933594,75.3359337 116.933594,76.1015625 C116.933594,76.8828164 117.152342,77.4980446 117.589844,77.9472656 C118.027346,78.3964866 118.609371,78.6210938 119.335938,78.6210938 C120.046879,78.6210938 120.623045,78.3945335 121.064453,77.9414062 C121.505862,77.488279 121.726562,76.8750039 121.726562,76.1015625 Z M121.328125,68.6132812 C121.328125,67.9257778 121.146486,67.373049 120.783203,66.9550781 C120.41992,66.5371073 119.929691,66.328125 119.3125,66.328125 C118.687497,66.328125 118.201174,66.5332011 117.853516,66.9433594 C117.505858,67.3535177 117.332031,67.9101527 117.332031,68.6132812 C117.332031,69.3242223 117.507811,69.8886698 117.859375,70.3066406 C118.210939,70.7246115 118.703122,70.9335938 119.335938,70.9335938 C119.953128,70.9335938 120.439451,70.7246115 120.794922,70.3066406 C121.150392,69.8886698 121.328125,69.3242223 121.328125,68.6132812 Z M131.664062,78.6210938 C132.57813,78.6210938 133.316403,78.2714879 133.878906,77.5722656 C134.441409,76.8730434 134.722656,75.8242257 134.722656,74.4257812 L134.722656,74.1679688 C134.339842,74.6601587 133.882815,75.0332019 133.351562,75.2871094 C132.82031,75.5410169 132.250003,75.6679688 131.640625,75.6679688 C130.046867,75.6679688 128.79688,75.1464896 127.890625,74.1035156 C126.98437,73.0605417 126.53125,71.6211029 126.53125,69.7851562 C126.53125,68.0585851 127.07226,66.611334 128.154297,65.4433594 C129.236334,64.2753848 130.60546,63.6914062 132.261719,63.6914062 C134.003915,63.6914062 135.417963,64.2910096 136.503906,65.4902344 C137.589849,66.6894591 138.132812,68.3749891 138.132812,70.546875 L138.132812,74.25 C138.132812,76.4609486 137.529303,78.1796814 136.322266,79.40625 C135.115228,80.6328186 133.562509,81.2460938 131.664062,81.2460938 C131.07031,81.2460938 130.458988,81.1855475 129.830078,81.0644531 C129.201169,80.9433588 128.621096,80.7656262 128.089844,80.53125 L128.476562,78.0585938 C129.000003,78.2539072 129.50781,78.3964839 130,78.4863281 C130.49219,78.5761723 131.046872,78.6210938 131.664062,78.6210938 Z M132.214844,73.1601562 C132.785159,73.1601562 133.283201,73.0527354 133.708984,72.8378906 C134.134768,72.6230458 134.472655,72.3359393 134.722656,71.9765625 L134.722656,70.1484375 C134.722656,68.8984312 134.503908,67.949222 134.066406,67.3007812 C133.628904,66.6523405 133.03516,66.328125 132.285156,66.328125 C131.597653,66.328125 131.037112,66.6660122 130.603516,67.3417969 C130.16992,68.0175815 129.953125,68.8320265 129.953125,69.7851562 C129.953125,70.8164114 130.146482,71.6367157 130.533203,72.2460938 C130.919924,72.8554718 131.480465,73.1601562 132.214844,73.1601562 Z M151.84375,74.3554688 C151.84375,76.6132925 151.326177,78.326166 150.291016,79.4941406 C149.255854,80.6621152 147.855478,81.2460938 146.089844,81.2460938 C144.308585,81.2460938 142.898443,80.6621152 141.859375,79.4941406 C140.820307,78.326166 140.300781,76.6132925 140.300781,74.3554688 L140.300781,70.59375 C140.300781,68.3437388 140.818354,66.6308653 141.853516,65.4550781 C142.888677,64.279291 144.29296,63.6914062 146.066406,63.6914062 C147.83204,63.6914062 149.236323,64.279291 150.279297,65.4550781 C151.322271,66.6308653 151.84375,68.3437388 151.84375,70.59375 L151.84375,74.3554688 Z M148.433594,70.2421875 C148.433594,68.8906182 148.230471,67.9003938 147.824219,67.2714844 C147.417967,66.642575 146.832035,66.328125 146.066406,66.328125 C145.292965,66.328125 144.707033,66.6406219 144.308594,67.265625 C143.910154,67.8906281 143.710938,68.8828057 143.710938,70.2421875 L143.710938,74.6835938 C143.710938,76.0586006 143.912107,77.0585906 144.314453,77.6835938 C144.716799,78.3085969 145.30859,78.6210938 146.089844,78.6210938 C146.855473,78.6210938 147.437498,78.3085969 147.835938,77.6835938 C148.234377,77.0585906 148.433594,76.0586006 148.433594,74.6835938 L148.433594,70.2421875 Z" id="1234567890" fill="#303030"></path>
        <path d="M199.886719,78.9492188 L202.769531,78.5976562 L202.769531,67.0429688 L199.851562,67.0429688 L199.851562,65.0859375 L206.179688,63.9375 L206.179688,78.5976562 L209.0625,78.9492188 L209.0625,81 L199.886719,81 L199.886719,78.9492188 Z M210.585938,81 L210.585938,78.7617188 L216.105469,72.84375 C216.902348,71.9296829 217.468748,71.1582063 217.804688,70.5292969 C218.140627,69.9003875 218.308594,69.3164089 218.308594,68.7773438 C218.308594,68.0585902 218.115236,67.4707054 217.728516,67.0136719 C217.341795,66.5566383 216.792972,66.328125 216.082031,66.328125 C215.292965,66.328125 214.693361,66.5957004 214.283203,67.1308594 C213.873045,67.6660183 213.667969,68.3789018 213.667969,69.2695312 L210.339844,69.2695312 L210.316406,69.1992188 C210.277344,67.6601486 210.783198,66.3574272 211.833984,65.2910156 C212.884771,64.224604 214.300772,63.6914062 216.082031,63.6914062 C217.839853,63.6914062 219.222651,64.1484329 220.230469,65.0625 C221.238286,65.9765671 221.742188,67.1953049 221.742188,68.71875 C221.742188,69.7500052 221.458987,70.7031206 220.892578,71.578125 C220.326169,72.4531294 219.386725,73.593743 218.074219,75 L215.039062,78.3164062 L215.0625,78.375 L219.492188,78.375 L219.632812,76.6875 L222.234375,76.6875 L222.234375,81 L210.585938,81 Z M227.460938,71.015625 L229.382812,71.015625 C230.195317,71.015625 230.796873,70.8027365 231.1875,70.3769531 C231.578127,69.9511697 231.773438,69.3593788 231.773438,68.6015625 C231.773438,67.9140591 231.578127,67.3632833 231.1875,66.9492188 C230.796873,66.5351542 230.230472,66.328125 229.488281,66.328125 C228.847653,66.328125 228.308596,66.5156231 227.871094,66.890625 C227.433592,67.2656269 227.214844,67.7578095 227.214844,68.3671875 L223.898438,68.3671875 L223.875,68.296875 C223.828125,66.9609308 224.339838,65.8593793 225.410156,64.9921875 C226.480474,64.1249957 227.808586,63.6914062 229.394531,63.6914062 C231.160165,63.6914062 232.568354,64.113277 233.619141,64.9570312 C234.669927,65.8007855 235.195312,67.0038984 235.195312,68.5664062 C235.195312,69.3085975 234.96094,70.0136685 234.492188,70.6816406 C234.023435,71.3496127 233.37891,71.8710919 232.558594,72.2460938 C233.503911,72.5820329 234.224607,73.0976528 234.720703,73.7929688 C235.216799,74.4882847 235.464844,75.2968704 235.464844,76.21875 C235.464844,77.7812578 234.89649,79.0097612 233.759766,79.9042969 C232.623041,80.7988326 231.167978,81.2460938 229.394531,81.2460938 C227.808586,81.2460938 226.447271,80.8261761 225.310547,79.9863281 C224.173822,79.1464802 223.625,77.9609452 223.664062,76.4296875 L223.6875,76.359375 L227.003906,76.359375 C227.003906,77.0156283 227.238279,77.5566385 227.707031,77.9824219 C228.175784,78.4082053 228.769528,78.6210938 229.488281,78.6210938 C230.277348,78.6210938 230.900388,78.4023459 231.357422,77.9648438 C231.814455,77.5273416 232.042969,76.9335975 232.042969,76.1835938 C232.042969,75.2851518 231.818362,74.6269552 231.369141,74.2089844 C230.91992,73.7910135 230.257817,73.5820312 229.382812,73.5820312 L227.460938,73.5820312 L227.460938,71.015625 Z M246.984375,74.6484375 L248.917969,74.6484375 L248.917969,76.921875 L246.984375,76.921875 L246.984375,78.5976562 L248.800781,78.9492188 L248.800781,81 L241.746094,81 L241.746094,78.9492188 L243.574219,78.5976562 L243.574219,76.921875 L236.613281,76.921875 L236.449219,75.2460938 L243.539062,63.9375 L246.984375,63.9375 L246.984375,74.6484375 Z M239.648438,74.6484375 L243.574219,74.6484375 L243.574219,68.4960938 L243.503906,68.4726562 L243.222656,68.9648438 L239.648438,74.6484375 Z M259.324219,67.828125 L259.019531,66.6796875 L254.425781,66.6796875 L253.945312,70.6171875 C254.265627,70.3828113 254.648435,70.1894539 255.09375,70.0371094 C255.539065,69.8847649 256.031247,69.8046875 256.570312,69.796875 C258.210946,69.7734374 259.480464,70.2695262 260.378906,71.2851562 C261.277348,72.3007863 261.726562,73.7148347 261.726562,75.5273438 C261.726562,77.167977 261.232427,78.5312446 260.244141,79.6171875 C259.255854,80.7031304 257.832041,81.2460938 255.972656,81.2460938 C254.410148,81.2460938 253.070318,80.8183637 251.953125,79.9628906 C250.835932,79.1074176 250.296875,77.929695 250.335938,76.4296875 L250.359375,76.3710938 L253.640625,76.2070312 C253.640625,76.9648475 253.855467,77.5566385 254.285156,77.9824219 C254.714846,78.4082053 255.27734,78.6210938 255.972656,78.6210938 C256.769535,78.6210938 257.359373,78.3359404 257.742188,77.765625 C258.125002,77.1953096 258.316406,76.4570358 258.316406,75.5507812 C258.316406,74.5664013 258.113283,73.7773467 257.707031,73.1835938 C257.300779,72.5898408 256.695317,72.2929688 255.890625,72.2929688 C255.242184,72.2929688 254.744142,72.4140613 254.396484,72.65625 C254.048826,72.8984387 253.800782,73.2265604 253.652344,73.640625 L250.628906,73.4414062 L251.613281,63.9375 L261.433594,63.9375 L261.433594,67.828125 L259.324219,67.828125 Z M270.257812,63.6914062 C270.898441,63.6914062 271.490232,63.7519525 272.033203,63.8730469 C272.576175,63.9941412 273.121091,64.1718738 273.667969,64.40625 L273.070312,66.9023438 C272.578123,66.7304679 272.125002,66.5996098 271.710938,66.5097656 C271.296873,66.4199214 270.820315,66.375 270.28125,66.375 C269.26562,66.375 268.451175,66.74609 267.837891,67.4882812 C267.224606,68.2304725 266.914063,69.3242115 266.90625,70.7695312 L266.941406,70.828125 C267.324221,70.4296855 267.810544,70.1171886 268.400391,69.890625 C268.990237,69.6640614 269.648434,69.5507812 270.375,69.5507812 C271.898445,69.5507812 273.093746,70.0917915 273.960938,71.1738281 C274.828129,72.2558648 275.261719,73.6367104 275.261719,75.3164062 C275.261719,77.0351648 274.726568,78.4531194 273.65625,79.5703125 C272.585932,80.6875056 271.203133,81.2460938 269.507812,81.2460938 C267.710929,81.2460938 266.246099,80.6347717 265.113281,79.4121094 C263.980463,78.189447 263.414062,76.4961046 263.414062,74.3320312 L263.414062,71.3320312 C263.414062,68.9179567 264.052728,67.0410223 265.330078,65.7011719 C266.607428,64.3613214 268.24999,63.6914062 270.257812,63.6914062 Z M269.472656,72.140625 C268.839841,72.140625 268.300783,72.2421865 267.855469,72.4453125 C267.410154,72.6484385 267.066407,72.9257795 266.824219,73.2773438 L266.824219,74.4140625 C266.824219,75.7656318 267.068357,76.8046839 267.556641,77.53125 C268.044924,78.2578161 268.695308,78.6210938 269.507812,78.6210938 C270.210941,78.6210938 270.775388,78.2988313 271.201172,77.6542969 C271.626955,77.0097624 271.839844,76.2304733 271.839844,75.3164062 C271.839844,74.371089 271.625002,73.6054717 271.195312,73.0195312 C270.765623,72.4335908 270.19141,72.140625 269.472656,72.140625 Z M288.386719,66.5742188 C286.558585,68.7148545 285.31055,70.7109282 284.642578,72.5625 C283.974606,74.4140718 283.496095,76.6484244 283.207031,79.265625 L283.042969,81 L279.621094,81 L279.785156,79.265625 C280.050783,76.7578 280.621089,74.4550886 281.496094,72.3574219 C282.371098,70.2597551 283.570305,68.33204 285.09375,66.5742188 L279.082031,66.5742188 L278.953125,68.2617188 L276.328125,68.2617188 L276.328125,63.9375 L288.386719,63.9375 L288.386719,66.5742188 Z M300.75,68.4609375 C300.75,69.3125043 300.52344,70.066403 300.070312,70.7226562 C299.617185,71.3789095 298.996098,71.8906232 298.207031,72.2578125 C299.113286,72.6406269 299.828122,73.1874964 300.351562,73.8984375 C300.875003,74.6093786 301.136719,75.4218704 301.136719,76.3359375 C301.136719,77.9140704 300.601568,79.1269489 299.53125,79.9746094 C298.460932,80.8222699 297.062509,81.2460938 295.335938,81.2460938 C293.601554,81.2460938 292.197271,80.8222699 291.123047,79.9746094 C290.048823,79.1269489 289.511719,77.9140704 289.511719,76.3359375 C289.511719,75.4140579 289.771482,74.5996129 290.291016,73.8925781 C290.810549,73.1855433 291.523433,72.6406269 292.429688,72.2578125 C291.632809,71.8906232 291.011721,71.3789095 290.566406,70.7226562 C290.121092,70.066403 289.898438,69.3125043 289.898438,68.4609375 C289.898438,66.9453049 290.394526,65.7714885 291.386719,64.9394531 C292.378911,64.1074177 293.687492,63.6914062 295.3125,63.6914062 C296.937508,63.6914062 298.249995,64.1074177 299.25,64.9394531 C300.250005,65.7714885 300.75,66.9453049 300.75,68.4609375 Z M297.726562,76.1015625 C297.726562,75.3359337 297.501955,74.7226586 297.052734,74.2617188 C296.603513,73.8007789 296.023441,73.5703125 295.3125,73.5703125 C294.601559,73.5703125 294.027346,73.8007789 293.589844,74.2617188 C293.152342,74.7226586 292.933594,75.3359337 292.933594,76.1015625 C292.933594,76.8828164 293.152342,77.4980446 293.589844,77.9472656 C294.027346,78.3964866 294.609371,78.6210938 295.335938,78.6210938 C296.046879,78.6210938 296.623045,78.3945335 297.064453,77.9414062 C297.505862,77.488279 297.726562,76.8750039 297.726562,76.1015625 Z M297.328125,68.6132812 C297.328125,67.9257778 297.146486,67.373049 296.783203,66.9550781 C296.41992,66.5371073 295.929691,66.328125 295.3125,66.328125 C294.687497,66.328125 294.201174,66.5332011 293.853516,66.9433594 C293.505858,67.3535177 293.332031,67.9101527 293.332031,68.6132812 C293.332031,69.3242223 293.507811,69.8886698 293.859375,70.3066406 C294.210939,70.7246115 294.703122,70.9335938 295.335938,70.9335938 C295.953128,70.9335938 296.439451,70.7246115 296.794922,70.3066406 C297.150392,69.8886698 297.328125,69.3242223 297.328125,68.6132812 Z M307.664062,78.6210938 C308.57813,78.6210938 309.316403,78.2714879 309.878906,77.5722656 C310.441409,76.8730434 310.722656,75.8242257 310.722656,74.4257812 L310.722656,74.1679688 C310.339842,74.6601587 309.882815,75.0332019 309.351562,75.2871094 C308.82031,75.5410169 308.250003,75.6679688 307.640625,75.6679688 C306.046867,75.6679688 304.79688,75.1464896 303.890625,74.1035156 C302.98437,73.0605417 302.53125,71.6211029 302.53125,69.7851562 C302.53125,68.0585851 303.07226,66.611334 304.154297,65.4433594 C305.236334,64.2753848 306.60546,63.6914062 308.261719,63.6914062 C310.003915,63.6914062 311.417963,64.2910096 312.503906,65.4902344 C313.589849,66.6894591 314.132812,68.3749891 314.132812,70.546875 L314.132812,74.25 C314.132812,76.4609486 313.529303,78.1796814 312.322266,79.40625 C311.115228,80.6328186 309.562509,81.2460938 307.664062,81.2460938 C307.07031,81.2460938 306.458988,81.1855475 305.830078,81.0644531 C305.201169,80.9433588 304.621096,80.7656262 304.089844,80.53125 L304.476562,78.0585938 C305.000003,78.2539072 305.50781,78.3964839 306,78.4863281 C306.49219,78.5761723 307.046872,78.6210938 307.664062,78.6210938 Z M308.214844,73.1601562 C308.785159,73.1601562 309.283201,73.0527354 309.708984,72.8378906 C310.134768,72.6230458 310.472655,72.3359393 310.722656,71.9765625 L310.722656,70.1484375 C310.722656,68.8984312 310.503908,67.949222 310.066406,67.3007812 C309.628904,66.6523405 309.03516,66.328125 308.285156,66.328125 C307.597653,66.328125 307.037112,66.6660122 306.603516,67.3417969 C306.16992,68.0175815 305.953125,68.8320265 305.953125,69.7851562 C305.953125,70.8164114 306.146482,71.6367157 306.533203,72.2460938 C306.919924,72.8554718 307.480465,73.1601562 308.214844,73.1601562 Z M327.84375,74.3554688 C327.84375,76.6132925 327.326177,78.326166 326.291016,79.4941406 C325.255854,80.6621152 323.855478,81.2460938 322.089844,81.2460938 C320.308585,81.2460938 318.898443,80.6621152 317.859375,79.4941406 C316.820307,78.326166 316.300781,76.6132925 316.300781,74.3554688 L316.300781,70.59375 C316.300781,68.3437388 316.818354,66.6308653 317.853516,65.4550781 C318.888677,64.279291 320.29296,63.6914062 322.066406,63.6914062 C323.83204,63.6914062 325.236323,64.279291 326.279297,65.4550781 C327.322271,66.6308653 327.84375,68.3437388 327.84375,70.59375 L327.84375,74.3554688 Z M324.433594,70.2421875 C324.433594,68.8906182 324.230471,67.9003938 323.824219,67.2714844 C323.417967,66.642575 322.832035,66.328125 322.066406,66.328125 C321.292965,66.328125 320.707033,66.6406219 320.308594,67.265625 C319.910154,67.8906281 319.710938,68.8828057 319.710938,70.2421875 L319.710938,74.6835938 C319.710938,76.0586006 319.912107,77.0585906 320.314453,77.6835938 C320.716799,78.3085969 321.30859,78.6210938 322.089844,78.6210938 C322.855473,78.6210938 323.437498,78.3085969 323.835938,77.6835938 C324.234377,77.0585906 324.433594,76.0586006 324.433594,74.6835938 L324.433594,70.2421875 Z" id="1234567890-copy" fill="#FEFFFF"></path>
    </g>
</svg>