<svg width="256px" height="256px" viewBox="256 898 256 256" version="1.1" xmlns="http://www.w3.org/2000/svg" xmlns:xlink="http://www.w3.org/1999/xlink">
    <!-- Generator: Sketch 42 (36781) - http://www.bohemiancoding.com/sketch -->
    <desc>Created with Sketch.</desc>
    <defs>
        <rect id="path-1" x="0" y="0" width="256" height="256"></rect>
        <radialGradient cx="24.2296278%" cy="8.68950627%" fx="24.2296278%" fy="8.68950627%" r="180.690544%" id="radialGradient-3">
            <stop stop-color="#4691CD" offset="0%"></stop>
            <stop stop-color="#FEFEFE" offset="100%"></stop>
        </radialGradient>
        <polygon id="path-4" points="360 0 0 0 0 268 360 268"></polygon>
        <filter x="-50%" y="-50%" width="200%" height="200%" filterUnits="objectBoundingBox" id="filter-5">
            <feOffset dx="0" dy="0" in="SourceAlpha" result="shadowOffsetOuter1"></feOffset>
            <feGaussianBlur stdDeviation="2" in="shadowOffsetOuter1" result="shadowBlurOuter1"></feGaussianBlur>
            <feColorMatrix values="0 0 0 0 0   0 0 0 0 0   0 0 0 0 0  0 0 0 0.12 0" type="matrix" in="shadowBlurOuter1"></feColorMatrix>
        </filter>
        <path d="M119.5192,106.4336 C119.706934,106.668268 119.812533,106.961598 119.836,107.3136 C119.859467,107.665602 119.800801,107.958932 119.66,108.1936 C119.425332,108.709869 119.026403,108.897601 118.4632,108.7568 C117.477595,108.522132 116.445072,108.428266 115.3656,108.4752 C114.286128,108.522134 113.206672,108.944529 112.1272,109.7424 C111.047728,110.540271 110.202936,111.701859 109.5928,113.2272 C108.982664,114.752541 108.6776,116.336525 108.6776,117.9792 C108.6776,119.574941 109.064796,120.947728 109.8392,122.0976 C110.613604,123.247472 111.610927,124.080531 112.8312,124.5968 C113.582137,124.925335 114.426929,125.113066 115.3656,125.16 C116.304271,125.206934 117.254662,125.171734 118.2168,125.0544 C119.178938,124.937066 120.129329,124.749335 121.068,124.4912 C122.006671,124.233065 122.898396,123.939735 123.7432,123.6112 C124.024801,123.517333 124.294665,123.540799 124.5528,123.6816 C124.810935,123.822401 124.986933,124.010132 125.0808,124.2448 C125.315468,124.854936 125.198136,125.465064 124.7288,126.0752 C124.165597,126.685336 123.414671,127.225064 122.476,127.6944 C121.537329,128.163736 120.504806,128.539199 119.3784,128.8208 C118.251994,129.102401 117.102139,129.254933 115.9288,129.2784 C114.755461,129.301867 113.652538,129.172801 112.62,128.8912 C111.165059,128.515731 109.933072,127.96427 108.924,127.2368 C107.914928,126.50933 107.08187,125.664538 106.4248,124.7024 C105.76773,123.740262 105.274935,122.707739 104.9464,121.6048 C104.617865,120.501861 104.430134,119.363739 104.3832,118.1904 C104.289333,115.374386 104.840794,112.840011 106.0376,110.5872 C107.234406,108.334389 108.912256,106.668272 111.0712,105.5888 C112.666941,104.790929 114.274392,104.474133 115.8936,104.6384 C117.512808,104.802667 118.721329,105.401062 119.5192,106.4336 Z M134.092,131.0736 C133.951199,129.337058 133.8456,127.365878 133.7752,125.16 C133.7048,122.954122 133.6696,120.689612 133.6696,118.3664 C133.6696,116.043188 133.681333,113.755211 133.7048,111.5024 C133.728267,109.249589 133.786933,107.208009 133.8808,105.3776 C133.8808,104.908264 134.103731,104.544535 134.5496,104.2864 C134.995469,104.028265 135.359199,103.922666 135.6408,103.9696 C136.485604,104.063467 137.060532,104.356798 137.3656,104.8496 C137.670668,105.342402 137.870133,106.034662 137.964,106.9264 C137.917066,108.428274 137.881867,109.930126 137.8584,111.432 C137.834933,112.933874 137.846666,114.435726 137.8936,115.9376 C140.005611,115.562131 141.777326,114.787739 143.2088,113.6144 C144.640274,112.441061 145.661064,111.103474 146.2712,109.6016 C146.505868,109.038397 146.681866,108.357871 146.7992,107.56 C146.916534,106.762129 146.928267,105.952537 146.8344,105.1312 C146.740533,104.309863 146.517602,103.53547 146.1656,102.808 C145.813598,102.08053 145.285604,101.505602 144.5816,101.0832 C143.549062,100.473064 142.422673,100.144534 141.2024,100.0976 C139.982127,100.050666 138.726673,100.226665 137.436,100.6256 C136.145327,101.024535 134.87814,101.646396 133.6344,102.4912 C132.39066,103.336004 131.229072,104.345061 130.1496,105.5184 C130.290401,106.222404 130.196535,106.844264 129.868,107.384 C129.539465,107.923736 129.070136,108.310932 128.46,108.5456 C128.084531,108.639467 127.638669,108.440002 127.1224,107.9472 C126.606131,107.454398 126.348,106.949869 126.348,106.4336 C126.348,104.556257 126.875995,102.92534 127.932,101.5408 C128.988005,100.15626 130.313859,98.9946714 131.9096,98.056 C133.505341,97.1173286 135.218391,96.4133357 137.0488,95.944 C138.879209,95.4746643 140.568792,95.24 142.1176,95.24 C144.417345,95.24 146.341592,95.9087933 147.8904,97.2464 C149.439208,98.5840067 150.495197,100.261857 151.0584,102.28 C152.044005,105.800018 151.797607,108.967986 150.3192,111.784 C148.840793,114.600014 146.435483,117.040523 143.1032,119.1056 C145.543746,120.607474 147.831723,122.038927 149.9672,123.4 C152.102677,124.761073 154.249856,126.239459 156.4088,127.8352 C156.690401,128.116801 157.007198,128.527464 157.3592,129.0672 C157.711202,129.606936 157.652536,130.416528 157.1832,131.496 C156.901599,132.15307 156.420537,132.5168 155.74,132.5872 C155.059463,132.6576 154.39067,132.458136 153.7336,131.9888 C152.701062,131.143996 151.539473,130.264005 150.2488,129.3488 C148.958127,128.433595 147.608807,127.518405 146.2008,126.6032 C144.792793,125.687995 143.384807,124.796271 141.9768,123.928 C140.568793,123.059729 139.231206,122.250137 137.964,121.4992 C138.010934,123.376543 138.046133,125.242124 138.0696,127.096 C138.093067,128.949876 138.151733,130.768524 138.2456,132.552 C138.2456,133.20907 138.057869,133.666665 137.6824,133.9248 C137.306931,134.182935 136.837603,134.312 136.2744,134.312 C135.992799,134.265066 135.734668,134.112535 135.5,133.8544 C135.265332,133.596265 135.042401,133.291202 134.8312,132.9392 C134.619999,132.587198 134.444001,132.235202 134.3032,131.8832 C134.162399,131.531198 134.092,131.261334 134.092,131.0736 Z M163.8008,132.2704 C163.566132,133.068271 163.261069,133.783997 162.8856,134.4176 C162.510131,135.051203 162.111202,135.414933 161.6888,135.5088 C160.797062,135.743468 160.116536,135.602669 159.6472,135.0864 C159.177864,134.570131 158.990133,133.913071 159.084,133.1152 C159.459469,130.299186 160.069596,127.330682 160.9144,124.2096 C161.759204,121.088518 162.744794,117.967482 163.8712,114.8464 C164.997606,111.725318 166.229593,108.698148 167.5672,105.7648 C168.904807,102.831452 170.277593,100.168012 171.6856,97.7744 C171.920268,97.3989315 172.190132,97.1760004 172.4952,97.1056 C172.800268,97.0351996 173.070132,97.0469329 173.3048,97.1408 C173.539468,96.9530657 173.821065,96.7888007 174.1496,96.648 C174.478135,96.5071993 174.806665,96.4368 175.1352,96.4368 C175.276001,96.4368 175.428533,96.4602664 175.5928,96.5072 C175.757067,96.5541336 175.933066,96.6949322 176.1208,96.9296 C176.308534,97.1642678 176.531465,97.5045311 176.7896,97.9504 C177.047735,98.3962689 177.364531,99.0415958 177.74,99.8864 C178.39707,102.280012 179.159729,104.743987 180.028,107.2784 C180.896271,109.812813 181.799729,112.347187 182.7384,114.8816 C182.879201,114.834666 183.008266,114.799467 183.1256,114.776 C183.242934,114.752533 183.371999,114.717334 183.5128,114.6704 C184.029069,114.623466 184.61573,114.646933 185.2728,114.7408 C185.92987,114.834667 186.375732,115.163197 186.6104,115.7264 C186.892001,116.430404 186.845069,117.040531 186.4696,117.5568 C186.094131,118.073069 185.413605,118.589331 184.428,119.1056 C185.038136,120.607474 185.648264,122.074126 186.2584,123.5056 C186.868536,124.937074 187.50213,126.333327 188.1592,127.6944 C188.206134,127.929068 188.276533,128.292798 188.3704,128.7856 C188.464267,129.278402 188.522933,129.771198 188.5464,130.264 C188.569867,130.756802 188.534667,131.214398 188.4408,131.6368 C188.346933,132.059202 188.159201,132.340799 187.8776,132.4816 C187.549065,132.622401 187.208802,132.598934 186.8568,132.4112 C186.504798,132.223466 186.164535,131.977068 185.836,131.672 C185.507465,131.366932 185.214135,131.038402 184.956,130.6864 C184.697865,130.334398 184.498401,130.017601 184.3576,129.736 C183.559729,128.187192 182.79707,126.626675 182.0696,125.0544 C181.34213,123.482125 180.64987,121.898141 179.9928,120.3024 C178.02159,120.677869 175.874412,121.006399 173.5512,121.288 C171.227988,121.569601 168.940011,121.757333 166.6872,121.8512 C166.170931,123.634676 165.666402,125.382925 165.1736,127.096 C164.680798,128.809075 164.223202,130.533858 163.8008,132.2704 Z M173.7976,102.7024 C171.638656,107.536558 169.761341,112.370642 168.1656,117.2048 C171.310149,117.110933 174.665849,116.712004 178.2328,116.008 C176.543192,111.737045 175.064806,107.30189 173.7976,102.7024 Z M197.452,117.4864 C196.654129,117.768001 195.903204,117.779735 195.1992,117.5216 C194.495196,117.263465 194.096267,116.594672 194.0024,115.5152 C193.955466,114.482662 194.401329,113.755202 195.34,113.3328 C196.982675,112.816531 198.613592,112.405868 200.2328,112.1008 C201.852008,111.795732 203.482925,111.572801 205.1256,111.432 C206.158138,110.211727 207.143729,109.014939 208.0824,107.8416 C209.021071,106.668261 209.889329,105.541872 210.6872,104.4624 C209.936263,104.4624 208.90374,104.532799 207.5896,104.6736 C206.27546,104.814401 204.879207,105.002132 203.4008,105.2368 C201.922393,105.471468 200.49094,105.706132 199.1064,105.9408 C197.72186,106.175468 196.583738,106.386666 195.692,106.5744 C195.457332,106.621334 195.140535,106.6096 194.7416,106.5392 C194.342665,106.4688 193.955469,106.363201 193.58,106.2224 C193.204531,106.081599 192.876001,105.882135 192.5944,105.624 C192.312799,105.365865 192.172,105.096001 192.172,104.8144 C192.172,104.298131 192.488797,103.793602 193.1224,103.3008 C193.756003,102.807998 194.40133,102.444268 195.0584,102.2096 C195.71547,101.974932 196.607194,101.716801 197.7336,101.4352 C198.860006,101.153599 200.127193,100.895468 201.5352,100.6608 C202.943207,100.426132 204.421592,100.214934 205.9704,100.0272 C207.519208,99.8394657 209.044526,99.6986671 210.5464,99.6048 C211.156536,99.5578664 211.75493,99.6517322 212.3416,99.8864 C212.92827,100.121068 213.444531,100.437865 213.8904,100.8368 C214.336269,101.235735 214.711732,101.669864 215.0168,102.1392 C215.321868,102.608536 215.521333,103.077864 215.6152,103.5472 C215.756001,104.673606 215.380538,105.799994 214.4888,106.9264 C213.972531,107.58347 213.42107,108.263996 212.8344,108.968 C212.24773,109.672004 211.62587,110.422929 210.9688,111.2208 C212.376807,111.267734 213.77306,111.361599 215.1576,111.5024 C216.54214,111.643201 217.89146,111.830932 219.2056,112.0656 C219.534135,112.112534 219.968264,112.194666 220.508,112.312 C221.047736,112.429334 221.552264,112.605332 222.0216,112.84 C222.490936,113.074668 222.878132,113.356265 223.1832,113.6848 C223.488268,114.013335 223.617334,114.388798 223.5704,114.8112 C223.429599,115.749871 222.948537,116.324799 222.1272,116.536 C221.305863,116.747201 220.425871,116.782401 219.4872,116.6416 C217.656791,116.359999 215.685611,116.172267 213.5736,116.0784 C211.461589,115.984533 209.232278,116.031466 206.8856,116.2192 C205.57146,117.861875 204.245607,119.539725 202.908,121.2528 C201.570393,122.965875 200.268006,124.690658 199.0008,126.4272 C200.737342,126.380266 202.731989,126.298134 204.9848,126.1808 C207.237611,126.063466 209.502122,125.922667 211.7784,125.7584 C214.054678,125.594133 216.248789,125.429867 218.3608,125.2656 C220.472811,125.101333 222.232793,124.948801 223.6408,124.808 C224.29787,124.808 224.778932,124.913599 225.084,125.1248 C225.389068,125.336001 225.658932,125.676264 225.8936,126.1456 C225.987467,126.521069 225.893601,127.03733 225.612,127.6944 C225.330399,128.35147 224.743738,128.820799 223.852,129.1024 C222.021591,129.337068 219.968278,129.571732 217.692,129.8064 C215.415722,130.041068 213.080812,130.252266 210.6872,130.44 C208.293588,130.627734 205.923478,130.780266 203.5768,130.8976 C201.230122,131.014934 199.094676,131.097066 197.1704,131.144 C195.950127,131.097066 195.04667,130.956268 194.46,130.7216 C193.87333,130.486932 193.439201,130.158402 193.1576,129.736 C192.735198,129.172797 192.594399,128.539204 192.7352,127.8352 C192.876001,127.131196 193.110665,126.568002 193.4392,126.1456 C194.471738,124.643726 195.586394,123.118408 196.7832,121.5696 C197.980006,120.020792 199.23546,118.472008 200.5496,116.9232 L197.452,117.4864 Z M242.6488,116.5008 C242.461066,117.251737 242.285067,118.342926 242.1208,119.7744 C241.956533,121.205874 241.815734,122.707725 241.6984,124.28 C241.581066,125.852275 241.4872,127.365859 241.4168,128.8208 C241.3464,130.275741 241.3112,131.402129 241.3112,132.2 C241.3112,133.561073 240.560274,134.2416 239.0584,134.2416 C238.542131,134.2416 238.061069,134.100801 237.6152,133.8192 C237.169331,133.537599 236.9464,132.997871 236.9464,132.2 C236.9464,130.22879 237.016799,128.093345 237.1576,125.7936 C237.298401,123.493855 237.486132,121.123746 237.7208,118.6832 C236.078125,115.679452 234.541074,112.722681 233.1096,109.8128 C231.678126,106.902919 230.469605,104.227746 229.484,101.7872 C229.296266,101.364798 229.143734,100.907202 229.0264,100.4144 C228.909066,99.9215975 228.862133,99.4640021 228.8856,99.0416 C228.909067,98.6191979 229.014666,98.2554682 229.2024,97.9504 C229.390134,97.6453318 229.718664,97.4458671 230.188,97.352 C230.704269,97.3050664 231.208798,97.3402661 231.7016,97.4576 C232.194402,97.5749339 232.628531,97.8917308 233.004,98.408 C233.379469,99.3936049 233.848797,100.519994 234.412,101.7872 C234.975203,103.054406 235.561864,104.34506 236.172,105.6592 C236.782136,106.97334 237.392264,108.228794 238.0024,109.4256 C238.612536,110.622406 239.152264,111.643196 239.6216,112.488 C241.733611,109.671986 243.73999,106.785615 245.6408,103.8288 C247.54161,100.871985 249.313325,98.0560134 250.956,95.3808 C251.566136,94.4421286 252.19973,93.9258671 252.8568,93.832 C253.51387,93.7381329 254.053598,93.8789315 254.476,94.2544 C254.851469,94.5360014 255.0744,95.00533 255.1448,95.6624 C255.2152,96.31947 255.133068,96.9061308 254.8984,97.4224 C254.100529,98.830407 253.173605,100.367458 252.1176,102.0336 C251.061595,103.699742 249.982139,105.377592 248.8792,107.0672 C247.776261,108.756808 246.685072,110.422925 245.6056,112.0656 C244.526128,113.708275 243.540538,115.18666 242.6488,116.5008 Z M128.4952,139.8992 C128.260532,141.541875 128.049334,143.360523 127.8616,145.3552 C127.673866,147.349877 127.486134,149.36799 127.2984,151.4096 C127.110666,153.45121 126.934667,155.434124 126.7704,157.3584 C126.606133,159.282676 126.477067,160.972259 126.3832,162.4272 C127.978941,162.145599 129.750657,161.817069 131.6984,161.4416 C133.646143,161.066131 135.629057,160.678935 137.6472,160.28 C139.665343,159.881065 141.648257,159.529068 143.596,159.224 C145.543743,158.918932 147.315459,158.696001 148.9112,158.5552 C149.052001,158.5552 149.216266,158.602133 149.404,158.696 C149.779469,158.883734 149.9672,159.188798 149.9672,159.6112 C149.9672,160.221336 149.849868,160.678932 149.6152,160.984 C149.380532,161.289068 149.098935,161.523733 148.7704,161.688 C148.441865,161.852267 148.101602,162.004799 147.7496,162.1456 C147.397598,162.286401 147.080801,162.497599 146.7992,162.7792 C145.344259,163.154669 143.748542,163.553598 142.012,163.976 C140.275458,164.398402 138.492009,164.820798 136.6616,165.2432 L131.1704,166.5104 C129.339991,166.932802 127.626941,167.355198 126.0312,167.7776 C124.576259,168.153069 123.473337,167.894938 122.7224,167.0032 C121.971463,166.111462 121.666399,164.656543 121.8072,162.6384 C122.041868,158.836781 122.323465,155.023486 122.652,151.1984 C122.980535,147.373314 123.379464,143.560019 123.8488,139.7584 C123.942667,138.960529 124.212531,138.303469 124.6584,137.7872 C125.104269,137.270931 125.65573,136.965867 126.3128,136.872 C127.392272,136.731199 128.037599,137.001063 128.2488,137.6816 C128.460001,138.362137 128.542134,139.101329 128.4952,139.8992 Z M155.74,168.2704 C155.505332,169.068271 155.200269,169.783997 154.8248,170.4176 C154.449331,171.051203 154.050402,171.414933 153.628,171.5088 C152.736262,171.743468 152.055736,171.602669 151.5864,171.0864 C151.117064,170.570131 150.929333,169.913071 151.0232,169.1152 C151.398669,166.299186 152.008796,163.330682 152.8536,160.2096 C153.698404,157.088518 154.683994,153.967482 155.8104,150.8464 C156.936806,147.725318 158.168793,144.698148 159.5064,141.7648 C160.844007,138.831452 162.216793,136.168012 163.6248,133.7744 C163.859468,133.398931 164.129332,133.176 164.4344,133.1056 C164.739468,133.0352 165.009332,133.046933 165.244,133.1408 C165.478668,132.953066 165.760265,132.788801 166.0888,132.648 C166.417335,132.507199 166.745865,132.4368 167.0744,132.4368 C167.215201,132.4368 167.367733,132.460266 167.532,132.5072 C167.696267,132.554134 167.872266,132.694932 168.06,132.9296 C168.247734,133.164268 168.470665,133.504531 168.7288,133.9504 C168.986935,134.396269 169.303731,135.041596 169.6792,135.8864 C170.33627,138.280012 171.098929,140.743987 171.9672,143.2784 C172.835471,145.812813 173.738929,148.347187 174.6776,150.8816 C174.818401,150.834666 174.947466,150.799467 175.0648,150.776 C175.182134,150.752533 175.311199,150.717334 175.452,150.6704 C175.968269,150.623466 176.55493,150.646933 177.212,150.7408 C177.86907,150.834667 178.314932,151.163197 178.5496,151.7264 C178.831201,152.430404 178.784269,153.040531 178.4088,153.5568 C178.033331,154.073069 177.352805,154.589331 176.3672,155.1056 C176.977336,156.607474 177.587464,158.074126 178.1976,159.5056 C178.807736,160.937074 179.44133,162.333327 180.0984,163.6944 C180.145334,163.929068 180.215733,164.292798 180.3096,164.7856 C180.403467,165.278402 180.462133,165.771198 180.4856,166.264 C180.509067,166.756802 180.473867,167.214398 180.38,167.6368 C180.286133,168.059202 180.098401,168.340799 179.8168,168.4816 C179.488265,168.622401 179.148002,168.598934 178.796,168.4112 C178.443998,168.223466 178.103735,167.977068 177.7752,167.672 C177.446665,167.366932 177.153335,167.038402 176.8952,166.6864 C176.637065,166.334398 176.437601,166.017601 176.2968,165.736 C175.498929,164.187192 174.73627,162.626675 174.0088,161.0544 C173.28133,159.482125 172.58907,157.898141 171.932,156.3024 C169.96079,156.677869 167.813612,157.006399 165.4904,157.288 C163.167188,157.569601 160.879211,157.757333 158.6264,157.8512 C158.110131,159.634676 157.605602,161.382925 157.1128,163.096 C156.619998,164.809075 156.162402,166.533858 155.74,168.2704 Z M165.7368,138.7024 C163.577856,143.536558 161.700541,148.370642 160.1048,153.2048 C163.249349,153.110933 166.605049,152.712004 170.172,152.008 C168.482392,147.737045 167.004006,143.30189 165.7368,138.7024 Z M212.06,139.4064 C211.731465,143.395753 211.344269,147.467179 210.8984,151.6208 C210.452531,155.774421 209.854137,159.681582 209.1032,163.3424 C208.915466,164.234138 208.657335,164.867731 208.3288,165.2432 C208.000265,165.618669 207.530936,165.876799 206.9208,166.0176 C206.404531,166.111467 205.688805,165.947202 204.7736,165.5248 C203.858395,165.102398 203.095736,164.492271 202.4856,163.6944 C201.687729,162.614928 200.831205,161.429873 199.916,160.1392 C199.000795,158.848527 198.015205,157.534407 196.9592,156.1968 C195.903195,154.859193 194.800272,153.53334 193.6504,152.2192 C192.500528,150.90506 191.292006,149.684806 190.0248,148.5584 C189.883999,151.656015 189.766667,154.718385 189.6728,157.7456 C189.578933,160.772815 189.578933,163.811718 189.6728,166.8624 C189.6728,167.284802 189.297337,167.496 188.5464,167.496 C187.654662,167.496 186.927203,167.038405 186.364,166.1232 C185.800797,165.207995 185.472267,164.281071 185.3784,163.3424 C185.237599,162.403729 185.1672,161.054409 185.1672,159.2944 C185.1672,157.534391 185.2024,155.692276 185.2728,153.768 C185.3432,151.843724 185.425333,149.989876 185.5192,148.2064 C185.613067,146.422924 185.706933,145.014938 185.8008,143.9824 C185.894667,142.855994 186.164531,142.034669 186.6104,141.5184 C187.056269,141.002131 187.490398,140.767466 187.9128,140.8144 C188.851471,140.908267 189.473332,141.178131 189.7784,141.624 C190.083468,142.069869 190.259466,142.62133 190.3064,143.2784 C191.996008,144.498673 193.556526,145.812793 194.988,147.2208 C196.419474,148.628807 197.733594,150.060259 198.9304,151.5152 C200.127206,152.970141 201.230128,154.413326 202.2392,155.8448 C203.248272,157.276274 204.198662,158.578661 205.0904,159.752 C205.653603,156.935986 206.111198,153.791484 206.4632,150.3184 C206.815202,146.845316 207.178931,143.208019 207.5544,139.4064 C207.507466,138.937064 207.789064,138.479469 208.3992,138.0336 C209.009336,137.587731 209.572531,137.388266 210.0888,137.4352 C211.40294,137.529067 212.06,138.186127 212.06,139.4064 Z M217.7624,140.392 C217.058396,140.673601 216.448269,140.697068 215.932,140.4624 C215.415731,140.227732 215.040268,139.922669 214.8056,139.5472 C214.477065,139.077864 214.383199,138.585069 214.524,138.0688 C214.664801,137.552531 215.06373,137.106669 215.7208,136.7312 C216.800272,136.121064 218.161325,135.616535 219.804,135.2176 C221.446675,134.818665 223.206657,134.713066 225.084,134.9008 C226.961343,135.088534 228.686125,135.593063 230.2584,136.4144 C231.830675,137.235737 233.168261,138.279994 234.2712,139.5472 C235.374139,140.814406 236.21893,142.257592 236.8056,143.8768 C237.39227,145.496008 237.662134,147.197324 237.6152,148.9808 C237.521333,150.858143 237.157603,152.735457 236.524,154.6128 C235.890397,156.490143 235.022139,158.250125 233.9192,159.8928 C232.816261,161.535475 231.502141,163.025593 229.9768,164.3632 C228.451459,165.700807 226.773609,166.745063 224.9432,167.496 C223.675994,167.824535 222.71387,167.871468 222.0568,167.6368 C221.39973,167.402132 220.953868,167.120535 220.7192,166.792 C220.625333,166.557332 220.590133,166.240535 220.6136,165.8416 C220.637067,165.442665 220.883464,165.032002 221.3528,164.6096 C220.789597,160.057044 220.449334,155.657088 220.332,151.4096 C220.214666,147.162112 220.156,143.278418 220.156,139.7584 C219.358129,139.899201 218.560271,140.110399 217.7624,140.392 Z M225.436,139.4768 C225.154399,139.429866 224.861068,139.394667 224.556,139.3712 C224.250932,139.347733 223.957601,139.336 223.676,139.336 C223.957601,139.711469 224.192266,140.169064 224.38,140.7088 C224.567734,141.248536 224.6616,141.776531 224.6616,142.2928 C224.6616,145.155748 224.6968,148.22985 224.7672,151.5152 C224.8376,154.80055 225.060531,158.343981 225.436,162.1456 C227.501077,160.643726 229.272793,158.754678 230.7512,156.4784 C232.229607,154.202122 233.015733,151.796813 233.1096,149.2624 C233.156534,146.915722 232.569873,144.838942 231.3496,143.032 C230.129327,141.225058 228.158147,140.040003 225.436,139.4768 Z" id="path-6"></path>
        <filter x="-50%" y="-50%" width="200%" height="200%" filterUnits="objectBoundingBox" id="filter-7">
            <feMorphology radius="0.8" operator="dilate" in="SourceAlpha" result="shadowSpreadOuter1"></feMorphology>
            <feOffset dx="0" dy="2" in="shadowSpreadOuter1" result="shadowOffsetOuter1"></feOffset>
            <feComposite in="shadowOffsetOuter1" in2="SourceAlpha" operator="out" result="shadowOffsetOuter1"></feComposite>
            <feColorMatrix values="0 0 0 0 0.870588235   0 0 0 0 0.22745098   0 0 0 0 0.305882353  0 0 0 1 0" type="matrix" in="shadowOffsetOuter1"></feColorMatrix>
        </filter>
    </defs>
    <g id="Group-4-Copy-9" stroke="none" stroke-width="1" fill="none" fill-rule="evenodd" transform="translate(256.000000, 898.000000)">
        <mask id="mask-2" fill="white">
            <use xlink:href="#path-1"></use>
        </mask>
        <use id="Rectangle-2-Copy-3" fill="#FFF7EB" xlink:href="#path-1"></use>
        <g id="Title" mask="url(#mask-2)">
            <g transform="translate(-52.000000, -2.000000)">
                <g id="app-bar" stroke-width="1" fill-rule="evenodd">
                    <g id="New-Summer-Theme-Park-Rides">
                        <g id="Mask">
                            <use fill="black" fill-opacity="1" filter="url(#filter-5)" xlink:href="#path-4"></use>
                            <use fill="url(#radialGradient-3)" fill-rule="evenodd" xlink:href="#path-4"></use>
                        </g>
                    </g>
                </g>
                <g id="CRAZY">
                    <use fill="black" fill-opacity="1" filter="url(#filter-7)" xlink:href="#path-6"></use>
                    <use fill="#FFEE00" fill-rule="evenodd" xlink:href="#path-6"></use>
                </g>
            </g>
        </g>
    </g>
</svg>