<svg width="256px" height="256px" viewBox="0 898 256 256" version="1.1" xmlns="http://www.w3.org/2000/svg" xmlns:xlink="http://www.w3.org/1999/xlink">
    <!-- Generator: Sketch 42 (36781) - http://www.bohemiancoding.com/sketch -->
    <desc>Created with Sketch.</desc>
    <defs>
        <rect id="path-1" x="0" y="0" width="256" height="256"></rect>
        <polygon id="path-3" points="37.9865919 8.93616447 37.9865919 0.219586932 0.252286996 0.219586932 0.252286996 8.93616447 37.9865919 8.93616447"></polygon>
    </defs>
    <g id="Group-4-Copy-6" stroke="none" stroke-width="1" fill="none" fill-rule="evenodd" transform="translate(0.000000, 898.000000)">
        <mask id="mask-2" fill="white">
            <use xlink:href="#path-1"></use>
        </mask>
        <use id="Rectangle-2-Copy-3" fill="#F2F2F2" xlink:href="#path-1"></use>
        <g id="Page-1" mask="url(#mask-2)">
            <g transform="translate(32.000000, 48.000000)">
                <g id="Group-3" transform="translate(155.721973, 61.359930)">
                    <mask id="mask-4" fill="white">
                        <use xlink:href="#path-3"></use>
                    </mask>
                    <g id="Clip-2"></g>
                </g>
                <g id="Group-35" transform="translate(0.000000, 0.600572)">
                    <path d="M12.3929082,3.1979368 L13.0335332,3.1979368 C13.3043678,3.1979368 13.5048867,3.12697397 13.6350957,2.98504617 C13.7653046,2.84311838 13.8304082,2.64585473 13.8304082,2.3932493 C13.8304082,2.16408149 13.7653046,1.98048957 13.6350957,1.84246805 C13.5048867,1.70444652 13.3160865,1.6354368 13.0686894,1.6354368 C12.8551467,1.6354368 12.675461,1.69793617 12.5296269,1.8229368 C12.3837928,1.94793742 12.3108769,2.11199828 12.3108769,2.3151243 L11.2054082,2.3151243 L11.1975957,2.2916868 C11.1819706,1.84637207 11.3525418,1.47918824 11.7093144,1.1901243 C12.066087,0.901060353 12.5087909,0.756530548 13.0374394,0.756530548 C13.625984,0.756530548 14.0953804,0.897154142 14.4456425,1.17840555 C14.7959047,1.45965695 14.9710332,1.86069461 14.9710332,2.38153055 C14.9710332,2.62892762 14.8929089,2.86395131 14.7366582,3.08660867 C14.5804074,3.30926604 14.3655658,3.48309242 14.0921269,3.60809305 C14.4072326,3.72007277 14.6474646,3.89194606 14.81283,4.12371805 C14.9781954,4.35549004 15.0608769,4.6250186 15.0608769,4.9323118 C15.0608769,5.45314774 14.8714257,5.86264885 14.4925175,6.16082742 C14.1136094,6.459006 13.6285882,6.60809305 13.0374394,6.60809305 C12.5087909,6.60809305 12.0550194,6.46812049 11.6761113,6.18817117 C11.2972031,5.90822186 11.1142623,5.51304352 11.1272832,5.0026243 L11.1350957,4.9791868 L12.2405644,4.9791868 C12.2405644,5.19793789 12.3186886,5.37827463 12.4749394,5.52020242 C12.6311902,5.66213022 12.8291049,5.73309305 13.0686894,5.73309305 C13.3317116,5.73309305 13.5393918,5.66017711 13.6917363,5.51434305 C13.8440808,5.36850899 13.9202519,5.1705943 13.9202519,4.92059305 C13.9202519,4.62111238 13.8453829,4.40171354 13.6956425,4.26238992 C13.5459022,4.12306631 13.3252013,4.05340555 13.0335332,4.05340555 L12.3929082,4.05340555 L12.3929082,3.1979368 Z M15.5022832,5.84246805 L16.4632207,5.72528055 L16.4632207,1.87371805 L15.4905644,1.87371805 L15.4905644,1.2213743 L17.5999394,0.838561798 L17.5999394,5.72528055 L18.5608769,5.84246805 L18.5608769,6.5260618 L15.5022832,6.5260618 L15.5022832,5.84246805 Z M20.4241582,6.5260618 L19.2874394,6.5260618 L19.2874394,5.5260618 L20.4241582,5.5260618 L20.4241582,6.5260618 Z M21.1077519,6.5260618 L21.1077519,5.77996805 L22.9475957,3.8073118 C23.213222,3.50262277 23.4020222,3.24546389 23.5140019,3.03582742 C23.6259816,2.82619096 23.6819707,2.63153145 23.6819707,2.45184305 C23.6819707,2.21225852 23.6175182,2.01629693 23.4886113,1.86395242 C23.3597044,1.71160791 23.1767635,1.6354368 22.9397832,1.6354368 C22.676761,1.6354368 22.4768932,1.72462861 22.3401738,1.90301492 C22.2034543,2.08140123 22.1350957,2.31902906 22.1350957,2.61590555 L21.0257207,2.61590555 L21.0179082,2.59246805 C21.0048873,2.07944465 21.1735054,1.6452042 21.5237675,1.28973367 C21.8740297,0.934263146 22.3460302,0.756530548 22.9397832,0.756530548 C23.5257236,0.756530548 23.9866565,0.908872775 24.3225957,1.2135618 C24.6585348,1.51825082 24.8265019,1.92449676 24.8265019,2.4323118 C24.8265019,2.77606352 24.7321018,3.09376867 24.5432988,3.3854368 C24.3544958,3.67710492 24.0413478,4.05730945 23.6038457,4.5260618 L22.5921269,5.63153055 L22.5999394,5.6510618 L24.0765019,5.6510618 L24.1233769,5.0885618 L24.9905644,5.0885618 L24.9905644,6.5260618 L21.1077519,6.5260618 Z" id="31.2" fill="#545454"></path>
                    <path d="M30.7744027,42.739316 C30.7744027,50.4290807 24.5524834,56.663177 16.877739,56.663177 C9.20212466,56.663177 2.98020538,50.4290807 2.98020538,42.739316 C2.98020538,35.0495513 9.20212466,28.8154551 16.877739,28.8154551 C24.5524834,28.8154551 30.7744027,35.0495513 30.7744027,42.739316" id="Fill-5" fill="#5F9438"></path>
                    <path d="M33.2273283,42.739316 C33.2273283,51.7871235 25.9075256,59.1212519 16.877391,59.1212519 C7.8472565,59.1212519 0.527453812,51.7871235 0.527453812,42.739316 C0.527453812,33.6915086 7.8472565,26.3573802 16.877391,26.3573802 C25.9075256,26.3573802 33.2273283,33.6915086 33.2273283,42.739316 Z" id="Stroke-6" stroke="#858789" stroke-width="0.5" stroke-dasharray="3,5"></path>
                    <path d="M72.7184206,42.739316 C72.7184206,51.7871235 65.3986179,59.1212519 56.3684834,59.1212519 C47.3383489,59.1212519 40.0185462,51.7871235 40.0185462,42.739316 C40.0185462,33.6915086 47.3383489,26.3573802 56.3684834,26.3573802 C65.3986179,26.3573802 72.7184206,33.6915086 72.7184206,42.739316 Z" id="Stroke-7" stroke="#858789" stroke-width="0.5" stroke-dasharray="3,5"></path>
                    <path d="M112.209513,42.739316 C112.209513,51.7871235 104.88971,59.1212519 95.8595758,59.1212519 C86.8294413,59.1212519 79.5096386,51.7871235 79.5096386,42.739316 C79.5096386,33.6915086 86.8294413,26.3573802 95.8595758,26.3573802 C104.88971,26.3573802 112.209513,33.6915086 112.209513,42.739316 Z" id="Stroke-8" stroke="#858789" stroke-width="0.5" stroke-dasharray="3,5"></path>
                    <path d="M151.700605,42.739316 C151.700605,51.7871235 144.380803,59.1212519 135.350668,59.1212519 C126.320534,59.1212519 119.000731,51.7871235 119.000731,42.739316 C119.000731,33.6915086 126.320534,26.3573802 135.350668,26.3573802 C144.380803,26.3573802 151.700605,33.6915086 151.700605,42.739316 Z" id="Stroke-9" stroke="#858789" stroke-width="0.5" stroke-dasharray="3,5"></path>
                    <path d="M191.191785,42.739316 C191.191785,51.7871235 183.871982,59.1212519 174.841848,59.1212519 C165.811713,59.1212519 158.49191,51.7871235 158.49191,42.739316 C158.49191,33.6915086 165.811713,26.3573802 174.841848,26.3573802 C183.871982,26.3573802 191.191785,33.6915086 191.191785,42.739316 Z" id="Stroke-10" stroke="#858789" stroke-width="0.5" stroke-dasharray="3,5"></path>
                    <path d="M33.2273283,119.254131 C33.2273283,128.301939 25.9075256,135.636067 16.877391,135.636067 C7.8472565,135.636067 0.527453812,128.301939 0.527453812,119.254131 C0.527453812,110.206324 7.8472565,102.872195 16.877391,102.872195 C25.9075256,102.872195 33.2273283,110.206324 33.2273283,119.254131 Z" id="Stroke-11" stroke="#858789" stroke-width="0.5" stroke-dasharray="3,5"></path>
                    <path d="M72.7184206,119.254131 C72.7184206,128.301939 65.3986179,135.636067 56.3684834,135.636067 C47.3383489,135.636067 40.0185462,128.301939 40.0185462,119.254131 C40.0185462,110.206324 47.3383489,102.872195 56.3684834,102.872195 C65.3986179,102.872195 72.7184206,110.206324 72.7184206,119.254131 Z" id="Stroke-12" stroke="#858789" stroke-width="0.5" stroke-dasharray="3,5"></path>
                    <path d="M112.209513,119.254131 C112.209513,128.301939 104.88971,135.636067 95.8595758,135.636067 C86.8294413,135.636067 79.5096386,128.301939 79.5096386,119.254131 C79.5096386,110.206324 86.8294413,102.872195 95.8595758,102.872195 C104.88971,102.872195 112.209513,110.206324 112.209513,119.254131 Z" id="Stroke-13" stroke="#858789" stroke-width="0.5" stroke-dasharray="3,5"></path>
                    <path d="M151.700605,119.254131 C151.700605,128.301939 144.380803,135.636067 135.350668,135.636067 C126.320534,135.636067 119.000731,128.301939 119.000731,119.254131 C119.000731,110.206324 126.320534,102.872195 135.350668,102.872195 C144.380803,102.872195 151.700605,110.206324 151.700605,119.254131 Z" id="Stroke-14" stroke="#858789" stroke-width="0.5" stroke-dasharray="3,5"></path>
                    <path d="M191.191785,119.254131 C191.191785,128.301939 183.871982,135.636067 174.841848,135.636067 C165.811713,135.636067 158.49191,128.301939 158.49191,119.254131 C158.49191,110.206324 165.811713,102.872195 174.841848,102.872195 C183.871982,102.872195 191.191785,110.206324 191.191785,119.254131 Z" id="Stroke-15" stroke="#858789" stroke-width="0.5" stroke-dasharray="3,5"></path>
                    <path d="M60.3772368,42.739316 C60.3772368,44.957685 58.5825193,46.755915 56.3684834,46.755915 C54.1544475,46.755915 52.35973,44.957685 52.35973,42.739316 C52.35973,40.5209471 54.1544475,38.7227171 56.3684834,38.7227171 C58.5825193,38.7227171 60.3772368,40.5209471 60.3772368,42.739316" id="Fill-16" fill="#5F9438"></path>
                    <path d="M99.1111202,42.739316 C99.1111202,44.5384176 97.6556852,45.9975727 95.8592278,45.9975727 C94.0636404,45.9975727 92.6082054,44.5384176 92.6082054,42.739316 C92.6082054,40.9402144 94.0636404,39.4810594 95.8592278,39.4810594 C97.6556852,39.4810594 99.1111202,40.9402144 99.1111202,42.739316" id="Fill-17" fill="#5F9438"></path>
                    <path d="M138.02317,42.739316 C138.02317,44.2185193 136.826982,45.4170487 135.350668,45.4170487 C133.874354,45.4170487 132.678166,44.2185193 132.678166,42.739316 C132.678166,41.2601128 133.874354,40.0615834 135.350668,40.0615834 C136.826982,40.0615834 138.02317,41.2601128 138.02317,42.739316" id="Fill-18" fill="#5F9438"></path>
                    <path d="M177.068846,42.739316 C177.068846,43.9718401 176.071877,44.9707599 174.841761,44.9707599 C173.611644,44.9707599 172.614675,43.9718401 172.614675,42.739316 C172.614675,41.506792 173.611644,40.5078722 174.841761,40.5078722 C176.071877,40.5078722 177.068846,41.506792 177.068846,42.739316" id="Fill-19" fill="#5F9438"></path>
                    <path d="M18.3027256,119.254131 C18.3027256,120.042981 17.6641785,120.681906 16.877739,120.681906 C16.0904296,120.681906 15.4518825,120.042981 15.4518825,119.254131 C15.4518825,118.465281 16.0904296,117.826356 16.877739,117.826356 C17.6641785,117.826356 18.3027256,118.465281 18.3027256,119.254131" id="Fill-20" fill="#5F9438"></path>
                    <path d="M57.3929426,119.254131 C57.3929426,119.820709 56.9344762,120.280944 56.3681354,120.280944 C55.8026646,120.280944 55.3441982,119.820709 55.3441982,119.254131 C55.3441982,118.687553 55.8026646,118.227318 56.3681354,118.227318 C56.9344762,118.227318 57.3929426,118.687553 57.3929426,119.254131" id="Fill-21" fill="#5F9438"></path>
                    <path d="M96.8394933,119.254131 C96.8394933,119.796302 96.4010359,120.235618 95.8599238,120.235618 C95.3188117,120.235618 94.8794843,119.796302 94.8794843,119.254131 C94.8794843,118.71196 95.3188117,118.272644 95.8599238,118.272644 C96.4010359,118.272644 96.8394933,118.71196 96.8394933,119.254131" id="Fill-22" fill="#5F9438"></path>
                    <path d="M136.107877,119.254131 C136.107877,119.673398 135.768595,120.012473 135.351016,120.012473 C134.932568,120.012473 134.593285,119.673398 134.593285,119.254131 C134.593285,118.834864 134.932568,118.495789 135.351016,118.495789 C135.768595,118.495789 136.107877,118.834864 136.107877,119.254131" id="Fill-23" fill="#5F9438"></path>
                    <path d="M175.821678,119.254131 C175.821678,119.525217 175.602449,119.744874 175.331893,119.744874 C175.061337,119.744874 174.842109,119.525217 174.842109,119.254131 C174.842109,118.983045 175.061337,118.763388 175.331893,118.763388 C175.602449,118.763388 175.821678,118.983045 175.821678,119.254131" id="Fill-24" fill="#5F9438"></path>
                    <path d="M16.877391,42.739316 L16.877391,11.7466529" id="Stroke-25" stroke="#5C5D5F" stroke-width="0.25" stroke-linecap="round"></path>
                    <path d="M56.3916913,5.73309305 C56.6963804,5.73309305 56.9424717,5.61655776 57.1299726,5.38348367 C57.3174735,5.15040959 57.4112226,4.80080371 57.4112226,4.33465555 L57.4112226,4.24871805 C57.2836178,4.41278137 57.1312756,4.53712908 56.9541913,4.62176492 C56.7771071,4.70640076 56.5870049,4.74871805 56.3838788,4.74871805 C55.8526262,4.74871805 55.4359637,4.57489166 55.1338788,4.22723367 C54.831794,3.87957568 54.6807538,3.39976277 54.6807538,2.78778055 C54.6807538,2.21225684 54.8610906,1.72983979 55.2217695,1.34051492 C55.5824484,0.95119006 56.038824,0.756530548 56.5909101,0.756530548 C57.1716422,0.756530548 57.6429916,0.956398341 58.0049726,1.35613992 C58.3669536,1.75588151 58.5479413,2.31772485 58.5479413,3.0416868 L58.5479413,4.2760618 C58.5479413,5.01304465 58.3467715,5.58595559 57.9444257,5.9948118 C57.54208,6.40366801 57.024507,6.60809305 56.3916913,6.60809305 C56.1937737,6.60809305 55.9899997,6.58791096 55.7803632,6.54754617 C55.5707267,6.50718139 55.3773693,6.44793719 55.2002851,6.3698118 L55.3291913,5.54559305 C55.5036714,5.61069754 55.6729405,5.65822311 55.8370038,5.68817117 C56.0010672,5.71811924 56.1859611,5.73309305 56.3916913,5.73309305 Z M56.5752851,3.91278055 C56.7653902,3.91278055 56.9314042,3.87697361 57.073332,3.80535867 C57.2152598,3.73374373 57.3278888,3.63804156 57.4112226,3.5182493 L57.4112226,2.9088743 C57.4112226,2.49220555 57.3383067,2.17580246 57.1924726,1.95965555 C57.0466385,1.74350863 56.8487238,1.6354368 56.5987226,1.6354368 C56.3695548,1.6354368 56.1827077,1.74806588 56.0381757,1.97332742 C55.8936437,2.19858897 55.8213788,2.47007063 55.8213788,2.78778055 C55.8213788,3.13153227 55.8858313,3.40496703 56.0147382,3.60809305 C56.1436451,3.81121906 56.3304922,3.91278055 56.5752851,3.91278055 Z" id="9" fill="#545454"></path>
                    <path d="M56.3685704,42.739316 L56.3685704,11.7466529" id="Stroke-26" stroke="#5C5D5F" stroke-width="0.25" stroke-linecap="round"></path>
                    <path d="M95.5116003,1.71746805 C94.9022222,2.43101328 94.4862108,3.09637121 94.2635534,3.7135618 C94.040896,4.33075238 93.8813924,5.0755366 93.7850378,5.9479368 L93.7303503,6.5260618 L92.5897253,6.5260618 L92.6444128,5.9479368 C92.7329549,5.11199512 92.9230572,4.34442467 93.2147253,3.64520242 C93.5063934,2.94598018 93.906129,2.30340848 94.413944,1.71746805 L92.4100378,1.71746805 L92.367069,2.27996805 L91.492069,2.27996805 L91.492069,0.838561798 L95.5116003,0.838561798 L95.5116003,1.71746805 Z M97.2655065,6.5260618 L96.1287878,6.5260618 L96.1287878,5.5260618 L97.2655065,5.5260618 L97.2655065,6.5260618 Z M99.1522253,3.1979368 L99.7928503,3.1979368 C100.063685,3.1979368 100.264204,3.12697397 100.394413,2.98504617 C100.524622,2.84311838 100.589725,2.64585473 100.589725,2.3932493 C100.589725,2.16408149 100.524622,1.98048957 100.394413,1.84246805 C100.264204,1.70444652 100.075404,1.6354368 99.8280065,1.6354368 C99.6144638,1.6354368 99.4347781,1.69793617 99.288944,1.8229368 C99.14311,1.94793742 99.070194,2.11199828 99.070194,2.3151243 L97.9647253,2.3151243 L97.9569128,2.2916868 C97.9412877,1.84637207 98.1118589,1.47918824 98.4686315,1.1901243 C98.8254041,0.901060353 99.2681081,0.756530548 99.7967565,0.756530548 C100.385301,0.756530548 100.854697,0.897154142 101.20496,1.17840555 C101.555222,1.45965695 101.73035,1.86069461 101.73035,2.38153055 C101.73035,2.62892762 101.652226,2.86395131 101.495975,3.08660867 C101.339724,3.30926604 101.124883,3.48309242 100.851444,3.60809305 C101.16655,3.72007277 101.406782,3.89194606 101.572147,4.12371805 C101.737513,4.35549004 101.820194,4.6250186 101.820194,4.9323118 C101.820194,5.45314774 101.630743,5.86264885 101.251835,6.16082742 C100.872927,6.459006 100.387905,6.60809305 99.7967565,6.60809305 C99.2681081,6.60809305 98.8143365,6.46812049 98.4354284,6.18817117 C98.0565203,5.90822186 97.8735794,5.51304352 97.8866003,5.0026243 L97.8944128,4.9791868 L98.9998815,4.9791868 C98.9998815,5.19793789 99.0780057,5.37827463 99.2342565,5.52020242 C99.3905073,5.66213022 99.588422,5.73309305 99.8280065,5.73309305 C100.091029,5.73309305 100.298709,5.66017711 100.451053,5.51434305 C100.603398,5.36850899 100.679569,5.1705943 100.679569,4.92059305 C100.679569,4.62111238 100.6047,4.40171354 100.45496,4.26238992 C100.305219,4.12306631 100.084518,4.05340555 99.7928503,4.05340555 L99.1522253,4.05340555 L99.1522253,3.1979368 Z" id="7.3" fill="#545454"></path>
                    <path d="M95.8597498,42.739316 L95.8597498,11.7466529" id="Stroke-27" stroke="#5C5D5F" stroke-width="0.25" stroke-linecap="round"></path>
                    <path d="M136.077139,0.756530548 C136.290682,0.756530548 136.487946,0.776712638 136.668936,0.817077423 C136.849927,0.857442208 137.031566,0.916686408 137.213858,0.994811798 L137.014639,1.82684305 C136.850576,1.7695511 136.699536,1.72593174 136.561514,1.69598367 C136.423493,1.66603561 136.26464,1.6510618 136.084952,1.6510618 C135.746409,1.6510618 135.474927,1.77475848 135.270499,2.02215555 C135.066071,2.26955262 134.962556,2.63413231 134.959952,3.11590555 L134.971671,3.1354368 C135.099275,3.00262363 135.261383,2.89845801 135.457999,2.8229368 C135.654614,2.74741559 135.874013,2.70965555 136.116202,2.70965555 C136.624017,2.70965555 137.02245,2.88999229 137.311514,3.25067117 C137.600578,3.61135006 137.745108,4.07163192 137.745108,4.63153055 C137.745108,5.20445008 137.566724,5.6771016 137.209952,6.0494993 C136.853179,6.42189699 136.392246,6.60809305 135.827139,6.60809305 C135.228178,6.60809305 134.739902,6.40431904 134.362296,5.99676492 C133.98469,5.5892108 133.795889,5.02476332 133.795889,4.30340555 L133.795889,3.30340555 C133.795889,2.49871402 134.008778,1.87306924 134.434561,1.42645242 C134.860345,0.979835607 135.407865,0.756530548 136.077139,0.756530548 Z M135.815421,3.5729368 C135.604482,3.5729368 135.424796,3.60679063 135.276358,3.6744993 C135.12792,3.74220797 135.013338,3.83465496 134.932608,3.95184305 L134.932608,4.3307493 C134.932608,4.78127238 135.013988,5.12762309 135.176749,5.3698118 C135.33951,5.61200051 135.556305,5.73309305 135.827139,5.73309305 C136.061516,5.73309305 136.249665,5.62567225 136.391593,5.41082742 C136.53352,5.1959826 136.604483,4.93621957 136.604483,4.63153055 C136.604483,4.31642481 136.532869,4.06121902 136.389639,3.86590555 C136.246409,3.67059207 136.055005,3.5729368 135.815421,3.5729368 Z" id="6" fill="#545454"></path>
                    <path d="M135.350581,42.739316 L135.350581,11.7466529" id="Stroke-28" stroke="#5C5D5F" stroke-width="0.25" stroke-linecap="round"></path>
                    <path d="M176.281628,2.1354368 L176.180065,1.7526243 L174.648815,1.7526243 L174.488659,3.0651243 C174.59543,2.98699891 174.723033,2.92254643 174.871471,2.87176492 C175.01991,2.82098342 175.183971,2.79429098 175.363659,2.7916868 C175.910537,2.78387426 176.33371,2.94923719 176.63319,3.28778055 C176.932671,3.62632391 177.082409,4.09767336 177.082409,4.70184305 C177.082409,5.24872078 176.917697,5.70314332 176.588268,6.0651243 C176.25884,6.42710527 175.784235,6.60809305 175.16444,6.60809305 C174.643604,6.60809305 174.196994,6.46551635 173.824596,6.18035867 C173.452199,5.895201 173.272513,5.5026268 173.285534,5.0026243 L173.293346,4.98309305 L174.387096,4.92840555 C174.387096,5.18101098 174.45871,5.37827463 174.60194,5.52020242 C174.74517,5.66213022 174.932668,5.73309305 175.16444,5.73309305 C175.430067,5.73309305 175.626679,5.63804192 175.754284,5.4479368 C175.881889,5.25783168 175.94569,5.01174039 175.94569,4.70965555 C175.94569,4.38152891 175.877983,4.1185107 175.742565,3.92059305 C175.607148,3.72267539 175.405327,3.62371805 175.137096,3.62371805 C174.92095,3.62371805 174.754936,3.66408223 174.63905,3.7448118 C174.523164,3.82554137 174.440482,3.93491527 174.391003,4.0729368 L173.38319,4.00653055 L173.711315,0.838561798 L176.984753,0.838561798 L176.984753,2.1354368 L176.281628,2.1354368 Z" id="5" fill="#545454"></path>
                    <path d="M13.8070203,155.445167 L14.4476453,155.445167 C14.71848,155.445167 14.9189988,155.374204 15.0492078,155.232276 C15.1794167,155.090348 15.2445203,154.893085 15.2445203,154.640479 C15.2445203,154.411311 15.1794167,154.22772 15.0492078,154.089698 C14.9189988,153.951676 14.7301986,153.882667 14.4828015,153.882667 C14.2692588,153.882667 14.0895731,153.945166 13.943739,154.070167 C13.797905,154.195167 13.724989,154.359228 13.724989,154.562354 L12.6195203,154.562354 L12.6117078,154.538917 C12.5960827,154.093602 12.7666539,153.726418 13.1234265,153.437354 C13.4801991,153.14829 13.922903,153.00376 14.4515515,153.00376 C15.0400961,153.00376 15.5094925,153.144384 15.8597546,153.425635 C16.2100168,153.706887 16.3851453,154.107925 16.3851453,154.62876 C16.3851453,154.876158 16.307021,155.111181 16.1507703,155.333839 C15.9945195,155.556496 15.7796779,155.730322 15.506239,155.855323 C15.8213448,155.967303 16.0615767,156.139176 16.2269421,156.370948 C16.3923075,156.60272 16.474989,156.872249 16.474989,157.179542 C16.474989,157.700378 16.2855378,158.109879 15.9066296,158.408057 C15.5277215,158.706236 15.0427003,158.855323 14.4515515,158.855323 C13.922903,158.855323 13.4691315,158.71535 13.0902234,158.435401 C12.7113152,158.155452 12.5283744,157.760273 12.5413953,157.249854 L12.5492078,157.226417 L13.6546765,157.226417 C13.6546765,157.445168 13.7328007,157.625505 13.8890515,157.767432 C14.0453023,157.90936 14.243217,157.980323 14.4828015,157.980323 C14.7458237,157.980323 14.9535039,157.907407 15.1058484,157.761573 C15.2581929,157.615739 15.334364,157.417824 15.334364,157.167823 C15.334364,156.868342 15.259495,156.648943 15.1097546,156.50962 C14.9600143,156.370296 14.7393134,156.300635 14.4476453,156.300635 L13.8070203,156.300635 L13.8070203,155.445167 Z M18.303114,158.773292 L17.1663953,158.773292 L17.1663953,157.773292 L18.303114,157.773292 L18.303114,158.773292 Z M18.9867078,158.773292 L18.9867078,158.027198 L20.8265515,156.054542 C21.0921778,155.749853 21.280978,155.492694 21.3929578,155.283057 C21.5049375,155.073421 21.5609265,154.878761 21.5609265,154.699073 C21.5609265,154.459488 21.496474,154.263527 21.3675671,154.111182 C21.2386602,153.958838 21.0557194,153.882667 20.818739,153.882667 C20.5557169,153.882667 20.3558491,153.971859 20.2191296,154.150245 C20.0824102,154.328631 20.0140515,154.566259 20.0140515,154.863135 L18.9046765,154.863135 L18.896864,154.839698 C18.8838431,154.326675 19.0524612,153.892434 19.4027234,153.536964 C19.7529856,153.181493 20.224986,153.00376 20.818739,153.00376 C21.4046794,153.00376 21.8656123,153.156103 22.2015515,153.460792 C22.5374907,153.765481 22.7054578,154.171727 22.7054578,154.679542 C22.7054578,155.023293 22.6110577,155.340999 22.4222546,155.632667 C22.2334516,155.924335 21.9203037,156.304539 21.4828015,156.773292 L20.4710828,157.87876 L20.4788953,157.898292 L21.9554578,157.898292 L22.0023328,157.335792 L22.8695203,157.335792 L22.8695203,158.773292 L18.9867078,158.773292 Z" id="3.2" fill="#545454"></path>
                    <path d="M52.0928997,158.773292 L52.0928997,158.027198 L53.9327435,156.054542 C54.1983698,155.749853 54.38717,155.492694 54.4991497,155.283057 C54.6111295,155.073421 54.6671185,154.878761 54.6671185,154.699073 C54.6671185,154.459488 54.602666,154.263527 54.4737591,154.111182 C54.3448522,153.958838 54.1619113,153.882667 53.924931,153.882667 C53.6619088,153.882667 53.4620411,153.971859 53.3253216,154.150245 C53.1886022,154.328631 53.1202435,154.566259 53.1202435,154.863135 L52.0108685,154.863135 L52.003056,154.839698 C51.9900351,154.326675 52.1586532,153.892434 52.5089154,153.536964 C52.8591775,153.181493 53.331178,153.00376 53.924931,153.00376 C54.5108714,153.00376 54.9718043,153.156103 55.3077435,153.460792 C55.6436827,153.765481 55.8116497,154.171727 55.8116497,154.679542 C55.8116497,155.023293 55.7172497,155.340999 55.5284466,155.632667 C55.3396436,155.924335 55.0264957,156.304539 54.5889935,156.773292 L53.5772747,157.87876 L53.5850872,157.898292 L55.0616497,157.898292 L55.1085247,157.335792 L55.9757122,157.335792 L55.9757122,158.773292 L52.0928997,158.773292 Z M57.8702435,158.773292 L56.7335247,158.773292 L56.7335247,157.773292 L57.8702435,157.773292 L57.8702435,158.773292 Z M59.7569622,155.445167 L60.3975872,155.445167 C60.6684219,155.445167 60.8689408,155.374204 60.9991497,155.232276 C61.1293587,155.090348 61.1944622,154.893085 61.1944622,154.640479 C61.1944622,154.411311 61.1293587,154.22772 60.9991497,154.089698 C60.8689408,153.951676 60.6801406,153.882667 60.4327435,153.882667 C60.2192008,153.882667 60.0395151,153.945166 59.893681,154.070167 C59.7478469,154.195167 59.674931,154.359228 59.674931,154.562354 L58.5694622,154.562354 L58.5616497,154.538917 C58.5460247,154.093602 58.7165959,153.726418 59.0733685,153.437354 C59.4301411,153.14829 59.872845,153.00376 60.4014935,153.00376 C60.9900381,153.00376 61.4594345,153.144384 61.8096966,153.425635 C62.1599588,153.706887 62.3350872,154.107925 62.3350872,154.62876 C62.3350872,154.876158 62.256963,155.111181 62.1007122,155.333839 C61.9444615,155.556496 61.7296199,155.730322 61.456181,155.855323 C61.7712867,155.967303 62.0115187,156.139176 62.1768841,156.370948 C62.3422495,156.60272 62.424931,156.872249 62.424931,157.179542 C62.424931,157.700378 62.2354798,158.109879 61.8565716,158.408057 C61.4776635,158.706236 60.9926423,158.855323 60.4014935,158.855323 C59.872845,158.855323 59.4190735,158.71535 59.0401654,158.435401 C58.6612572,158.155452 58.4783163,157.760273 58.4913372,157.249854 L58.4991497,157.226417 L59.6046185,157.226417 C59.6046185,157.445168 59.6827427,157.625505 59.8389935,157.767432 C59.9952443,157.90936 60.193159,157.980323 60.4327435,157.980323 C60.6957656,157.980323 60.9034459,157.907407 61.0557904,157.761573 C61.2081349,157.615739 61.284306,157.417824 61.284306,157.167823 C61.284306,156.868342 61.209437,156.648943 61.0596966,156.50962 C60.9099563,156.370296 60.6892554,156.300635 60.3975872,156.300635 L59.7569622,156.300635 L59.7569622,155.445167 Z" id="2.3" fill="#545454"></path>
                    <path d="M91.5610253,158.773292 L91.5610253,158.027198 L93.4008691,156.054542 C93.6664954,155.749853 93.8552956,155.492694 93.9672753,155.283057 C94.079255,155.073421 94.1352441,154.878761 94.1352441,154.699073 C94.1352441,154.459488 94.0707916,154.263527 93.9418847,154.111182 C93.8129778,153.958838 93.6300369,153.882667 93.3930566,153.882667 C93.1300344,153.882667 92.9301666,153.971859 92.7934472,154.150245 C92.6567277,154.328631 92.5883691,154.566259 92.5883691,154.863135 L91.4789941,154.863135 L91.4711816,154.839698 C91.4581607,154.326675 91.6267788,153.892434 91.9770409,153.536964 C92.3273031,153.181493 92.7993036,153.00376 93.3930566,153.00376 C93.978997,153.00376 94.4399299,153.156103 94.7758691,153.460792 C95.1118082,153.765481 95.2797753,154.171727 95.2797753,154.679542 C95.2797753,155.023293 95.1853752,155.340999 94.9965722,155.632667 C94.8077692,155.924335 94.4946212,156.304539 94.0571191,156.773292 L93.0454003,157.87876 L93.0532128,157.898292 L94.5297753,157.898292 L94.5766503,157.335792 L95.4438378,157.335792 L95.4438378,158.773292 L91.5610253,158.773292 Z M97.3383691,158.773292 L96.2016503,158.773292 L96.2016503,157.773292 L97.3383691,157.773292 L97.3383691,158.773292 Z M98.0219628,158.773292 L98.0219628,158.027198 L99.8618066,156.054542 C100.127433,155.749853 100.316233,155.492694 100.428213,155.283057 C100.540193,155.073421 100.596182,154.878761 100.596182,154.699073 C100.596182,154.459488 100.531729,154.263527 100.402822,154.111182 C100.273915,153.958838 100.090974,153.882667 99.8539941,153.882667 C99.5909719,153.882667 99.3911041,153.971859 99.2543847,154.150245 C99.1176652,154.328631 99.0493066,154.566259 99.0493066,154.863135 L97.9399316,154.863135 L97.9321191,154.839698 C97.9190982,154.326675 98.0877163,153.892434 98.4379784,153.536964 C98.7882406,153.181493 99.2602411,153.00376 99.8539941,153.00376 C100.439934,153.00376 100.900867,153.156103 101.236807,153.460792 C101.572746,153.765481 101.740713,154.171727 101.740713,154.679542 C101.740713,155.023293 101.646313,155.340999 101.45751,155.632667 C101.268707,155.924335 100.955559,156.304539 100.518057,156.773292 L99.5063378,157.87876 L99.5141503,157.898292 L100.990713,157.898292 L101.037588,157.335792 L101.904775,157.335792 L101.904775,158.773292 L98.0219628,158.773292 Z" id="2.2" fill="#545454"></path>
                    <path d="M131.505955,158.089698 L132.466892,157.97251 L132.466892,154.120948 L131.494236,154.120948 L131.494236,153.468604 L133.603611,153.085792 L133.603611,157.97251 L134.564548,158.089698 L134.564548,158.773292 L131.505955,158.773292 L131.505955,158.089698 Z M136.42783,158.773292 L135.291111,158.773292 L135.291111,157.773292 L136.42783,157.773292 L136.42783,158.773292 Z M141.037205,153.964698 C140.427827,154.678243 140.011815,155.343601 139.789158,155.960792 C139.5665,156.577982 139.406997,157.322767 139.310642,158.195167 L139.255955,158.773292 L138.11533,158.773292 L138.170017,158.195167 C138.258559,157.359225 138.448662,156.591655 138.74033,155.892432 C139.031998,155.19321 139.431733,154.550638 139.939548,153.964698 L137.935642,153.964698 L137.892673,154.527198 L137.017673,154.527198 L137.017673,153.085792 L141.037205,153.085792 L141.037205,153.964698 Z" id="1.7" fill="#545454"></path>
                    <path d="M171.482134,158.089698 L172.443072,157.97251 L172.443072,154.120948 L171.470415,154.120948 L171.470415,153.468604 L173.57979,153.085792 L173.57979,157.97251 L174.540728,158.089698 L174.540728,158.773292 L171.482134,158.773292 L171.482134,158.089698 Z M176.404009,158.773292 L175.26729,158.773292 L175.26729,157.773292 L176.404009,157.773292 L176.404009,158.773292 Z M177.056353,158.089698 L178.01729,157.97251 L178.01729,154.120948 L177.044634,154.120948 L177.044634,153.468604 L179.154009,153.085792 L179.154009,157.97251 L180.114947,158.089698 L180.114947,158.773292 L177.056353,158.773292 L177.056353,158.089698 Z" id="1.1" fill="#545454"></path>
                    <path d="M174.841935,42.739316 L174.841935,11.7466529" id="Stroke-29" stroke="#5C5D5F" stroke-width="0.25" stroke-linecap="round"></path>
                    <path d="M16.877391,150.260828 L16.877391,119.268165" id="Stroke-30" stroke="#5C5D5F" stroke-width="0.25" stroke-linecap="round"></path>
                    <path d="M56.3685704,150.260828 L56.3685704,119.268165" id="Stroke-31" stroke="#5C5D5F" stroke-width="0.25" stroke-linecap="round"></path>
                    <path d="M95.8597498,150.260828 L95.8597498,119.268165" id="Stroke-32" stroke="#5C5D5F" stroke-width="0.25" stroke-linecap="round"></path>
                    <path d="M135.350581,150.260828 L135.350581,119.268165" id="Stroke-33" stroke="#5C5D5F" stroke-width="0.25" stroke-linecap="round"></path>
                    <path d="M175.332067,150.260828 L175.332067,119.268165" id="Stroke-34" stroke="#5C5D5F" stroke-width="0.25" stroke-linecap="round"></path>
                </g>
            </g>
        </g>
        <g id="Group-5" mask="url(#mask-2)">
            <g transform="translate(36.000000, 90.000000)">
                <rect id="Rectangle-4" fill-opacity="0.720000029" fill="#FFFFFF" x="0" y="0" width="184" height="76"></rect>
                <path d="M21.956,16.2 L33.908,16.2 L33.908,17.352 L23.204,17.352 L23.204,23.952 L32.828,23.952 L32.828,25.104 L23.204,25.104 L23.204,31.848 L34.028,31.848 L34.028,33 L21.956,33 L21.956,16.2 Z M49.412,27.168 L44.996,17.448 L40.556,27.168 L49.412,27.168 Z M44.42,16.08 L45.62,16.08 L53.444,33 L52.076,33 L49.94,28.296 L40.028,28.296 L37.892,33 L36.596,33 L44.42,16.08 Z M61.652,17.352 L55.796,17.352 L55.796,16.2 L68.756,16.2 L68.756,17.352 L62.9,17.352 L62.9,33 L61.652,33 L61.652,17.352 Z M87.452,33.288 C86.1239934,33.288 84.9360052,33.0600023 83.888,32.604 C82.8399948,32.1479977 81.9560036,31.5280039 81.236,30.744 C80.5159964,29.9599961 79.9640019,29.0440052 79.58,27.996 C79.1959981,26.9479948 79.004,25.8320059 79.004,24.648 L79.004,24.6 C79.004,23.4639943 79.199998,22.3720052 79.592,21.324 C79.984002,20.2759948 80.5439964,19.352004 81.272,18.552 C82.0000036,17.751996 82.8759949,17.1120024 83.9,16.632 C84.9240051,16.1519976 86.0599938,15.912 87.308,15.912 C87.9960034,15.912 88.6239972,15.9599995 89.192,16.056 C89.7600028,16.1520005 90.2879976,16.295999 90.776,16.488 C91.2640024,16.680001 91.7279978,16.9119986 92.168,17.184 C92.6080022,17.4560014 93.0359979,17.7679982 93.452,18.12 L92.636,19.056 C91.9799967,18.4799971 91.2320042,18.0000019 90.392,17.616 C89.5519958,17.2319981 88.5000063,17.04 87.236,17.04 C86.2119949,17.04 85.2760042,17.239998 84.428,17.64 C83.5799958,18.040002 82.8480031,18.5839966 82.232,19.272 C81.6159969,19.9600034 81.1400017,20.7599954 80.804,21.672 C80.4679983,22.5840046 80.3,23.543995 80.3,24.552 L80.3,24.6 C80.3,25.6880054 80.4639984,26.6959954 80.792,27.624 C81.1200016,28.5520046 81.5959969,29.3519966 82.22,30.024 C82.8440031,30.6960034 83.5999956,31.2239981 84.488,31.608 C85.3760044,31.9920019 86.3799944,32.184 87.5,32.184 C88.0280026,32.184 88.5479974,32.1320005 89.06,32.028 C89.5720026,31.9239995 90.0559977,31.7840009 90.512,31.608 C90.9680023,31.4319991 91.395998,31.2280012 91.796,30.996 C92.196002,30.7639988 92.5479985,30.5200013 92.852,30.264 L92.852,25.44 L87.236,25.44 L87.236,24.288 L94.052,24.288 L94.052,30.768 C93.2839962,31.4400034 92.3360056,32.0279975 91.208,32.532 C90.0799944,33.0360025 88.8280069,33.288 87.452,33.288 Z M105.476,24.912 C106.180004,24.912 106.831997,24.8240009 107.432,24.648 C108.032003,24.4719991 108.547998,24.2200016 108.98,23.892 C109.412002,23.5639984 109.751999,23.1640024 110,22.692 C110.248001,22.2199976 110.372,21.680003 110.372,21.072 L110.372,21.024 C110.372,19.8879943 109.952004,18.9920033 109.112,18.336 C108.271996,17.6799967 107.084008,17.352 105.548,17.352 L99.812,17.352 L99.812,24.912 L105.476,24.912 Z M98.564,16.2 L105.62,16.2 C106.660005,16.2 107.579996,16.3479985 108.38,16.644 C109.180004,16.9400015 109.835997,17.3439974 110.348,17.856 C110.748002,18.256002 111.059999,18.7239973 111.284,19.26 C111.508001,19.7960027 111.62,20.367997 111.62,20.976 L111.62,21.024 C111.62,21.7280035 111.496001,22.3559972 111.248,22.908 C110.999999,23.4600028 110.656002,23.935998 110.216,24.336 C109.775998,24.736002 109.256003,25.0599988 108.656,25.308 C108.055997,25.5560012 107.404004,25.7279995 106.7,25.824 L112.244,33 L110.66,33 L105.308,26.04 L99.812,26.04 L99.812,33 L98.564,33 L98.564,16.2 Z M115.916,16.2 L127.868,16.2 L127.868,17.352 L117.164,17.352 L117.164,23.952 L126.788,23.952 L126.788,25.104 L117.164,25.104 L117.164,31.848 L127.988,31.848 L127.988,33 L115.916,33 L115.916,16.2 Z M131.996,16.2 L143.948,16.2 L143.948,17.352 L133.244,17.352 L133.244,23.952 L142.868,23.952 L142.868,25.104 L133.244,25.104 L133.244,31.848 L144.068,31.848 L144.068,33 L131.996,33 L131.996,16.2 Z M148.076,16.2 L149.252,16.2 L160.844,30.816 L160.844,16.2 L162.044,16.2 L162.044,33 L161.108,33 L149.276,18.072 L149.276,33 L148.076,33 L148.076,16.2 Z M26.372,61.24 C25.0279933,61.24 23.8160054,61.0160022 22.736,60.568 C21.6559946,60.1199978 20.612005,59.4480045 19.604,58.552 L20.42,57.616 C20.8840023,58.0480022 21.3439977,58.4199984 21.8,58.732 C22.2560023,59.0440016 22.7239976,59.299999 23.204,59.5 C23.6840024,59.700001 24.1879974,59.8519995 24.716,59.956 C25.2440026,60.0600005 25.8199969,60.112 26.444,60.112 C27.0680031,60.112 27.6439974,60.0280008 28.172,59.86 C28.7000026,59.6919992 29.1479982,59.4600015 29.516,59.164 C29.8840018,58.8679985 30.171999,58.516002 30.38,58.108 C30.588001,57.699998 30.692,57.2560024 30.692,56.776 L30.692,56.728 C30.692,56.2799978 30.6240007,55.8800018 30.488,55.528 C30.3519993,55.1759982 30.1040018,54.8560014 29.744,54.568 C29.3839982,54.2799986 28.900003,54.0200012 28.292,53.788 C27.683997,53.5559988 26.9000048,53.344001 25.94,53.152 C24.931995,52.943999 24.0680036,52.7000014 23.348,52.42 C22.6279964,52.1399986 22.0400023,51.8120019 21.584,51.436 C21.1279977,51.0599981 20.796001,50.6240025 20.588,50.128 C20.379999,49.6319975 20.276,49.0640032 20.276,48.424 L20.276,48.376 C20.276,47.7519969 20.4119986,47.1720027 20.684,46.636 C20.9560014,46.0999973 21.3319976,45.632002 21.812,45.232 C22.2920024,44.831998 22.8599967,44.5200011 23.516,44.296 C24.1720033,44.0719989 24.8919961,43.96 25.676,43.96 C26.8920061,43.96 27.9439956,44.1279983 28.832,44.464 C29.7200044,44.8000017 30.5879958,45.3119966 31.436,46 L30.644,46.984 C29.843996,46.2959966 29.040004,45.8080014 28.232,45.52 C27.423996,45.2319986 26.5560046,45.088 25.628,45.088 C25.0039969,45.088 24.4400025,45.1719992 23.936,45.34 C23.4319975,45.5080008 23.0000018,45.7359986 22.64,46.024 C22.2799982,46.3120014 22.004001,46.6479981 21.812,47.032 C21.619999,47.4160019 21.524,47.8239978 21.524,48.256 L21.524,48.304 C21.524,48.7520022 21.5919993,49.1559982 21.728,49.516 C21.8640007,49.8760018 22.1119982,50.2039985 22.472,50.5 C22.8320018,50.7960015 23.3319968,51.0639988 23.972,51.304 C24.6120032,51.5440012 25.427995,51.767999 26.42,51.976 C28.3720098,52.376002 29.7799957,52.9399964 30.644,53.668 C31.5080043,54.3960036 31.94,55.3759938 31.94,56.608 L31.94,56.656 C31.94,57.3280034 31.8000014,57.9479972 31.52,58.516 C31.2399986,59.0840028 30.8560024,59.567998 30.368,59.968 C29.8799976,60.368002 29.2960034,60.6799989 28.616,60.904 C27.9359966,61.1280011 27.1880041,61.24 26.372,61.24 Z M40.7,45.352 L34.844,45.352 L34.844,44.2 L47.804,44.2 L47.804,45.352 L41.948,45.352 L41.948,61 L40.7,61 L40.7,45.352 Z M62.972,55.168 L58.556,45.448 L54.116,55.168 L62.972,55.168 Z M57.98,44.08 L59.18,44.08 L67.004,61 L65.636,61 L63.5,56.296 L53.588,56.296 L51.452,61 L50.156,61 L57.98,44.08 Z M76.028,54.352 L68.828,44.2 L70.388,44.2 L76.676,53.224 L82.988,44.2 L84.476,44.2 L77.276,54.328 L77.276,61 L76.028,61 L76.028,54.352 Z M102.548,61.288 C101.347994,61.288 100.236005,61.0640022 99.212,60.616 C98.1879949,60.1679978 97.3040037,59.5560039 96.56,58.78 C95.8159963,58.0039961 95.2360021,57.0880053 94.82,56.032 C94.4039979,54.9759947 94.196,53.848006 94.196,52.648 L94.196,52.6 C94.196,51.4159941 94.4079979,50.2960053 94.832,49.24 C95.2560021,48.1839947 95.8399963,47.260004 96.584,46.468 C97.3280037,45.675996 98.2119949,45.0520023 99.236,44.596 C100.260005,44.1399977 101.379994,43.912 102.596,43.912 C103.348004,43.912 104.027997,43.9759994 104.636,44.104 C105.244003,44.2320006 105.807997,44.4159988 106.328,44.656 C106.848003,44.8960012 107.335998,45.1799984 107.792,45.508 C108.248002,45.8360016 108.691998,46.199998 109.124,46.6 L108.236,47.512 C107.867998,47.1599982 107.484002,46.8320015 107.084,46.528 C106.683998,46.2239985 106.256002,45.9640011 105.8,45.748 C105.343998,45.5319989 104.848003,45.3600006 104.312,45.232 C103.775997,45.1039994 103.196003,45.04 102.572,45.04 C101.563995,45.04 100.628004,45.2319981 99.764,45.616 C98.8999957,46.0000019 98.1520032,46.5319966 97.52,47.212 C96.8879968,47.8920034 96.3920018,48.6879954 96.032,49.6 C95.6719982,50.5120046 95.492,51.4959947 95.492,52.552 L95.492,52.6 C95.492,53.6560053 95.6759982,54.6439954 96.044,55.564 C96.4120018,56.4840046 96.9119968,57.2839966 97.544,57.964 C98.1760032,58.6440034 98.9239957,59.179998 99.788,59.572 C100.652004,59.964002 101.587995,60.16 102.596,60.16 C103.812006,60.16 104.867996,59.9360022 105.764,59.488 C106.660004,59.0399978 107.531996,58.3920042 108.38,57.544 L109.22,58.36 C108.771998,58.7920022 108.312002,59.1879982 107.84,59.548 C107.367998,59.9080018 106.864003,60.2159987 106.328,60.472 C105.791997,60.7280013 105.212003,60.9279993 104.588,61.072 C103.963997,61.2160007 103.284004,61.288 102.548,61.288 Z M120.38,60.16 C121.420005,60.16 122.375996,59.964002 123.248,59.572 C124.120004,59.179998 124.871997,58.6440034 125.504,57.964 C126.136003,57.2839966 126.627998,56.4880046 126.98,55.576 C127.332002,54.6639954 127.508,53.6880052 127.508,52.648 L127.508,52.6 C127.508,51.5599948 127.328002,50.5800046 126.968,49.66 C126.607998,48.7399954 126.112003,47.9400034 125.48,47.26 C124.847997,46.5799966 124.092004,46.040002 123.212,45.64 C122.331996,45.239998 121.372005,45.04 120.332,45.04 C119.291995,45.04 118.336004,45.235998 117.464,45.628 C116.591996,46.020002 115.840003,46.5559966 115.208,47.236 C114.575997,47.9160034 114.084002,48.7119954 113.732,49.624 C113.379998,50.5360046 113.204,51.5119948 113.204,52.552 L113.204,52.6 C113.204,53.6400052 113.383998,54.6199954 113.744,55.54 C114.104002,56.4600046 114.599997,57.2599966 115.232,57.94 C115.864003,58.6200034 116.619996,59.159998 117.5,59.56 C118.380004,59.960002 119.339995,60.16 120.38,60.16 Z M120.332,61.288 C119.051994,61.288 117.896005,61.0520024 116.864,60.58 C115.831995,60.1079976 114.948004,59.476004 114.212,58.684 C113.475996,57.891996 112.908002,56.9760052 112.508,55.936 C112.107998,54.8959948 111.908,53.8000058 111.908,52.648 L111.908,52.6 C111.908,51.4479942 112.111998,50.3480052 112.52,49.3 C112.928002,48.2519948 113.499996,47.328004 114.236,46.528 C114.972004,45.727996 115.859995,45.0920024 116.9,44.62 C117.940005,44.1479976 119.099994,43.912 120.38,43.912 C121.644006,43.912 122.795995,44.1479976 123.836,44.62 C124.876005,45.0920024 125.763996,45.723996 126.5,46.516 C127.236004,47.308004 127.803998,48.2239948 128.204,49.264 C128.604002,50.3040052 128.804,51.3999942 128.804,52.552 C128.82,52.5680001 128.82,52.5839999 128.804,52.6 C128.804,53.7520058 128.600002,54.8519948 128.192,55.9 C127.783998,56.9480052 127.212004,57.871996 126.476,58.672 C125.739996,59.472004 124.848005,60.1079976 123.8,60.58 C122.751995,61.0520024 121.596006,61.288 120.332,61.288 Z M140.78,60.16 C141.820005,60.16 142.775996,59.964002 143.648,59.572 C144.520004,59.179998 145.271997,58.6440034 145.904,57.964 C146.536003,57.2839966 147.027998,56.4880046 147.38,55.576 C147.732002,54.6639954 147.908,53.6880052 147.908,52.648 L147.908,52.6 C147.908,51.5599948 147.728002,50.5800046 147.368,49.66 C147.007998,48.7399954 146.512003,47.9400034 145.88,47.26 C145.247997,46.5799966 144.492004,46.040002 143.612,45.64 C142.731996,45.239998 141.772005,45.04 140.732,45.04 C139.691995,45.04 138.736004,45.235998 137.864,45.628 C136.991996,46.020002 136.240003,46.5559966 135.608,47.236 C134.975997,47.9160034 134.484002,48.7119954 134.132,49.624 C133.779998,50.5360046 133.604,51.5119948 133.604,52.552 L133.604,52.6 C133.604,53.6400052 133.783998,54.6199954 134.144,55.54 C134.504002,56.4600046 134.999997,57.2599966 135.632,57.94 C136.264003,58.6200034 137.019996,59.159998 137.9,59.56 C138.780004,59.960002 139.739995,60.16 140.78,60.16 Z M140.732,61.288 C139.451994,61.288 138.296005,61.0520024 137.264,60.58 C136.231995,60.1079976 135.348004,59.476004 134.612,58.684 C133.875996,57.891996 133.308002,56.9760052 132.908,55.936 C132.507998,54.8959948 132.308,53.8000058 132.308,52.648 L132.308,52.6 C132.308,51.4479942 132.511998,50.3480052 132.92,49.3 C133.328002,48.2519948 133.899996,47.328004 134.636,46.528 C135.372004,45.727996 136.259995,45.0920024 137.3,44.62 C138.340005,44.1479976 139.499994,43.912 140.78,43.912 C142.044006,43.912 143.195995,44.1479976 144.236,44.62 C145.276005,45.0920024 146.163996,45.723996 146.9,46.516 C147.636004,47.308004 148.203998,48.2239948 148.604,49.264 C149.004002,50.3040052 149.204,51.3999942 149.204,52.552 C149.22,52.5680001 149.22,52.5839999 149.204,52.6 C149.204,53.7520058 149.000002,54.8519948 148.592,55.9 C148.183998,56.9480052 147.612004,57.871996 146.876,58.672 C146.139996,59.472004 145.248005,60.1079976 144.2,60.58 C143.151995,61.0520024 141.996006,61.288 140.732,61.288 Z M153.452,44.2 L154.7,44.2 L154.7,59.848 L164.564,59.848 L164.564,61 L153.452,61 L153.452,44.2 Z" id="EAT-GREEN-STAY-COOL" fill="#3A3A3A"></path>
            </g>
        </g>
    </g>
</svg>