<svg width="256px" height="256px" viewBox="0 0 256 256" version="1.1" xmlns="http://www.w3.org/2000/svg" xmlns:xlink="http://www.w3.org/1999/xlink">
    <!-- Generator: Sketch 43.1 (39012) - http://www.bohemiancoding.com/sketch -->
    <desc>Created with Sketch.</desc>
    <defs>
        <rect id="path-1" x="0" y="0" width="256" height="256"></rect>
    </defs>
    <g id="Page-1" stroke="none" stroke-width="1" fill="none" fill-rule="evenodd">
        <g id="Desktop" transform="translate(0.000000, -642.000000)">
            <g id="Group-4" transform="translate(0.000000, 642.000000)">
                <mask id="mask-2" fill="white">
                    <use xlink:href="#path-1"></use>
                </mask>
                <g id="Rectangle-2-Copy-3"></g>
                <rect id="Rectangle-2-Copy-6" fill="#4F809E" mask="url(#mask-2)" x="-5" y="-5" width="265" height="265"></rect>
                <g id="care" mask="url(#mask-2)">
                    <g transform="translate(32.000000, 108.000000)" id="Group">
                        <g>
                            <path d="M19.9922817,0.018444748 C8.97499812,0.018444748 0.0116609183,8.98178199 0.0116609183,19.9990655 C0.0116609183,31.016349 8.97499816,39.9796862 19.9922817,39.9796862 C31.0095652,39.9796862 39.9729024,31.016349 39.9729024,19.9990655 C39.9729024,8.98178199 31.0095652,0.018444748 19.9922817,0.018444748 Z M19.9922817,38.7163328 C9.67157975,38.7163328 1.27501433,30.3197216 1.27501433,19.9990655 C1.27501433,9.67840941 9.67157975,1.28179816 19.9922817,1.28179816 C30.3129836,1.28179816 38.709549,9.67840941 38.709549,19.9990655 C38.709549,30.3197216 30.3129377,38.7163328 19.9922817,38.7163328 Z" id="Shape" stroke="#FFFFFF" fill="#FFFFFF" fill-rule="nonzero"></path>
                            <path d="M34.1373298,23.1917808 L34.1362297,23.1897182 C33.9874893,22.7335963 33.7239737,22.3088727 33.3757058,21.9619341 C33.0232668,21.6098617 32.5955638,21.3480878 32.1398086,21.2040228 C31.6273075,21.0400647 31.0920256,21.0253969 30.5898378,21.161028 C30.1299115,21.2840081 29.6959746,21.5194258 29.2990739,21.8610015 L29.2887606,21.8704897 L28.9880713,22.1774128 L28.8402018,22.0292224 L28.8248007,22.0134546 L28.8185669,22.0071291 C28.3793588,21.5824972 27.8926638,21.2965673 27.3719121,21.1567651 C26.8717411,21.0242968 26.3375134,21.0411189 25.827075,21.203977 C25.3661403,21.3501046 24.9382539,21.6118785 24.5900777,21.9629424 C24.2397472,22.3130438 23.9762315,22.7365757 23.8274912,23.1896264 L23.8274912,23.1906348 C23.6642664,23.695252 23.6476276,24.2040403 23.7768415,24.7033404 L23.7768415,24.705403 C23.9071555,25.1962692 24.1890976,25.6756761 24.5942489,26.0908657 L28.9787206,30.5507847 L33.3291814,26.128681 L33.3549875,26.1086962 L33.3726347,26.0908657 C33.7693978,25.6829641 34.0515233,25.2046573 34.185825,24.7064573 L34.1869251,24.7032946 C34.3171016,24.207249 34.2995462,23.6995607 34.1373298,23.1917808 Z" id="Shape" fill="#FFFFFF" fill-rule="nonzero"></path>
                            <path d="M25.0147556,19.4273891 C24.8871918,19.1763869 24.6380689,19.014583 24.3556684,19.014583 L13.8288385,19.0145831 C13.4401426,19.0145831 13.1111262,19.3492833 13.1111262,19.744763 C13.1111262,20.140197 13.4401426,20.4748055 13.8288385,20.4748055 L23.1239424,20.4748055 C23.5827686,20.0288136 24.1376229,19.6940217 24.7347386,19.5047158 C24.8274665,19.475151 24.9209277,19.4498033 25.0147556,19.4273891 Z" id="Shape" fill="#FFFFFF" fill-rule="nonzero"></path>
                            <path d="M13.1111261,15.7900112 C13.1111261,16.1855368 13.4401426,16.5200994 13.8288385,16.5200994 L24.385554,16.5200994 C24.7744333,16.5200994 25.103358,16.1854909 25.103358,15.7900112 C25.103358,15.3945314 24.7744333,15.0599229 24.385554,15.0599229 L13.8288385,15.0599229 C13.4401426,15.0599229 13.1111261,15.3945314 13.1111261,15.7900112 Z" id="Shape" fill="#FFFFFF" fill-rule="nonzero"></path>
                            <path d="M26.8379136,30.0879708 L11.7054495,30.0879708 C10.8681948,30.0879708 9.94110002,29.5098773 9.94110002,28.6581381 L9.94110002,12.2003492 C9.94110002,11.3485185 10.5093386,10.7705166 11.3467767,10.7705166 L13.1111261,10.7705166 C13.4999137,10.7705166 13.649525,10.374991 13.649525,9.97951122 C13.649525,9.58403144 13.4999596,9.34068399 13.1111261,9.34068399 L11.3467767,9.34068399 C9.37286141,9.34068399 8.5354692,10.5879029 8.5354692,12.230739 L8.5354692,28.5060059 C8.5354692,30.2703553 9.58219798,31.5175742 11.4961587,31.5175742 L26.6882565,31.5175742 C27.2537908,31.5175742 27.7414025,31.4250298 28.1508166,31.2467705 L27.0033844,30.0796285 C26.9494804,30.0848081 26.8943845,30.0879708 26.8379136,30.0879708 Z" id="Shape" stroke="#FFFFFF" stroke-width="0.3" fill="#FFFFFF" fill-rule="nonzero"></path>
                            <path d="M16.6698482,11.1356525 L21.5745216,11.1356525 C22.1427602,11.1356525 22.6212503,10.5576506 22.6212503,9.8883419 C22.6212503,9.21912488 22.1427602,8.64103135 21.5446818,8.64103135 L16.6698482,8.64103131 C16.0717699,8.64103131 15.5933713,9.21912484 15.5933713,9.88834186 C15.5933713,10.5576506 16.0717699,11.1356525 16.6698482,11.1356525 Z" id="Shape" fill="#FFFFFF" fill-rule="nonzero"></path>
                            <path d="M28.7703924,20.5944395 L28.7912023,20.6157077 L28.9901798,20.8152353 L29.3950103,20.4020167 L29.4088529,20.389274 C29.4877381,20.3213439 29.5679983,20.2575391 29.6490835,20.1958886 L29.6490836,12.2307849 C29.6490836,10.5879488 28.6621718,9.34072985 26.8379595,9.34072985 L25.4322828,9.34072981 C25.0434952,9.34072981 24.5949364,9.58403144 24.5949364,9.97955704 C24.5949364,10.3750826 25.0434494,10.7705624 25.4322828,10.7705624 L26.8379595,10.7705624 C27.6753058,10.7705624 28.2435445,11.3485643 28.2435445,12.2003951 L28.2435445,20.1466599 C28.4209786,20.2784865 28.5943333,20.4237891 28.7620043,20.5859597 L28.7703924,20.5944395 Z" id="Shape" stroke="#FFFFFF" stroke-width="0.3" fill="#FFFFFF" fill-rule="nonzero"></path>
                            <path d="M21.9746309,24.2156829 C21.896525,23.913756 21.8602681,23.6092623 21.861414,23.3038976 L13.8288385,23.3038976 C13.4401426,23.3038976 13.1111262,23.6386895 13.1111262,24.0341692 C13.1111262,24.4296948 13.4401426,24.7642117 13.8288385,24.7642117 L22.1689789,24.7642117 C22.089452,24.5844398 22.0234013,24.4021928 21.9746309,24.2185248 L21.9746309,24.2156829 Z" id="Shape" fill="#FFFFFF" fill-rule="nonzero"></path>
                        </g>
                    </g>
                </g>
                <path d="M80.6445312,119 L80.6445312,116.9375 L87.7109375,116.9375 L87.7109375,119 L85.8828125,119.351562 L85.8828125,131.597656 L87.7109375,131.949219 L87.7109375,134 L80.6445312,134 L80.6445312,131.949219 L82.4726562,131.597656 L82.4726562,119.351562 L80.6445312,119 Z M88.90625,131.949219 L90.546875,131.597656 L90.546875,123.734375 L88.7304688,123.382812 L88.7304688,121.320312 L93.734375,121.320312 L93.8867188,123.136719 C94.3085959,122.488278 94.8281219,121.984377 95.4453125,121.625 C96.0625031,121.265623 96.7539024,121.085938 97.5195312,121.085938 C98.8007877,121.085938 99.8007777,121.488277 100.519531,122.292969 C101.238285,123.09766 101.597656,124.359366 101.597656,126.078125 L101.597656,131.597656 L103.238281,131.949219 L103.238281,134 L96.6992188,134 L96.6992188,131.949219 L98.1640625,131.597656 L98.1640625,126.089844 C98.1640625,125.238277 97.9921892,124.634767 97.6484375,124.279297 C97.3046858,123.923826 96.7851597,123.746094 96.0898438,123.746094 C95.6367165,123.746094 95.2304705,123.83789 94.8710938,124.021484 C94.511717,124.205079 94.2109387,124.464842 93.96875,124.800781 L93.96875,131.597656 L95.3515625,131.949219 L95.3515625,134 L88.90625,134 L88.90625,131.949219 Z M110.164062,131.621094 C110.773441,131.621094 111.261717,131.443361 111.628906,131.087891 C111.996096,130.73242 112.179688,130.257815 112.179688,129.664062 L115.273438,129.664062 L115.308594,129.734375 C115.339844,131.015631 114.85938,132.087886 113.867188,132.951172 C112.874995,133.814457 111.640632,134.246094 110.164062,134.246094 C108.273428,134.246094 106.816411,133.648443 105.792969,132.453125 C104.769526,131.257807 104.257812,129.722666 104.257812,127.847656 L104.257812,127.496094 C104.257812,125.628897 104.783198,124.093756 105.833984,122.890625 C106.884771,121.687494 108.382803,121.085938 110.328125,121.085938 C111.351568,121.085938 112.269527,121.23828 113.082031,121.542969 C113.894535,121.847658 114.57031,122.277341 115.109375,122.832031 L115.15625,126.21875 L112.378906,126.21875 L111.816406,124.238281 C111.64453,124.089843 111.433595,123.966797 111.183594,123.869141 C110.933593,123.771484 110.648439,123.722656 110.328125,123.722656 C109.35937,123.722656 108.675783,124.074215 108.277344,124.777344 C107.878904,125.480472 107.679688,126.386713 107.679688,127.496094 L107.679688,127.847656 C107.679688,128.980474 107.863279,129.892575 108.230469,130.583984 C108.597658,131.275394 109.242183,131.621094 110.164062,131.621094 Z M116.75,131.949219 L118.402344,131.597656 L118.402344,123.734375 L116.574219,123.382812 L116.574219,121.320312 L121.824219,121.320312 L121.824219,131.597656 L123.464844,131.949219 L123.464844,134 L116.75,134 L116.75,131.949219 Z M121.824219,118.285156 L118.402344,118.285156 L118.402344,115.71875 L121.824219,115.71875 L121.824219,118.285156 Z M132.839844,132.453125 C132.441404,133.039065 131.970706,133.484373 131.427734,133.789062 C130.884763,134.093752 130.265628,134.246094 129.570312,134.246094 C128.007805,134.246094 126.794926,133.675787 125.931641,132.535156 C125.068355,131.394526 124.636719,129.886728 124.636719,128.011719 L124.636719,127.765625 C124.636719,125.765615 125.070308,124.15235 125.9375,122.925781 C126.804692,121.699213 128.02343,121.085938 129.59375,121.085938 C130.226566,121.085938 130.796872,121.224608 131.304688,121.501953 C131.812503,121.779298 132.257811,122.171872 132.640625,122.679688 L132.640625,118.132812 L130.8125,117.78125 L130.8125,115.71875 L136.0625,115.71875 L136.0625,131.597656 L137.703125,131.949219 L137.703125,134 L133.097656,134 L132.839844,132.453125 Z M128.058594,128.011719 C128.058594,129.121099 128.244139,129.994137 128.615234,130.630859 C128.98633,131.267581 129.593746,131.585938 130.4375,131.585938 C130.937502,131.585938 131.371092,131.484376 131.738281,131.28125 C132.105471,131.078124 132.406249,130.785158 132.640625,130.402344 L132.640625,125.023438 C132.406249,124.617185 132.107424,124.302735 131.744141,124.080078 C131.380858,123.857421 130.953127,123.746094 130.460938,123.746094 C129.624996,123.746094 129.015627,124.117184 128.632812,124.859375 C128.249998,125.601566 128.058594,126.570307 128.058594,127.765625 L128.058594,128.011719 Z M144.863281,134.246094 C143.035147,134.246094 141.574224,133.660162 140.480469,132.488281 C139.386713,131.3164 138.839844,129.828134 138.839844,128.023438 L138.839844,127.554688 C138.839844,125.671866 139.357417,124.1211 140.392578,122.902344 C141.42774,121.683588 142.816398,121.078125 144.558594,121.085938 C146.26954,121.085938 147.597652,121.601557 148.542969,122.632812 C149.488286,123.664068 149.960938,125.058585 149.960938,126.816406 L149.960938,128.679688 L142.390625,128.679688 L142.367188,128.75 C142.429688,129.585942 142.708982,130.273435 143.205078,130.8125 C143.701174,131.351565 144.374996,131.621094 145.226562,131.621094 C145.984379,131.621094 146.613279,131.544923 147.113281,131.392578 C147.613284,131.240234 148.160153,131.000002 148.753906,130.671875 L149.679688,132.78125 C149.156247,133.195315 148.47852,133.542967 147.646484,133.824219 C146.814449,134.10547 145.886724,134.246094 144.863281,134.246094 Z M144.558594,123.722656 C143.925778,123.722656 143.425783,123.964841 143.058594,124.449219 C142.691404,124.933596 142.464844,125.570309 142.378906,126.359375 L142.414062,126.417969 L146.609375,126.417969 L146.609375,126.113281 C146.609375,125.386715 146.439455,124.806643 146.099609,124.373047 C145.759764,123.939451 145.246097,123.722656 144.558594,123.722656 Z M151.390625,131.949219 L153.03125,131.597656 L153.03125,123.734375 L151.214844,123.382812 L151.214844,121.320312 L156.21875,121.320312 L156.371094,123.136719 C156.792971,122.488278 157.312497,121.984377 157.929688,121.625 C158.546878,121.265623 159.238277,121.085938 160.003906,121.085938 C161.285163,121.085938 162.285153,121.488277 163.003906,122.292969 C163.72266,123.09766 164.082031,124.359366 164.082031,126.078125 L164.082031,131.597656 L165.722656,131.949219 L165.722656,134 L159.183594,134 L159.183594,131.949219 L160.648438,131.597656 L160.648438,126.089844 C160.648438,125.238277 160.476564,124.634767 160.132812,124.279297 C159.789061,123.923826 159.269535,123.746094 158.574219,123.746094 C158.121091,123.746094 157.714846,123.83789 157.355469,124.021484 C156.996092,124.205079 156.695314,124.464842 156.453125,124.800781 L156.453125,131.597656 L157.835938,131.949219 L157.835938,134 L151.390625,134 L151.390625,131.949219 Z M171.863281,118.214844 L171.863281,121.320312 L174.089844,121.320312 L174.089844,123.722656 L171.863281,123.722656 L171.863281,130.179688 C171.863281,130.671877 171.964843,131.023436 172.167969,131.234375 C172.371095,131.445314 172.64453,131.550781 172.988281,131.550781 C173.222657,131.550781 173.427733,131.541016 173.603516,131.521484 C173.779298,131.501953 173.976561,131.46875 174.195312,131.421875 L174.488281,133.894531 C174.105467,134.011719 173.726564,134.099609 173.351562,134.158203 C172.976561,134.216797 172.570315,134.246094 172.132812,134.246094 C170.953119,134.246094 170.044925,133.921878 169.408203,133.273438 C168.771481,132.624997 168.453125,131.597663 168.453125,130.191406 L168.453125,123.722656 L166.589844,123.722656 L166.589844,121.320312 L168.453125,121.320312 L168.453125,118.214844 L171.863281,118.214844 Z M189.664062,122.691406 L187.121094,122.691406 L186.769531,120.417969 C186.433592,120.08203 186.009768,119.816407 185.498047,119.621094 C184.986326,119.42578 184.382816,119.328125 183.6875,119.328125 C182.203118,119.328125 181.060551,119.867182 180.259766,120.945312 C179.45898,122.023443 179.058594,123.429679 179.058594,125.164062 L179.058594,125.761719 C179.058594,127.496102 179.457027,128.906245 180.253906,129.992188 C181.050785,131.07813 182.175774,131.621094 183.628906,131.621094 C184.300785,131.621094 184.916013,131.523438 185.474609,131.328125 C186.033206,131.132812 186.464842,130.867189 186.769531,130.53125 L187.121094,128.257812 L189.664062,128.257812 L189.664062,131.632812 C188.976559,132.429691 188.099615,133.064451 187.033203,133.537109 C185.966792,134.009768 184.773444,134.246094 183.453125,134.246094 C181.164051,134.246094 179.28907,133.453133 177.828125,131.867188 C176.36718,130.281242 175.636719,128.246106 175.636719,125.761719 L175.636719,125.1875 C175.636719,122.710925 176.363274,120.675789 177.816406,119.082031 C179.269539,117.488273 181.148426,116.691406 183.453125,116.691406 C184.773444,116.691406 185.964838,116.931638 187.027344,117.412109 C188.089849,117.892581 188.968747,118.52734 189.664062,119.316406 L189.664062,122.691406 Z M199.390625,134 C199.296875,133.789061 199.214844,133.572267 199.144531,133.349609 C199.074218,133.126952 199.019531,132.902345 198.980469,132.675781 C198.574217,133.144534 198.080081,133.523436 197.498047,133.8125 C196.916013,134.101564 196.250004,134.246094 195.5,134.246094 C194.257806,134.246094 193.271488,133.908207 192.541016,133.232422 C191.810543,132.556637 191.445312,131.636725 191.445312,130.472656 C191.445312,129.28515 191.92187,128.367191 192.875,127.71875 C193.82813,127.070309 195.226553,126.746094 197.070312,126.746094 L198.816406,126.746094 L198.816406,125.503906 C198.816406,124.894528 198.640627,124.421877 198.289062,124.085938 C197.937498,123.749998 197.417972,123.582031 196.730469,123.582031 C196.339842,123.582031 195.992189,123.626953 195.6875,123.716797 C195.382811,123.806641 195.13672,123.914062 194.949219,124.039062 L194.726562,125.398438 L192.148438,125.398438 L192.160156,122.585938 C192.785159,122.16406 193.501949,121.808595 194.310547,121.519531 C195.119145,121.230467 195.999995,121.085938 196.953125,121.085938 C198.523445,121.085938 199.798823,121.470699 200.779297,122.240234 C201.759771,123.009769 202.25,124.105462 202.25,125.527344 L202.25,130.765625 C202.25,130.960938 202.251953,131.14453 202.255859,131.316406 C202.259766,131.488282 202.273437,131.652343 202.296875,131.808594 L203.339844,131.949219 L203.339844,134 L199.390625,134 Z M196.425781,131.714844 C196.941409,131.714844 197.410154,131.603517 197.832031,131.380859 C198.253908,131.158202 198.58203,130.878908 198.816406,130.542969 L198.816406,128.609375 L197.070312,128.609375 C196.343746,128.609375 195.792971,128.779295 195.417969,129.119141 C195.042967,129.458986 194.855469,129.867185 194.855469,130.34375 C194.855469,130.77344 194.994139,131.109374 195.271484,131.351562 C195.54883,131.593751 195.933591,131.714844 196.425781,131.714844 Z M204.757812,131.949219 L206.398438,131.597656 L206.398438,123.734375 L204.582031,123.382812 L204.582031,121.320312 L209.585938,121.320312 L209.738281,123.171875 C210.035158,122.515622 210.417966,122.003908 210.886719,121.636719 C211.355471,121.269529 211.898434,121.085938 212.515625,121.085938 C212.695313,121.085938 212.884765,121.099609 213.083984,121.126953 C213.283204,121.154297 213.449218,121.1875 213.582031,121.226562 L213.21875,124.34375 L211.8125,124.308594 C211.312498,124.308594 210.898439,124.406249 210.570312,124.601562 C210.242186,124.796876 209.992188,125.074217 209.820312,125.433594 L209.820312,131.597656 L211.460938,131.949219 L211.460938,134 L204.757812,134 L204.757812,131.949219 Z M220.449219,134.246094 C218.621085,134.246094 217.160162,133.660162 216.066406,132.488281 C214.972651,131.3164 214.425781,129.828134 214.425781,128.023438 L214.425781,127.554688 C214.425781,125.671866 214.943354,124.1211 215.978516,122.902344 C217.013677,121.683588 218.402335,121.078125 220.144531,121.085938 C221.855477,121.085938 223.183589,121.601557 224.128906,122.632812 C225.074223,123.664068 225.546875,125.058585 225.546875,126.816406 L225.546875,128.679688 L217.976562,128.679688 L217.953125,128.75 C218.015625,129.585942 218.294919,130.273435 218.791016,130.8125 C219.287112,131.351565 219.960933,131.621094 220.8125,131.621094 C221.570316,131.621094 222.199216,131.544923 222.699219,131.392578 C223.199221,131.240234 223.746091,131.000002 224.339844,130.671875 L225.265625,132.78125 C224.742185,133.195315 224.064457,133.542967 223.232422,133.824219 C222.400386,134.10547 221.472661,134.246094 220.449219,134.246094 Z M220.144531,123.722656 C219.511716,123.722656 219.011721,123.964841 218.644531,124.449219 C218.277342,124.933596 218.050782,125.570309 217.964844,126.359375 L218,126.417969 L222.195312,126.417969 L222.195312,126.113281 C222.195312,125.386715 222.025392,124.806643 221.685547,124.373047 C221.345701,123.939451 220.832035,123.722656 220.144531,123.722656 Z" id="IncidentCare" fill="#FFFFFF" mask="url(#mask-2)"></path>
            </g>
        </g>
    </g>
</svg>