<svg width="19px" height="19px" viewBox="0 0 19 19" version="1.1" xmlns="http://www.w3.org/2000/svg" xmlns:xlink="http://www.w3.org/1999/xlink">
    <!-- Generator: Sketch 43.1 (39012) - http://www.bohemiancoding.com/sketch -->
    <desc>Created with Sketch.</desc>
    <defs></defs>
    <g id="Page-1" stroke="none" stroke-width="1" fill="none" fill-rule="evenodd">
        <g id="Desktop-Copy-6" transform="translate(-571.000000, -979.000000)" fill-rule="nonzero" fill="#1B79AE">
            <g id="link-(2)" transform="translate(571.000000, 979.000000)">
                <path d="M4.38273903,18.8228671 C3.2075031,18.8228671 2.10651493,18.3688951 1.27918278,17.5415629 C0.453972,16.7163521 0,15.615364 0,14.440128 C0,13.2648921 0.453972,12.163904 1.28130415,11.3365718 L4.12393256,8.4939434 C4.38910312,8.22877284 4.81974011,8.22877284 5.08491067,8.4939434 L5.08491067,8.4939434 C5.35008123,8.75911396 5.35008123,9.18975095 5.08491067,9.45492151 L2.24228226,12.2975499 C1.67375658,12.8660756 1.35979463,13.6276455 1.35979463,14.440128 C1.35979463,15.2526106 1.67375658,16.0141805 2.24228226,16.5827062 C2.81080794,17.1512319 3.57237779,17.4651938 4.38486039,17.4651938 C5.19734299,17.4651938 5.95891284,17.1512319 6.52743852,16.5827062 L9.8494953,13.2606494 C10.418021,12.6921237 10.7319829,11.9305539 10.7319829,11.1180713 C10.7319829,10.4943901 10.5474242,9.90252941 10.2058845,9.40400876 C10.0213258,9.13459547 10.0552677,8.77184214 10.2864964,8.54061342 L10.2864964,8.54061342 C10.5877301,8.23937966 11.0883722,8.28817104 11.3302077,8.63819618 C11.826607,9.36158147 12.0938989,10.2186127 12.0938989,11.1180713 C12.0938989,12.2933072 11.6399269,13.3942954 10.8125948,14.2216275 L7.4841739,17.5436843 C6.65896312,18.3688951 5.55797495,18.8228671 4.38273903,18.8228671 Z M13.1757948,10.3374091 L13.1757948,10.3374091 C12.9106243,10.0722386 12.9106243,9.64160158 13.1757948,9.37643102 L16.0184232,6.53380261 C16.5869489,5.96527693 16.9009109,5.20370708 16.9009109,4.39122448 C16.9009109,3.57874189 16.5869489,2.81717204 16.0184232,2.24864635 C15.4498975,1.68012067 14.6883277,1.36615873 13.8758451,1.36615873 C13.0633625,1.36615873 12.3017926,1.68012067 11.733267,2.24864635 L8.40908882,5.57070314 C7.84056314,6.13922882 7.52660119,6.90079867 7.52660119,7.71328127 C7.52660119,8.33696243 7.7111599,8.92882312 8.05269958,9.42734377 C8.23725829,9.69675706 8.20331646,10.0595104 7.97208773,10.2907391 L7.97208773,10.2907391 C7.67085398,10.5919729 7.17021196,10.5431815 6.92837641,10.1931563 C6.43197712,9.46977106 6.16468519,8.61273981 6.16468519,7.71328127 C6.16468519,6.53804534 6.61865719,5.43705717 7.44598934,4.60972503 L10.7701675,1.28766824 C11.5953783,0.462457458 12.6984878,0.00636409345 13.8737237,0.00636409345 C15.0489597,0.00636409345 16.1499478,0.460336093 16.97728,1.28766824 C17.8024908,2.11287903 18.2585841,3.21598856 18.2585841,4.39122448 C18.2585841,5.56646041 17.8046121,6.66744858 16.97728,7.49478072 L14.1346516,10.3374091 C13.869481,10.6025797 13.4409654,10.6025797 13.1757948,10.3374091 Z" id="Shape"></path>
            </g>
        </g>
    </g>
</svg>