<svg width="20px" height="12px" viewBox="0 0 20 12" version="1.1" xmlns="http://www.w3.org/2000/svg" xmlns:xlink="http://www.w3.org/1999/xlink">
    <!-- Generator: Sketch 51.2 (57519) - http://www.bohemiancoding.com/sketch -->
    <desc>Created with Sketch.</desc>
    <defs></defs>
    <g id="Symbols" stroke="none" stroke-width="1" fill="none" fill-rule="evenodd">
        <g id="icons/data-vis-copy" transform="translate(-3.000000, -7.000000)">
            <g id="Group" transform="translate(3.000000, 7.000000)">
                <path d="M3,1.15 C2.25441559,1.15 1.65,1.75441559 1.65,2.5 L1.65,9.5 C1.65,10.2455844 2.25441559,10.85 3,10.85 L6.18297214,10.85 C7.12468412,10.85 7.99821186,10.3588426 8.48751407,9.55422788 C8.63442518,9.31264541 8.83591462,9.10885965 9.0758168,8.9592204 C9.92358752,8.43042249 11.0395169,8.68900104 11.5683148,9.53677176 L11.5752911,9.5479562 C12.0804524,10.3578326 12.9675041,10.85 13.9220132,10.85 L17,10.85 C17.7455844,10.85 18.35,10.2455844 18.35,9.5 L18.35,2.5 C18.35,1.75441559 17.7455844,1.15 17,1.15 L3,1.15 Z M6,7.65 C4.81258779,7.65 3.85,6.68741221 3.85,5.5 C3.85,4.31258779 4.81258779,3.35 6,3.35 C7.18741221,3.35 8.15,4.31258779 8.15,5.5 C8.15,6.68741221 7.18741221,7.65 6,7.65 Z M14,7.65 C12.8125878,7.65 11.85,6.68741221 11.85,5.5 C11.85,4.31258779 12.8125878,3.35 14,3.35 C15.1874122,3.35 16.15,4.31258779 16.15,5.5 C16.15,6.68741221 15.1874122,7.65 14,7.65 Z" id="Combined-Shape" stroke="#363636" stroke-width="1.3"></path>
                <rect id="Rectangle-2" fill="#363636" x="0" y="3.5" width="2" height="4" rx="0.5"></rect>
                <rect id="Rectangle-2-Copy" fill="#363636" x="18" y="3.5" width="2" height="4" rx="0.5"></rect>
            </g>
        </g>
    </g>
</svg>