<svg width="18px" height="10px" viewBox="0 0 18 10" version="1.1" xmlns="http://www.w3.org/2000/svg" xmlns:xlink="http://www.w3.org/1999/xlink">
  <!-- Generator: Sketch 51.2 (57519) - http://www.bohemiancoding.com/sketch -->
  <desc>Created with Sketch.</desc>
  <defs></defs>
  <g id="Symbols" stroke="none" stroke-width="1" fill="none" fill-rule="evenodd">
    <g id="icons/data-vis-copy" transform="translate(-4.000000, -8.000000)" fill="#363636">
      <path d="M6,8 L20,8 C21.1045695,8 22,8.8954305 22,10 L22,16 C22,17.1045695 21.1045695,18 20,18 L16.7996675,18 C15.6899914,18 14.6515925,17.4531516 14.0237829,16.5381455 L14.0158065,16.5265203 C13.6434922,15.983888 12.9017815,15.8458179 12.3591493,16.2181321 C12.2343625,16.3037516 12.1270281,16.4123585 12.0428851,16.5381455 C11.4318231,17.4516346 10.4052609,18 9.30623454,18 L6,18 C4.8954305,18 4,17.1045695 4,16 L4,10 C4,8.8954305 4.8954305,8 6,8 Z M8.5,15 C9.88071187,15 11,13.8807119 11,12.5 C11,11.1192881 9.88071187,10 8.5,10 C7.11928813,10 6,11.1192881 6,12.5 C6,13.8807119 7.11928813,15 8.5,15 Z M17.5,15 C18.8807119,15 20,13.8807119 20,12.5 C20,11.1192881 18.8807119,10 17.5,10 C16.1192881,10 15,11.1192881 15,12.5 C15,13.8807119 16.1192881,15 17.5,15 Z" id="Combined-Shape"></path>
    </g>
  </g>
</svg>