<?xml version="1.0" encoding="UTF-8"?>
<svg width="192px" height="192px" viewBox="0 0 192 192" version="1.1" xmlns="http://www.w3.org/2000/svg" xmlns:xlink="http://www.w3.org/1999/xlink">
    <!-- Generator: Sketch 51.2 (57519) - http://www.bohemiancoding.com/sketch -->
    <title>Group 3</title>
    <desc>Created with Sketch.</desc>
    <defs>
        <rect id="path-1" x="0" y="0" width="192" height="192"></rect>
        <linearGradient x1="1.3970769%" y1="16.9344967%" x2="100%" y2="50%" id="linearGradient-3">
            <stop stop-color="#5766EF" offset="0%"></stop>
            <stop stop-color="#008EFF" offset="100%"></stop>
        </linearGradient>
        <rect id="path-4" x="0" y="0" width="192" height="192"></rect>
    </defs>
    <g id="Page-1" stroke="none" stroke-width="1" fill="none" fill-rule="evenodd">
        <g id="Desktop-Copy-16" transform="translate(-44.000000, -164.000000)">
            <g id="Group-3" transform="translate(44.000000, 164.000000)">
                <mask id="mask-2" fill="white">
                    <use xlink:href="#path-1"></use>
                </mask>
                <g id="Rectangle-2-Copy-2"></g>
                <mask id="mask-5" fill="white">
                    <use xlink:href="#path-4"></use>
                </mask>
                <use id="Rectangle-2-Copy-4" fill="url(#linearGradient-3)" xlink:href="#path-4"></use>
                <path d="M64.0235616,55.4908008 C64.0251581,54.1933039 63.7282075,52.718658 65.1985921,51.9446285 C66.6146954,51.196134 67.7258655,52.1696556 68.8498077,52.8160102 C73.379103,55.4237715 77.8812578,58.0778149 82.4281148,60.6552534 C84.0613432,61.580897 84.8835452,62.8113645 84.8803522,64.7376607 C84.8548081,89.8832463 84.8691767,109.027236 84.8548081,134.172822 C84.8532116,136.790159 83.4195467,137.703035 81.1604868,136.434265 C76.0915714,133.588709 71.0785339,130.642609 66.0511278,127.722044 C64.4769701,126.807572 64.0219651,125.345693 64.0251581,123.598142 C64.0491058,111.137065 64.0379302,104.674392 64.0379302,92.2133146 C64.0171756,79.9724767 64.0123861,67.7316387 64.0235616,55.4908008 Z M126.772952,68.8054145 C129.517263,67.2228295 130.97203,68.0125641 130.983459,71.1380541 C131.007153,76.7967918 130.972978,82.0009934 130.978859,87.6607976 C130.980587,89.2820708 130.26873,90.4525794 128.883844,91.2521439 C126.257305,92.7685768 106.681436,104.14487 91.9381496,112.633442 C89.9954698,113.753205 88.5123213,112.990917 88.4786042,110.742892 C88.3817995,104.641527 88.4049521,98.5372702 88.4833531,92.4361422 C88.5048247,90.7369526 89.7179769,89.7452676 91.1502841,88.9256985 C99.5956569,84.0958475 118.281563,73.7023896 126.772952,68.8054145 Z M109.270491,49.0654636 C115.46117,52.787061 121.66034,56.5007231 127.845808,60.2340903 C130.286563,61.7062313 130.276754,63.3803489 127.74995,64.8030435 C122.747279,67.6194369 117.700324,70.3607955 112.668132,73.1240629 C111.328206,73.8574126 109.988629,73.8031174 108.6781,73.0156716 C96.0401071,65.4201372 83.3952601,57.8391094 70.7720684,50.2189424 C68.7006697,48.9687329 68.7505078,47.2125023 70.9018685,45.9963282 C75.9623303,43.1364323 81.073087,40.3663578 86.1543231,37.5431574 C87.6717106,36.7003827 89.0475965,36.8770717 90.5124247,37.7702671 C96.7443751,41.5688143 103.015518,45.3052337 109.270491,49.0654636 Z" id="Combined-Shape-Copy" fill="#FFFFFF" mask="url(#mask-5)"></path>
                <path d="M38.404,162.232 L38.404,159.616 L36.172,162.232 L38.404,162.232 Z M38.404,163.732 L34.3,163.732 L34,162.424 L38.608,157.084 L40.168,157.084 L40.168,162.232 L41.296,162.232 L41.296,163.732 L40.168,163.732 L40.168,165.544 L38.404,165.544 L38.404,163.732 Z M47.1451429,164.02 C47.4251443,164.02 47.6771417,163.954001 47.9011429,163.822 C48.125144,163.689999 48.3171421,163.506001 48.4771429,163.27 C48.6371437,163.033999 48.7591424,162.754002 48.8431429,162.43 C48.9271433,162.105998 48.9691429,161.752002 48.9691429,161.368 L48.9691429,161.344 C48.9691429,160.959998 48.9251433,160.606002 48.8371429,160.282 C48.7491424,159.957998 48.6231437,159.676001 48.4591429,159.436 C48.295142,159.195999 48.099144,159.008001 47.8711429,158.872 C47.6431417,158.735999 47.3931442,158.668 47.1211429,158.668 C46.8411415,158.668 46.589144,158.733999 46.3651429,158.866 C46.1411417,158.998001 45.9511436,159.181999 45.7951429,159.418 C45.6391421,159.654001 45.5171433,159.933998 45.4291429,160.258 C45.3411424,160.582002 45.2971429,160.935998 45.2971429,161.32 L45.2971429,161.344 C45.2971429,161.728002 45.3411424,162.083998 45.4291429,162.412 C45.5171433,162.740002 45.6411421,163.021999 45.8011429,163.258 C45.9611437,163.494001 46.1551417,163.679999 46.3831429,163.816 C46.611144,163.952001 46.8651415,164.02 47.1451429,164.02 Z M47.1211429,165.688 C46.5611401,165.688 46.0511452,165.578001 45.5911429,165.358 C45.1311406,165.137999 44.7391445,164.834002 44.4151429,164.446 C44.0911412,164.057998 43.8411437,163.600003 43.6651429,163.072 C43.489142,162.543997 43.4011429,161.976003 43.4011429,161.368 L43.4011429,161.344 C43.4011429,160.735997 43.491142,160.168003 43.6711429,159.64 C43.8511438,159.111997 44.1051412,158.652002 44.4331429,158.26 C44.7611445,157.867998 45.1551406,157.560001 45.6151429,157.336 C46.0751452,157.111999 46.5851401,157 47.1451429,157 C47.6971456,157 48.2031406,157.109999 48.6631429,157.33 C49.1231452,157.550001 49.5151412,157.853998 49.8391429,158.242 C50.1631445,158.630002 50.415142,159.087997 50.5951429,159.616 C50.7751438,160.144003 50.8651429,160.711997 50.8651429,161.32 L50.8651429,161.344 C50.8651429,161.952003 50.7751438,162.519997 50.5951429,163.048 C50.415142,163.576003 50.1611445,164.035998 49.8331429,164.428 C49.5051412,164.820002 49.1111452,165.127999 48.6511429,165.352 C48.1911406,165.576001 47.6811457,165.688 47.1211429,165.688 Z M54.5062857,158.956 L53.0422857,159.316 L52.6582857,157.804 L55.0702857,157.084 L56.3302857,157.084 L56.3302857,165.544 L54.5062857,165.544 L54.5062857,158.956 Z M59.2994286,157.144 L61.1474286,157.144 L61.1474286,160.816 L64.5554286,157.144 L66.7874286,157.144 L63.3674286,160.708 L66.9434286,165.544 L64.7234286,165.544 L62.1194286,161.968 L61.1474286,162.976 L61.1474286,165.544 L59.2994286,165.544 L59.2994286,157.144 Z M76.6857143,161.38 C77.1497166,161.38 77.509713,161.258001 77.7657143,161.014 C78.0217156,160.769999 78.1497143,160.468002 78.1497143,160.108 L78.1497143,160.084 C78.1497143,159.667998 78.0157157,159.352001 77.7477143,159.136 C77.479713,158.919999 77.1137166,158.812 76.6497143,158.812 L75.2217143,158.812 L75.2217143,161.38 L76.6857143,161.38 Z M73.3737143,157.144 L76.8057143,157.144 C77.3097168,157.144 77.7597123,157.213999 78.1557143,157.354 C78.5517163,157.494001 78.8877129,157.691999 79.1637143,157.948 C79.4397157,158.204001 79.6517136,158.509998 79.7997143,158.866 C79.9477151,159.222002 80.0217143,159.615998 80.0217143,160.048 L80.0217143,160.072 C80.0217143,160.560002 79.9337152,160.987998 79.7577143,161.356 C79.5817134,161.724002 79.3397159,162.031999 79.0317143,162.28 C78.7237128,162.528001 78.3637164,162.713999 77.9517143,162.838 C77.5397123,162.962001 77.0977167,163.024 76.6257143,163.024 L75.2217143,163.024 L75.2217143,165.544 L73.3737143,165.544 L73.3737143,157.144 Z M82.2468572,157.144 L84.0948572,157.144 L84.0948572,163.864 L88.2828572,163.864 L88.2828572,165.544 L82.2468572,165.544 L82.2468572,157.144 Z M95.3560001,162.028 L94.2400001,159.304 L93.1240001,162.028 L95.3560001,162.028 Z M93.4120001,157.084 L95.1160001,157.084 L98.7160001,165.544 L96.7840001,165.544 L96.0160001,163.66 L92.4640001,163.66 L91.6960001,165.544 L89.8120001,165.544 L93.4120001,157.084 Z M100.869143,157.144 L102.573143,157.144 L106.509143,162.316 L106.509143,157.144 L108.333143,157.144 L108.333143,165.544 L106.761143,165.544 L102.693143,160.204 L102.693143,165.544 L100.869143,165.544 L100.869143,157.144 Z M118.651429,165.664 C118.011425,165.664 117.383432,165.554001 116.767429,165.334 C116.151426,165.113999 115.591431,164.776002 115.087429,164.32 L116.179429,163.012 C116.563431,163.324002 116.957427,163.571999 117.361429,163.756 C117.765431,163.940001 118.207426,164.032 118.687429,164.032 C119.071431,164.032 119.369428,163.962001 119.581429,163.822 C119.79343,163.681999 119.899429,163.488001 119.899429,163.24 L119.899429,163.216 C119.899429,163.095999 119.877429,162.99 119.833429,162.898 C119.789428,162.806 119.705429,162.72 119.581429,162.64 C119.457428,162.56 119.28543,162.48 119.065429,162.4 C118.845428,162.32 118.55943,162.236 118.207429,162.148 C117.783427,162.043999 117.39943,161.928001 117.055429,161.8 C116.711427,161.671999 116.41943,161.514001 116.179429,161.326 C115.939427,161.137999 115.753429,160.904001 115.621429,160.624 C115.489428,160.343999 115.423429,159.996002 115.423429,159.58 L115.423429,159.556 C115.423429,159.171998 115.495428,158.826002 115.639429,158.518 C115.783429,158.209998 115.985427,157.944001 116.245429,157.72 C116.50543,157.495999 116.815427,157.324001 117.175429,157.204 C117.53543,157.083999 117.931426,157.024 118.363429,157.024 C118.979432,157.024 119.545426,157.115999 120.061429,157.3 C120.577431,157.484001 121.051426,157.747998 121.483429,158.092 L120.523429,159.484 C120.147427,159.227999 119.77943,159.026001 119.419429,158.878 C119.059427,158.729999 118.69943,158.656 118.339429,158.656 C117.979427,158.656 117.70943,158.725999 117.529429,158.866 C117.349428,159.006001 117.259429,159.179999 117.259429,159.388 L117.259429,159.412 C117.259429,159.548001 117.285428,159.666 117.337429,159.766 C117.389429,159.866001 117.483428,159.956 117.619429,160.036 C117.755429,160.116 117.941427,160.192 118.177429,160.264 C118.41343,160.336 118.711427,160.42 119.071429,160.516 C119.495431,160.628001 119.873427,160.753999 120.205429,160.894 C120.53743,161.034001 120.817428,161.201999 121.045429,161.398 C121.27343,161.594001 121.445428,161.823999 121.561429,162.088 C121.677429,162.352001 121.735429,162.667998 121.735429,163.036 L121.735429,163.06 C121.735429,163.476002 121.659429,163.845998 121.507429,164.17 C121.355428,164.494002 121.14343,164.765999 120.871429,164.986 C120.599427,165.206001 120.275431,165.373999 119.899429,165.49 C119.523427,165.606001 119.107431,165.664 118.651429,165.664 Z M124.200572,157.144 L130.536572,157.144 L130.536572,158.788 L126.036572,158.788 L126.036572,160.492 L129.996572,160.492 L129.996572,162.136 L126.036572,162.136 L126.036572,163.9 L130.596572,163.9 L130.596572,165.544 L124.200572,165.544 L124.200572,157.144 Z M135.053714,158.848 L132.497714,158.848 L132.497714,157.144 L139.457714,157.144 L139.457714,158.848 L136.901714,158.848 L136.901714,165.544 L135.053714,165.544 L135.053714,158.848 Z M145.234857,165.676 C144.106852,165.676 143.21886,165.364003 142.570857,164.74 C141.922854,164.115997 141.598857,163.184006 141.598857,161.944 L141.598857,157.144 L143.446857,157.144 L143.446857,161.896 C143.446857,162.584003 143.606856,163.101998 143.926857,163.45 C144.246859,163.798002 144.690854,163.972 145.258857,163.972 C145.82686,163.972 146.270856,163.804002 146.590857,163.468 C146.910859,163.131998 147.070857,162.628003 147.070857,161.956 L147.070857,157.144 L148.918857,157.144 L148.918857,161.884 C148.918857,162.524003 148.832858,163.079998 148.660857,163.552 C148.488856,164.024002 148.242859,164.417998 147.922857,164.734 C147.602856,165.050002 147.21486,165.285999 146.758857,165.442 C146.302855,165.598001 145.79486,165.676 145.234857,165.676 Z M154.972,161.38 C155.436002,161.38 155.795999,161.258001 156.052,161.014 C156.308001,160.769999 156.436,160.468002 156.436,160.108 L156.436,160.084 C156.436,159.667998 156.302001,159.352001 156.034,159.136 C155.765999,158.919999 155.400002,158.812 154.936,158.812 L153.508,158.812 L153.508,161.38 L154.972,161.38 Z M151.66,157.144 L155.092,157.144 C155.596003,157.144 156.045998,157.213999 156.442,157.354 C156.838002,157.494001 157.173999,157.691999 157.45,157.948 C157.726001,158.204001 157.937999,158.509998 158.086,158.866 C158.234001,159.222002 158.308,159.615998 158.308,160.048 L158.308,160.072 C158.308,160.560002 158.220001,160.987998 158.044,161.356 C157.867999,161.724002 157.626002,162.031999 157.318,162.28 C157.009999,162.528001 156.650002,162.713999 156.238,162.838 C155.825998,162.962001 155.384002,163.024 154.912,163.024 L153.508,163.024 L153.508,165.544 L151.66,165.544 L151.66,157.144 Z" id="401K-PLAN-SETUP" fill="#90C0FF" mask="url(#mask-5)"></path>
            </g>
        </g>
    </g>
</svg>