<?xml version="1.0" encoding="UTF-8"?>
<svg width="160px" height="160px" viewBox="0 0 160 160" version="1.1" xmlns="http://www.w3.org/2000/svg" xmlns:xlink="http://www.w3.org/1999/xlink">
    <title>Logo / Bespoke / Default Copy</title>
    <g id="Logo-/-Bespoke-/-Default-Copy" stroke="none" stroke-width="1" fill="none" fill-rule="evenodd">
        <rect id="Rectangle" fill="#F4F8FE" x="0" y="0" width="160" height="160"></rect>
        <g id="Logo" transform="translate(16.000000, 73.000000)" fill-rule="nonzero">
            <path d="M8.08693172,7.57742996 C8.66896329,7.23826353 9.14803123,6.74822196 9.47326288,6.15934322 C9.81148623,5.53072294 9.97992557,4.82516408 9.96203348,4.11198049 C10.020377,2.95668785 9.48016306,1.85236953 8.53126863,1.18717659 C7.36153343,0.453323954 5.99200419,0.100239984 4.6122171,0.176789792 L0,0.176789792 L0,15.8289222 L5.22540204,15.8289222 C6.61729633,15.8793976 7.98939406,15.488415 9.14445356,14.7121789 C10.226691,13.8847314 10.8153468,12.5671232 10.7085195,11.2112772 C10.7201754,10.4424938 10.4764547,9.69146708 10.0153539,9.07528408 C9.50555181,8.42571625 8.84325946,7.91129709 8.08693172,7.57742996 L8.08693172,7.57742996 Z M3.09258488,3.1459089 L4.75440491,3.1459089 C5.27949801,3.11181774 5.80036932,3.25890012 6.22960345,3.56247188 C6.5923718,3.85070397 6.79138246,4.297284 6.76280774,4.75898257 C6.77601562,5.231614 6.60750927,5.69139269 6.29181062,6.04412367 C5.95148415,6.40777677 5.46537974,6.59974782 4.96768663,6.56704316 L3.09258488,6.56704316 L3.09258488,3.1459089 L3.09258488,3.1459089 Z M5.07432749,12.9484335 L3.09258488,12.9484335 L3.09258488,9.54502531 L4.86993251,9.54502531 C6.64728014,9.54502531 7.53595396,10.103397 7.53595396,11.2024142 C7.5664176,11.7295464 7.30786636,12.2316984 6.86056186,12.5141444 C6.32434898,12.8313546 5.70572334,12.9825137 5.08321423,12.9484335 L5.07432749,12.9484335 Z M18.7865645,0.16792675 L18.7865645,15.8200591 L29.797233,15.8200591 L29.797233,12.842077 L21.8791493,12.842077 L21.8791493,9.47412098 L28.6597306,9.47412098 L28.6597306,6.49613882 L21.9146963,6.49613882 L21.9146963,3.15477194 L29.5306309,3.15477194 L29.5306309,0.176789792 L18.7865645,0.16792675 Z M46.3354528,3.95244573 L47.5085022,1.59487653 C46.7996297,1.12430382 46.0317379,0.748831517 45.2246105,0.478133224 C44.2779737,0.188811207 43.2906411,0.0541258136 42.3008736,0.0792963283 C40.9936217,0.0870494119 39.732457,0.561869617 38.7461784,1.41761569 C37.8492739,2.26102938 37.3630155,3.4508023 37.4131676,4.67921519 C37.3839408,5.49443689 37.6141364,6.29797313 38.0707863,6.9747431 C38.4673296,7.55743514 38.9974039,8.03748357 39.6170787,8.37510375 C40.3416757,8.76078847 41.0896029,9.10119436 41.8565367,9.3943536 C43.376169,9.99704046 44.1315417,10.6972208 44.1315417,11.5037576 C44.1706575,12.0533683 43.8909638,12.5768261 43.4117159,12.85094 C42.890715,13.1398935 42.3013791,13.2837734 41.7054622,13.267503 C41.0627131,13.2523697 40.4277883,13.1233224 39.8303604,12.8863922 C39.1693324,12.6479429 38.5443582,12.3198861 37.9730322,11.9114576 L36.6577949,14.322205 C37.4458258,14.8806827 38.319067,15.308657 39.2438357,15.58962 C40.1490576,15.8605594 41.0891644,15.9979149 42.0342715,15.99732 C43.0340368,16.0263057 44.0265727,15.8198257 44.9313481,15.3946331 C45.6934756,15.037792 46.3355358,14.4682516 46.7797897,13.7549703 C47.1955854,13.0807951 47.4141292,12.3041169 47.4107481,11.5126207 C47.4403873,10.7063737 47.2597262,9.90625528 46.8864305,9.19050363 C46.5669279,8.61569444 46.1163935,8.12385686 45.5711933,7.7546908 C44.9771704,7.38642516 44.3418672,7.08895607 43.678318,6.86838659 C42.9085288,6.60104856 42.1743764,6.24090391 41.4921805,5.7959585 C41.009229,5.52914945 40.6972274,5.03395469 40.6657138,4.48422826 C40.6378418,4.00972181 40.8516897,3.55317418 41.2344651,3.26999149 C41.7106803,2.97638701 42.2663733,2.83706014 42.8251912,2.8711546 C44.0850423,2.94819721 45.306216,3.33488602 46.3798864,3.99676095 L46.3354528,3.95244573 Z M60.1276704,0.16792675 L55.4088124,0.16792675 L55.4088124,15.8200591 L58.5013973,15.8200591 L58.5013973,10.8656186 L60.7230818,10.8656186 C61.8317172,10.9111819 62.9300518,10.6373305 63.8867606,10.0768078 C64.6696101,9.60089673 65.2893332,8.89938664 65.6641083,8.06489728 C66.0376836,7.22852915 66.225632,6.32152616 66.215086,5.40598464 C66.2841142,3.94841713 65.7053792,2.53462133 64.6332466,1.54169828 C63.3796417,0.536716072 61.7952489,0.0342226007 60.1898775,0.132474581 L60.1276704,0.16792675 Z M60.6608747,7.86991035 L58.4658503,7.86991035 L58.4658503,3.1459089 L60.6875349,3.1459089 C61.4106076,3.0526444 62.1295745,3.34552389 62.5804101,3.91699357 C62.8983301,4.39579089 63.0711145,4.95584288 63.0780674,5.53006723 C63.0711331,5.88290141 62.9893586,6.23027138 62.8381255,6.54931708 C62.6675145,6.90765536 62.4035755,7.21374283 62.073866,7.43562129 C61.6591677,7.7188708 61.1629021,7.85894882 60.6608747,7.83445818 L60.6608747,7.86991035 Z M72.969007,8.01171903 C72.9605777,9.41911408 73.3319919,10.8028459 74.0443023,12.0178141 C74.7490276,13.2184428 75.7531675,14.216852 76.9591525,14.9160288 C79.4337622,16.3409358 82.4826071,16.3409358 84.9572168,14.9160288 C86.1710034,14.2179191 87.1840459,13.2197873 87.8987271,12.0178141 C89.367091,9.5605449 89.367091,6.49834532 87.8987271,4.04107616 C87.1884196,2.82182795 86.1754237,1.80542856 84.9572168,1.08968313 C82.4902047,-0.36322771 79.4261646,-0.36322771 76.9591525,1.08968313 C75.7459708,1.805927 74.7388617,2.82256254 74.0354156,4.04107616 C73.3284384,5.24533783 72.9571854,6.61622896 72.960103,8.01171903 L72.969007,8.01171903 Z M76.1682328,8.01171903 C76.158303,7.12019808 76.3786554,6.24113868 76.8080779,5.45916289 C77.2295897,4.7078629 77.8427526,4.08104679 78.5854255,3.64223926 C80.0903812,2.75624953 81.9592891,2.75624953 83.4642448,3.64223926 C84.2069177,4.08104679 84.8200806,4.7078629 85.2415924,5.45916289 C86.0821639,7.04821431 86.0821639,8.94863461 85.2415924,10.537686 C84.8378805,11.2670732 84.2495958,11.8782358 83.5353387,12.3102945 C82.8114669,12.7538971 81.9765856,12.9843367 81.1270326,12.9750226 C80.2550827,12.984405 79.3973395,12.7544437 78.6476327,12.3102945 C77.9077961,11.8678988 77.2954635,11.2419315 76.8702851,10.4933708 C76.4403133,9.72405092 76.2168533,8.85701783 76.2215532,7.97626686 L76.1682328,8.01171903 Z" id="Shape" fill="#353535"></path>
            <polygon id="Path" fill="#0077C2" points="100.218093 5.69875425 100.218093 0 97 0 97 16 100.218093 16 100.218093 9.95696489 101.01122 9.17780294 105.979663 16 110 16 103.326788 7.17553794 109.981767 0 105.86115 0 100.619215 5.88901472 100.136045 6.49603624 100.218093 5.69875425"></polygon>
            <polygon id="Path" fill="#353535" points="117 0 117 16 128 16 128 12.9558324 120.092084 12.9558324 120.092084 9.50396376 126.827141 9.50396376 126.827141 6.45979615 120.092084 6.45979615 120.092084 3.04416761 127.6979 3.04416761 127.6979 0 117 0"></polygon>
        </g>
    </g>
</svg>