<svg width="256px" height="256px" viewBox="512 898 256 256" version="1.1" xmlns="http://www.w3.org/2000/svg" xmlns:xlink="http://www.w3.org/1999/xlink">
    <!-- Generator: Sketch 42 (36781) - http://www.bohemiancoding.com/sketch -->
    <desc>Created with Sketch.</desc>
    <defs>
        <rect id="path-1" x="0" y="0" width="256" height="256"></rect>
        <polygon id="path-3" points="165.215805 41.6755258 213.539533 12.970297 213.539533 68.4122844 165.215805 97.1175131"></polygon>
        <mask id="mask-4" maskContentUnits="userSpaceOnUse" maskUnits="objectBoundingBox" x="0" y="0" width="48.3237271" height="84.1472161" fill="white">
            <use xlink:href="#path-3"></use>
        </mask>
        <linearGradient x1="3.65830944%" y1="39.0783499%" x2="92.1456965%" y2="5.30582543%" id="linearGradient-5">
            <stop stop-color="#C6AC81" offset="0%"></stop>
            <stop stop-color="#695C47" offset="100%"></stop>
        </linearGradient>
        <polygon id="path-6" points="48.1337386 47.3221478 165.842269 12.970297 165.842269 68.4122844 48.1337386 102.764135"></polygon>
        <mask id="mask-7" maskContentUnits="userSpaceOnUse" maskUnits="objectBoundingBox" x="0" y="0" width="117.708531" height="89.7938381" fill="white">
            <use xlink:href="#path-6"></use>
        </mask>
        <polygon id="path-8" points="47.4832827 64.3008266 95.8070098 35.5955978 158.969948 53.8101642 110.646221 82.515393"></polygon>
        <mask id="mask-9" maskContentUnits="userSpaceOnUse" maskUnits="objectBoundingBox" x="0" y="0" width="111.486665" height="46.9197952" fill="white">
            <use xlink:href="#path-8"></use>
        </mask>
        <ellipse id="path-10" cx="30.8966565" cy="13.9430693" rx="30.5160706" ry="13.6188119"></ellipse>
        <polygon id="path-12" points="95.6170213 75.2082864 213.325552 40.8564356 213.325552 96.298423 95.6170213 130.650274"></polygon>
        <mask id="mask-13" maskContentUnits="userSpaceOnUse" maskUnits="objectBoundingBox" x="0" y="0" width="117.708531" height="89.7938381" fill="white">
            <use xlink:href="#path-12"></use>
        </mask>
        <polygon id="path-14" points="47.4832827 75.3982981 95.8070098 46.6930693 95.8070098 102.135057 47.4832827 130.840285"></polygon>
        <mask id="mask-15" maskContentUnits="userSpaceOnUse" maskUnits="objectBoundingBox" x="0" y="0" width="48.3237271" height="84.1472161" fill="white">
            <use xlink:href="#path-14"></use>
        </mask>
        <polygon id="path-16" points="109.927052 41.6755258 158.250779 12.970297 213.974821 29.1665998 165.651094 57.8718286"></polygon>
        <mask id="mask-17" maskContentUnits="userSpaceOnUse" maskUnits="objectBoundingBox" x="0" y="0" width="104.047769" height="44.9015316" fill="white">
            <use xlink:href="#path-16"></use>
        </mask>
        <polygon id="path-18" points="1.70530257e-13 29.2810246 48.3237271 0.575795835 111.486665 18.7903622 63.162938 47.495591"></polygon>
        <mask id="mask-19" maskContentUnits="userSpaceOnUse" maskUnits="objectBoundingBox" x="0" y="0" width="111.486665" height="46.9197952" fill="white">
            <use xlink:href="#path-18"></use>
        </mask>
    </defs>
    <g id="Group-4-Copy-10" stroke="none" stroke-width="1" fill="none" fill-rule="evenodd" transform="translate(512.000000, 898.000000)">
        <mask id="mask-2" fill="white">
            <use xlink:href="#path-1"></use>
        </mask>
        <use id="Rectangle-2-Copy-3" fill="#FFEBAC" xlink:href="#path-1"></use>
        <g id="Group-11" mask="url(#mask-2)">
            <g transform="translate(12.000000, 66.000000)">
                <use id="Rectangle-6-Copy-3" stroke="#979797" mask="url(#mask-4)" stroke-width="1.3" fill="#D8D8D8" transform="translate(189.377669, 55.043905) scale(-1, 1) translate(-189.377669, -55.043905) " xlink:href="#path-3"></use>
                <use id="Rectangle-6-Copy-6" stroke="#979797" mask="url(#mask-7)" stroke-width="1.3" fill="url(#linearGradient-5)" xlink:href="#path-6"></use>
                <use id="Rectangle-6-Copy-7" stroke="#979797" mask="url(#mask-9)" stroke-width="1.3" fill="#DED6B2" transform="translate(103.226615, 59.055495) scale(-1, 1) translate(-103.226615, -59.055495) " xlink:href="#path-8"></use>
                <ellipse id="Oval-6-Copy" stroke="#979797" stroke-width="0.65" fill="#8D7C5E" cx="109.601824" cy="41.5049505" rx="4.22796353" ry="1.94554455"></ellipse>
                <g id="Group-10" stroke="none" stroke-width="1" fill="none" transform="translate(72.200608, 45.396040)">
                    <mask id="mask-11" fill="white">
                        <use xlink:href="#path-10"></use>
                    </mask>
                    <use id="Oval-6" stroke="#979797" stroke-width="0.65" fill="#C0BCA7" xlink:href="#path-10"></use>
                    <ellipse id="Oval-6-Copy" stroke="#979797" stroke-width="0.65" fill="#FFFFFF" mask="url(#mask-11)" cx="30.8966565" cy="18.8069307" rx="27.6443769" ry="12.3217822"></ellipse>
                </g>
                <use id="Rectangle-6" stroke="#979797" mask="url(#mask-13)" stroke-width="1.3" fill="#A6A6A6" xlink:href="#path-12"></use>
                <polygon id="Rectangle-6-Copy-9" stroke="none" fill="#C0C0C0" transform="translate(122.533651, 70.670169) scale(-1, 1) translate(-122.533651, -70.670169) " points="116.779807 65.5417008 116.779807 72.4801162 128.287494 75.798637 128.287494 68.8602216"></polygon>
                <use id="Rectangle-6-Copy" stroke="#979797" mask="url(#mask-15)" stroke-width="1.3" fill="#969494" transform="translate(71.645146, 88.766677) scale(-1, 1) translate(-71.645146, -88.766677) " xlink:href="#path-14"></use>
                <polygon id="Rectangle-6-Copy-8" stroke="none" fill="#C0C0C0" transform="translate(71.848958, 65.619448) scale(-1, 1) translate(-71.848958, -65.619448) " points="67.4468963 63.5961563 76.2510197 58.3663366 76.2510197 67.6427402 67.4468963 72.8725598"></polygon>
                <use id="Rectangle-6-Copy-4" stroke="#979797" mask="url(#mask-17)" stroke-width="1.3" fill="#BEBDBD" transform="translate(161.950936, 35.421063) scale(-1, 1) translate(-161.950936, -35.421063) " xlink:href="#path-16"></use>
                <use id="Rectangle-6-Copy-5" stroke="#979797" mask="url(#mask-19)" stroke-width="1.3" fill="#BEA47B" transform="translate(55.743333, 24.035693) scale(-1, 1) translate(-55.743333, -24.035693) " xlink:href="#path-18"></use>
                <path d="M114.480243,92.1247364 L117.453717,91.280198 L117.453717,96.6126285 L122.937266,95.0551681 L122.937266,89.7227376 L125.910739,88.8781992 L125.910739,102.353655 L122.937266,103.198194 L122.937266,97.7887606 L117.453717,99.346221 L117.453717,104.755654 L114.480243,105.600192 L114.480243,92.1247364 Z M136.916454,93.5873255 L135.120785,89.7274411 L133.325115,94.6073524 L136.916454,93.5873255 Z M133.788514,86.5444676 L136.530288,85.7657374 L142.322769,97.692242 L139.214138,98.5751685 L137.978409,95.9037932 L132.26316,97.5270618 L131.027431,100.900391 L127.996033,101.761382 L133.788514,86.5444676 Z M149.737145,88.906404 C150.483736,88.6943543 151.062978,88.3341225 151.47489,87.8256977 C151.886802,87.3172729 152.092754,86.7743075 152.092754,86.196785 L152.092754,86.1582837 C152.092754,85.4909245 151.877148,85.0452333 151.445927,84.8211968 C151.014707,84.5971603 150.425811,84.591167 149.679221,84.8032166 L147.381536,85.4558145 L147.381536,89.5754539 L149.737145,88.906404 Z M144.408063,83.6245123 L149.930228,82.0560839 C150.74118,81.8257541 151.465232,81.7323999 152.102409,81.7760185 C152.739585,81.8196372 153.280211,81.9837188 153.724303,82.2682685 C154.168396,82.5528181 154.509505,82.9468215 154.747642,83.4502905 C154.985778,83.9537595 155.104845,84.5519984 155.104845,85.2450253 C155.104845,86.0663904 154.963252,86.7932058 154.680063,87.4639947 C154.396873,88.1347836 154.007494,88.7394719 153.511912,89.2780778 C153.016331,89.8166837 152.437089,90.2795846 151.774168,90.6667945 C151.111247,91.0540043 150.400067,91.3554576 149.640604,91.5711633 L147.381536,92.2127931 L147.381536,96.2554299 L144.408063,97.0999683 L144.408063,83.6245123 Z M160.453236,81.8008879 L156.340574,82.9689832 L156.340574,80.2353907 L167.539371,77.0546617 L167.539371,79.7882542 L163.426709,80.9563495 L163.426709,91.698213 L160.453236,92.5427514 L160.453236,81.8008879 Z M169.952905,76.3691597 L172.926378,75.5246213 L172.926378,89.0000773 L169.952905,89.8446157 L169.952905,76.3691597 Z M182.638439,86.4726253 C181.647276,86.7541395 180.726924,86.8358707 179.877356,86.7178213 C179.027788,86.5997719 178.294081,86.3172757 177.676213,85.8703242 C177.058345,85.4233728 176.575643,84.8257459 176.228093,84.0774258 C175.880542,83.3291057 175.706769,82.4736898 175.706769,81.5111524 C175.706769,80.5101137 175.880542,79.5591949 176.228093,78.6198661 C176.575643,77.6805374 177.058345,76.8055041 177.676213,75.9947401 C178.294081,75.183976 179.034224,74.4732456 179.896664,73.8625275 C180.759105,73.2518093 181.711636,72.7983879 182.754288,72.5022496 C183.385028,72.3231042 183.961053,72.2108339 184.482378,72.1654354 C185.003704,72.1200369 185.476752,72.1268499 185.901536,72.1858746 C186.32632,72.2448993 186.718918,72.351564 187.079341,72.5058718 C187.439764,72.6601796 187.774437,72.8474644 188.083371,73.0677317 L186.19116,75.7804888 C185.663398,75.4555342 185.12599,75.2359956 184.57892,75.1218663 C184.031849,75.0077371 183.417209,75.0475566 182.73498,75.2413261 C182.168601,75.4021914 181.644065,75.6602582 181.161356,76.0155345 C180.678647,76.3708107 180.263523,76.7903064 179.915972,77.2740341 C179.568422,77.7577618 179.298109,78.2805062 179.105025,78.842283 C178.911941,79.4040598 178.815401,79.9737008 178.815401,80.5512233 C178.815401,81.167247 178.911941,81.6852569 179.105025,82.1437697 C179.298109,82.6022826 179.565204,82.9755985 179.906318,83.2637287 C180.247433,83.5518589 180.659338,83.7396666 181.142048,83.8271576 C181.624757,83.9146486 182.155729,83.876134 182.73498,83.7116127 C183.507315,83.492251 184.160571,83.1655403 184.694769,82.7314708 C185.228968,82.2974013 185.75994,81.7615832 186.287702,81.1240005 L188.179912,82.4923814 C187.832362,82.9632753 187.471944,83.3993172 187.098649,83.8005202 C186.725354,84.2017231 186.316666,84.5712647 185.872574,84.9091559 C185.428482,85.2470471 184.942562,85.5454806 184.4148,85.8044653 C183.887038,86.0634501 183.294923,86.2861678 182.638439,86.4726253 Z M195.362589,82.8201577 C194.332809,83.11264 193.322353,83.2231714 192.331191,83.1517553 C191.340028,83.0803391 190.438984,82.794036 189.628033,82.2928374 L191.385085,79.695471 C192.002953,80.0205011 192.636902,80.2382872 193.28695,80.3488358 C193.936998,80.4593845 194.648179,80.4049788 195.420514,80.1856171 C196.038382,80.0101277 196.517866,79.7616484 196.85898,79.4401716 C197.200094,79.1186947 197.370649,78.7590373 197.370649,78.3611885 C197.370649,78.1301798 197.335251,77.970188 197.264454,77.8427071 C197.193656,77.7152262 197.0585,77.6156523 196.85898,77.5439824 C196.65946,77.4723125 196.382711,77.4225796 196.028724,77.394782 C195.674738,77.3669845 195.214562,77.3629324 194.648183,77.3826255 C193.965954,77.4095552 193.348096,77.3989541 192.794589,77.3508221 C192.241082,77.30269 191.771253,77.1826687 191.385085,76.9907545 C190.998918,76.7988403 190.699643,76.5084577 190.487251,76.1195981 C190.274859,75.7307385 190.168664,75.2026369 190.168664,74.5352777 C190.168664,73.8807525 190.284513,73.2927938 190.516213,72.7328828 C190.747913,72.1729717 191.072933,71.6539399 191.491281,71.1757716 C191.909629,70.6976034 192.408421,70.2800112 192.987672,69.9229824 C193.566923,69.5659537 194.204089,69.2887307 194.899191,69.0913051 C195.890353,68.8097909 196.801051,68.6987176 197.631311,68.7580819 C198.461571,68.8174462 199.22424,69.0243398 199.919341,69.378769 L198.374679,72.0505659 C197.769684,71.8117166 197.177569,71.655842 196.598318,71.5829374 C196.019067,71.5100328 195.439825,71.5558405 194.860574,71.7203617 C194.281323,71.884883 193.846891,72.1205665 193.557266,72.4274192 C193.26764,72.7342719 193.12283,73.0545333 193.12283,73.3882129 C193.12283,73.6448893 193.164664,73.8223036 193.248333,73.9589623 C193.332003,74.095621 193.48325,74.1970418 193.702078,74.2632276 C193.920906,74.3294134 194.220181,74.3663316 194.599912,74.3739832 C194.979644,74.3816349 195.459127,74.3802031 196.038378,74.3696878 C196.720607,74.3555919 197.328812,74.3849769 197.86301,74.4578438 C198.397208,74.5307107 198.84773,74.672258 199.214589,74.8824901 C199.581448,75.0927221 199.858197,75.3830858 200.044845,75.7535899 C200.231492,76.1240939 200.324815,76.6045168 200.324815,77.1948731 C200.324815,77.9007336 200.20253,78.5290212 199.957957,79.1182559 C199.713385,79.7074907 199.372275,80.2407177 198.934619,80.7179531 C198.496963,81.1951884 197.975645,81.6127618 197.370649,81.9706857 C196.765654,82.3286096 196.096307,82.6117641 195.362589,82.8201577 Z" id="HAPTICS" stroke="none" fill="#3A3A3A"></path>
                <g id="Group-12" opacity="0.624094203" stroke="none" stroke-width="1" fill="none" transform="translate(65.045593, 31.128713)">
                    <path d="M15.1961843,19.1862141 L8.90439611,15.2829208 L20.4120826,11.9644001 L26.3259613,15.6332463 C22.0315785,16.4315662 18.2336242,17.6551746 15.1961843,19.1862141 Z" id="Combined-Shape" fill="#C0C0C0"></path>
                    <polygon id="Rectangle-6-Copy-8" fill="#C0C0C0" transform="translate(10.155905, 4.274170) scale(-1, 1) translate(-10.155905, -4.274170) " points="1.84741111e-13 5.22981966 8.80412345 0 20.31181 3.31852074 11.5076865 8.5483404"></polygon>
                    <polygon id="Rectangle-6-Copy-9" fill="#C0C0C0" transform="translate(14.557967, 10.358288) scale(-1, 1) translate(-14.557967, -10.358288) " points="8.80412345 5.22981966 8.80412345 12.1682351 20.31181 15.4867558 20.31181 8.5483404"></polygon>
                </g>
            </g>
        </g>
    </g>
</svg>