<svg width="256px" height="256px" viewBox="512 386 256 256" version="1.1" xmlns="http://www.w3.org/2000/svg" preserveAspectRatio="xMinYMin meet" xmlns:xlink="http://www.w3.org/1999/xlink">
    <style>
        svg{
            cursor:pointer;
        }
        #radialGradient-4{
            transition: all 0.7s;
        }
        #Rectangle-2-Copy-2{
            transition: all 0.7s;
        }
        svg:hover #radialGradient-4{
            cx:'100%'!important;
            cy:'100%'!important;
        }
        svg:hover #Rectangle-2-Copy-2{
            fill-opacity:0!important;
        }
    </style>
    <!-- Generator: Sketch 42 (36781) - http://www.bohemiancoding.com/sketch -->
    <desc>Created with Sketch.</desc>
    <defs>
        <radialGradient cx="50%" cy="0%" fx="50%" fy="0%" r="128.962006%" id="radialGradient-1">
            <stop stop-color="#8CD1FF" offset="0%"></stop>
            <stop stop-color="#FFB8FE" offset="100%"></stop>
        </radialGradient>
        <rect id="path-2" x="0" y="0" width="256" height="256"></rect>
        <radialGradient cx="0%" cy="0%" fx="0%" fy="0%" r="131.125016%" id="radialGradient-4">
            <stop stop-color="#FFE72A" offset="0%"></stop>
            <stop stop-color="#FFB8FE" offset="100%"></stop>
        </radialGradient>
        <rect id="path-5" x="0" y="0" width="256" height="256"></rect>
    </defs>
    <g id="Group-3" stroke="none" stroke-width="1" fill="none" fill-rule="evenodd" transform="translate(512.000000, 386.000000)">
        <mask id="mask-3" fill="white">
            <use xlink:href="#path-2"></use>
        </mask>
        <use id="Rectangle-2-Copy-2" fill-opacity="0.5" fill="url(#radialGradient-1)" xlink:href="#path-2"></use>
        <mask id="mask-6" fill="white">
            <use xlink:href="#path-5"></use>
        </mask>
        <use id="Rectangle-2-Copy-4" fill-opacity="0.560000002" fill="url(#radialGradient-4)" xlink:href="#path-5"></use>
        <path d="M94.792,72.16 L88.912,72.16 L88.912,67.4 L106.104,67.4 L106.104,72.16 L100.224,72.16 L100.224,87 L94.792,87 L94.792,72.16 Z M115.484,67.4 L120.916,67.4 L120.916,74.736 L127.888,74.736 L127.888,67.4 L133.32,67.4 L133.32,87 L127.888,87 L127.888,79.552 L120.916,79.552 L120.916,87 L115.484,87 L115.484,67.4 Z M143.792,67.4 L159.556,67.4 L159.556,72.02 L149.168,72.02 L149.168,74.988 L158.576,74.988 L158.576,79.272 L149.168,79.272 L149.168,82.38 L159.696,82.38 L159.696,87 L143.792,87 L143.792,67.4 Z M32.66,138.392 C31.259993,138.392 29.9440062,138.140003 28.712,137.636 C27.4799938,137.131997 26.4113379,136.427338 25.506,135.522 C24.6006621,134.616662 23.8820027,133.54334 23.35,132.302 C22.8179973,131.06066 22.552,129.712007 22.552,128.256 L22.552,128.2 C22.552,126.781326 22.8133307,125.45134 23.336,124.21 C23.8586693,122.96866 24.5773288,121.886005 25.492,120.962 C26.4066712,120.037995 27.4939937,119.314669 28.754,118.792 C30.0140063,118.269331 31.3906592,118.008 32.884,118.008 C33.892005,118.008 34.8066626,118.105999 35.628,118.302 C36.4493374,118.498001 37.2006633,118.777998 37.882,119.142 C38.5633367,119.506002 39.1793306,119.939997 39.73,120.444 C40.2806694,120.948003 40.7706645,121.498664 41.2,122.096 L37.112,125.26 C36.5519972,124.550663 35.9360034,123.990669 35.264,123.58 C34.5919966,123.169331 33.7800048,122.964 32.828,122.964 C32.1373299,122.964 31.5073362,123.099332 30.938,123.37 C30.3686638,123.640668 29.8786687,124.009331 29.468,124.476 C29.0573313,124.942669 28.7353345,125.49333 28.502,126.128 C28.2686655,126.76267 28.152,127.434663 28.152,128.144 L28.152,128.2 C28.152,128.928004 28.2686655,129.613997 28.502,130.258 C28.7353345,130.902003 29.0573313,131.457331 29.468,131.924 C29.8786687,132.390669 30.3686638,132.759332 30.938,133.03 C31.5073362,133.300668 32.1373299,133.436 32.828,133.436 C33.3320025,133.436 33.7939979,133.380001 34.214,133.268 C34.6340021,133.155999 35.0166649,132.992668 35.362,132.778 C35.7073351,132.563332 36.0339985,132.311335 36.342,132.022 C36.6500015,131.732665 36.9533318,131.410668 37.252,131.056 L41.34,133.968 C40.873331,134.60267 40.3646694,135.190664 39.814,135.732 C39.2633306,136.273336 38.6380035,136.739998 37.938,137.132 C37.2379965,137.524002 36.4540043,137.831999 35.586,138.056 C34.7179957,138.280001 33.7426721,138.392 32.66,138.392 Z M60.576,133.492 C61.3226704,133.492 62.0039969,133.352001 62.62,133.072 C63.2360031,132.791999 63.7586645,132.414002 64.188,131.938 C64.6173355,131.461998 64.9533321,130.90667 65.196,130.272 C65.4386679,129.63733 65.56,128.965337 65.56,128.256 L65.56,128.2 C65.56,127.490663 65.4386679,126.81867 65.196,126.184 C64.9533321,125.54933 64.6080022,124.989336 64.16,124.504 C63.7119978,124.018664 63.1800031,123.631335 62.564,123.342 C61.9479969,123.052665 61.2666704,122.908 60.52,122.908 C59.7733296,122.908 59.0966697,123.047999 58.49,123.328 C57.8833303,123.608001 57.3606689,123.985998 56.922,124.462 C56.4833311,124.938002 56.1473345,125.49333 55.914,126.128 C55.6806655,126.76267 55.564,127.434663 55.564,128.144 L55.564,128.2 C55.564,128.909337 55.6853321,129.58133 55.928,130.216 C56.1706679,130.85067 56.5113311,131.410664 56.95,131.896 C57.3886689,132.381336 57.9159969,132.768665 58.532,133.058 C59.1480031,133.347335 59.8293296,133.492 60.576,133.492 Z M60.52,138.392 C59.0079924,138.392 57.6080064,138.126003 56.32,137.594 C55.0319936,137.061997 53.921338,136.338671 52.988,135.424 C52.054662,134.509329 51.3220027,133.436006 50.79,132.204 C50.2579973,130.971994 49.992,129.656007 49.992,128.256 L49.992,128.2 C49.992,126.799993 50.2579973,125.47934 50.79,124.238 C51.3220027,122.99666 52.0639952,121.914005 53.016,120.99 C53.9680048,120.065995 55.0879936,119.338003 56.376,118.806 C57.6640064,118.273997 59.0639924,118.008 60.576,118.008 C62.0880076,118.008 63.4879936,118.273997 64.776,118.806 C66.0640064,119.338003 67.174662,120.061329 68.108,120.976 C69.041338,121.890671 69.7739973,122.963994 70.306,124.196 C70.8380027,125.428006 71.104,126.743993 71.104,128.144 L71.104,128.2 C71.104,129.600007 70.8380027,130.92066 70.306,132.162 C69.7739973,133.40334 69.0320048,134.485995 68.08,135.41 C67.1279952,136.334005 66.0080064,137.061997 64.72,137.594 C63.4319936,138.126003 62.0320076,138.392 60.52,138.392 Z M80.932,118.4 L86.364,118.4 L86.364,133.24 L95.856,133.24 L95.856,138 L80.932,138 L80.932,118.4 Z M115.092,133.492 C115.83867,133.492 116.519997,133.352001 117.136,133.072 C117.752003,132.791999 118.274665,132.414002 118.704,131.938 C119.133335,131.461998 119.469332,130.90667 119.712,130.272 C119.954668,129.63733 120.076,128.965337 120.076,128.256 L120.076,128.2 C120.076,127.490663 119.954668,126.81867 119.712,126.184 C119.469332,125.54933 119.124002,124.989336 118.676,124.504 C118.227998,124.018664 117.696003,123.631335 117.08,123.342 C116.463997,123.052665 115.78267,122.908 115.036,122.908 C114.28933,122.908 113.61267,123.047999 113.006,123.328 C112.39933,123.608001 111.876669,123.985998 111.438,124.462 C110.999331,124.938002 110.663335,125.49333 110.43,126.128 C110.196666,126.76267 110.08,127.434663 110.08,128.144 L110.08,128.2 C110.08,128.909337 110.201332,129.58133 110.444,130.216 C110.686668,130.85067 111.027331,131.410664 111.466,131.896 C111.904669,132.381336 112.431997,132.768665 113.048,133.058 C113.664003,133.347335 114.34533,133.492 115.092,133.492 Z M115.036,138.392 C113.523992,138.392 112.124006,138.126003 110.836,137.594 C109.547994,137.061997 108.437338,136.338671 107.504,135.424 C106.570662,134.509329 105.838003,133.436006 105.306,132.204 C104.773997,130.971994 104.508,129.656007 104.508,128.256 L104.508,128.2 C104.508,126.799993 104.773997,125.47934 105.306,124.238 C105.838003,122.99666 106.579995,121.914005 107.532,120.99 C108.484005,120.065995 109.603994,119.338003 110.892,118.806 C112.180006,118.273997 113.579992,118.008 115.092,118.008 C116.604008,118.008 118.003994,118.273997 119.292,118.806 C120.580006,119.338003 121.690662,120.061329 122.624,120.976 C123.557338,121.890671 124.289997,122.963994 124.822,124.196 C125.354003,125.428006 125.62,126.743993 125.62,128.144 L125.62,128.2 C125.62,129.600007 125.354003,130.92066 124.822,132.162 C124.289997,133.40334 123.548005,134.485995 122.596,135.41 C121.643995,136.334005 120.524006,137.061997 119.236,137.594 C117.947994,138.126003 116.548008,138.392 115.036,138.392 Z M144.464,127.808 C145.397338,127.808 146.115997,127.598002 146.62,127.178 C147.124003,126.757998 147.376,126.193337 147.376,125.484 L147.376,125.428 C147.376,124.643996 147.114669,124.060669 146.592,123.678 C146.069331,123.295331 145.350671,123.104 144.436,123.104 L140.88,123.104 L140.88,127.808 L144.464,127.808 Z M135.448,118.4 L144.716,118.4 C146.228008,118.4 147.506661,118.586665 148.552,118.96 C149.597339,119.333335 150.446663,119.855997 151.1,120.528 C152.257339,121.648006 152.836,123.169324 152.836,125.092 L152.836,125.148 C152.836,126.660008 152.472004,127.910662 151.744,128.9 C151.015996,129.889338 150.036006,130.645331 148.804,131.168 L153.48,138 L147.208,138 L143.26,132.064 L140.88,132.064 L140.88,138 L135.448,138 L135.448,118.4 Z M162.692,118.4 L168.152,118.4 L168.152,138 L162.692,138 L162.692,118.4 Z M178.736,118.4 L183.804,118.4 L191.868,128.76 L191.868,118.4 L197.244,118.4 L197.244,138 L192.484,138 L184.112,127.248 L184.112,138 L178.736,138 L178.736,118.4 Z M217.712,138.392 C216.181326,138.392 214.76734,138.144669 213.47,137.65 C212.17266,137.155331 211.048005,136.460004 210.096,135.564 C209.143995,134.667996 208.397336,133.59934 207.856,132.358 C207.314664,131.11666 207.044,129.749341 207.044,128.256 L207.044,128.2 C207.044,126.781326 207.309997,125.45134 207.842,124.21 C208.374003,122.96866 209.106662,121.886005 210.04,120.962 C210.973338,120.037995 212.08866,119.314669 213.386,118.792 C214.68334,118.269331 216.087992,118.008 217.6,118.008 C219.336009,118.008 220.833994,118.259997 222.094,118.764 C223.354006,119.268003 224.506661,119.967996 225.552,120.864 L222.36,124.7 C221.650663,124.102664 220.927337,123.645335 220.19,123.328 C219.452663,123.010665 218.598672,122.852 217.628,122.852 C216.918663,122.852 216.26067,122.991999 215.654,123.272 C215.04733,123.552001 214.520002,123.934664 214.072,124.42 C213.623998,124.905336 213.269335,125.474663 213.008,126.128 C212.746665,126.781337 212.616,127.48133 212.616,128.228 L212.616,128.284 C212.616,129.068004 212.746665,129.795997 213.008,130.468 C213.269335,131.140003 213.637998,131.713998 214.114,132.19 C214.590002,132.666002 215.149997,133.039332 215.794,133.31 C216.438003,133.580668 217.151996,133.716 217.936,133.716 C219.20534,133.716 220.250663,133.445336 221.072,132.904 L221.072,130.524 L217.208,130.524 L217.208,126.548 L226.224,126.548 L226.224,135.368 C225.178661,136.226671 223.946674,136.94533 222.528,137.524 C221.109326,138.10267 219.504009,138.392 217.712,138.392 Z M85.23,184.632 C86.0700042,184.632 86.7139978,184.478002 87.162,184.17 C87.6100022,183.861998 87.834,183.41867 87.834,182.84 L87.834,182.784 C87.834,182.242664 87.6193355,181.813335 87.19,181.496 C86.7606645,181.178665 86.0886712,181.02 85.174,181.02 L81.03,181.02 L81.03,184.632 L85.23,184.632 Z M84.446,177.212 C85.2860042,177.212 85.9253311,177.072001 86.364,176.792 C86.8026689,176.511999 87.022,176.08267 87.022,175.504 L87.022,175.448 C87.022,174.906664 86.8166687,174.491335 86.406,174.202 C85.9953313,173.912665 85.3793374,173.768 84.558,173.768 L81.03,173.768 L81.03,177.212 L84.446,177.212 Z M75.738,169.4 L85.79,169.4 C87.0220062,169.4 88.0766623,169.549332 88.954,169.848 C89.8313377,170.146668 90.5593304,170.58533 91.138,171.164 C91.530002,171.556002 91.8379989,172.013331 92.062,172.536 C92.2860011,173.058669 92.398,173.655997 92.398,174.328 L92.398,174.384 C92.398,175.522672 92.1133362,176.441997 91.544,177.142 C90.9746638,177.842004 90.2513377,178.378665 89.374,178.752 C90.5686726,179.144002 91.5159965,179.708663 92.216,180.446 C92.9160035,181.183337 93.266,182.21466 93.266,183.54 L93.266,183.596 C93.266,185.294675 92.6173398,186.619995 91.32,187.572 C90.0226602,188.524005 88.1980118,189 85.846,189 L75.738,189 L75.738,169.4 Z M112.67,184.492 C113.41667,184.492 114.097997,184.352001 114.714,184.072 C115.330003,183.791999 115.852665,183.414002 116.282,182.938 C116.711335,182.461998 117.047332,181.90667 117.29,181.272 C117.532668,180.63733 117.654,179.965337 117.654,179.256 L117.654,179.2 C117.654,178.490663 117.532668,177.81867 117.29,177.184 C117.047332,176.54933 116.702002,175.989336 116.254,175.504 C115.805998,175.018664 115.274003,174.631335 114.658,174.342 C114.041997,174.052665 113.36067,173.908 112.614,173.908 C111.86733,173.908 111.19067,174.047999 110.584,174.328 C109.97733,174.608001 109.454669,174.985998 109.016,175.462 C108.577331,175.938002 108.241335,176.49333 108.008,177.128 C107.774666,177.76267 107.658,178.434663 107.658,179.144 L107.658,179.2 C107.658,179.909337 107.779332,180.58133 108.022,181.216 C108.264668,181.85067 108.605331,182.410664 109.044,182.896 C109.482669,183.381336 110.009997,183.768665 110.626,184.058 C111.242003,184.347335 111.92333,184.492 112.67,184.492 Z M112.614,189.392 C111.101992,189.392 109.702006,189.126003 108.414,188.594 C107.125994,188.061997 106.015338,187.338671 105.082,186.424 C104.148662,185.509329 103.416003,184.436006 102.884,183.204 C102.351997,181.971994 102.086,180.656007 102.086,179.256 L102.086,179.2 C102.086,177.799993 102.351997,176.47934 102.884,175.238 C103.416003,173.99666 104.157995,172.914005 105.11,171.99 C106.062005,171.065995 107.181994,170.338003 108.47,169.806 C109.758006,169.273997 111.157992,169.008 112.67,169.008 C114.182008,169.008 115.581994,169.273997 116.87,169.806 C118.158006,170.338003 119.268662,171.061329 120.202,171.976 C121.135338,172.890671 121.867997,173.963994 122.4,175.196 C122.932003,176.428006 123.198,177.743993 123.198,179.144 L123.198,179.2 C123.198,180.600007 122.932003,181.92066 122.4,183.162 C121.867997,184.40334 121.126005,185.485995 120.174,186.41 C119.221995,187.334005 118.102006,188.061997 116.814,188.594 C115.525994,189.126003 114.126008,189.392 112.614,189.392 Z M142.938,184.492 C143.68467,184.492 144.365997,184.352001 144.982,184.072 C145.598003,183.791999 146.120665,183.414002 146.55,182.938 C146.979335,182.461998 147.315332,181.90667 147.558,181.272 C147.800668,180.63733 147.922,179.965337 147.922,179.256 L147.922,179.2 C147.922,178.490663 147.800668,177.81867 147.558,177.184 C147.315332,176.54933 146.970002,175.989336 146.522,175.504 C146.073998,175.018664 145.542003,174.631335 144.926,174.342 C144.309997,174.052665 143.62867,173.908 142.882,173.908 C142.13533,173.908 141.45867,174.047999 140.852,174.328 C140.24533,174.608001 139.722669,174.985998 139.284,175.462 C138.845331,175.938002 138.509335,176.49333 138.276,177.128 C138.042666,177.76267 137.926,178.434663 137.926,179.144 L137.926,179.2 C137.926,179.909337 138.047332,180.58133 138.29,181.216 C138.532668,181.85067 138.873331,182.410664 139.312,182.896 C139.750669,183.381336 140.277997,183.768665 140.894,184.058 C141.510003,184.347335 142.19133,184.492 142.938,184.492 Z M142.882,189.392 C141.369992,189.392 139.970006,189.126003 138.682,188.594 C137.393994,188.061997 136.283338,187.338671 135.35,186.424 C134.416662,185.509329 133.684003,184.436006 133.152,183.204 C132.619997,181.971994 132.354,180.656007 132.354,179.256 L132.354,179.2 C132.354,177.799993 132.619997,176.47934 133.152,175.238 C133.684003,173.99666 134.425995,172.914005 135.378,171.99 C136.330005,171.065995 137.449994,170.338003 138.738,169.806 C140.026006,169.273997 141.425992,169.008 142.938,169.008 C144.450008,169.008 145.849994,169.273997 147.138,169.806 C148.426006,170.338003 149.536662,171.061329 150.47,171.976 C151.403338,172.890671 152.135997,173.963994 152.668,175.196 C153.200003,176.428006 153.466,177.743993 153.466,179.144 L153.466,179.2 C153.466,180.600007 153.200003,181.92066 152.668,183.162 C152.135997,184.40334 151.394005,185.485995 150.442,186.41 C149.489995,187.334005 148.370006,188.061997 147.082,188.594 C145.793994,189.126003 144.394008,189.392 142.882,189.392 Z M163.294,169.4 L168.726,169.4 L168.726,177.352 L175.474,169.4 L181.914,169.4 L174.494,177.828 L182.166,189 L175.642,189 L170.714,181.72 L168.726,183.932 L168.726,189 L163.294,189 L163.294,169.4 Z" id="THE-COLORING-BOOK" fill="#3A3A3A" mask="url(#mask-6)"></path>
    </g>
</svg>