<svg width="256px" height="256px" viewBox="512 642 256 256" version="1.1" xmlns="http://www.w3.org/2000/svg" xmlns:xlink="http://www.w3.org/1999/xlink">
    <!-- Generator: Sketch 42 (36781) - http://www.bohemiancoding.com/sketch -->
    <desc>Created with Sketch.</desc>
    <defs>
        <rect id="path-1" x="0" y="0" width="256" height="256"></rect>
        <linearGradient x1="50%" y1="0%" x2="50%" y2="100%" id="linearGradient-3">
            <stop stop-color="#D6A352" offset="0%"></stop>
            <stop stop-color="#B48A70" offset="100%"></stop>
        </linearGradient>
    </defs>
    <g id="Group-4-Copy-4" stroke="none" stroke-width="1" fill="none" fill-rule="evenodd" transform="translate(512.000000, 642.000000)">
        <mask id="mask-2" fill="white">
            <use xlink:href="#path-1"></use>
        </mask>
        <use id="Rectangle-2-Copy-3" fill="#FFF7EB" xlink:href="#path-1"></use>
        <ellipse id="Oval-3" fill="#A5C086" mask="url(#mask-2)" cx="129" cy="150.5" rx="113" ry="10.5"></ellipse>
        <g id="Page-1" mask="url(#mask-2)">
            <g transform="translate(26.000000, 101.000000)">
                <path d="M199.9799,32.3791 C199.9589,31.6551 199.8569,30.8581 199.1749,30.7731 C197.9999,30.6281 198.0579,31.7001 198.0449,32.4321 C198.0319,33.1691 197.9569,34.2741 199.0729,34.1961 C200.1039,34.1231 199.9019,33.0571 199.9799,32.3791 L199.9799,32.3791 Z M185.8949,29.9151 C184.8189,29.9591 184.6359,30.8091 184.4569,31.5581 C184.1779,32.7301 184.2069,33.9881 185.5739,34.3771 C186.5769,34.6631 186.9079,33.6981 186.9619,32.8611 C187.0339,31.7451 187.1849,30.5521 185.8949,29.9151 L185.8949,29.9151 Z M202.6089,25.1001 C202.6789,23.9921 202.3199,23.6541 201.8329,23.5161 C200.5829,23.1631 196.4119,25.1721 195.8179,26.3931 C195.5809,26.8791 195.6009,27.3851 196.1409,27.6291 C197.7049,28.3371 199.0069,27.4071 200.3269,26.8271 C201.3549,26.3741 202.4859,25.9311 202.6089,25.1001 L202.6089,25.1001 Z M183.4059,22.1611 C182.6609,22.1181 181.9829,22.2511 181.6089,22.8521 C181.2459,23.4361 181.2409,24.1671 181.6859,24.7131 C183.3509,26.7531 186.0029,26.9481 188.1759,28.0421 C188.6039,28.2571 188.9799,27.5501 188.9379,27.0631 C188.6969,24.2341 186.1599,23.6381 184.2979,22.3991 C184.0409,22.2271 183.6699,22.2271 183.4059,22.1611 L183.4059,22.1611 Z M156.8109,37.5131 C158.8639,38.7931 160.6419,37.6361 162.3149,36.5341 C163.8469,35.5251 165.2429,34.3021 166.2199,32.7431 C167.3209,30.9871 168.7829,29.9851 170.7759,30.7171 C172.262911,31.263166 176.182201,32.9996419 176.039811,32.1257573 C175.758425,30.398811 175.904724,28.7647723 176.039811,27.0951409 C176.115811,26.1481409 178.254564,22.2460712 177.638836,22.8759207 C177.023108,23.5057701 173.8639,24.7951 173.0029,25.0991 C168.1739,26.8021 167.5859,26.3621 168.0769,21.2701 C168.1399,20.6101 168.2609,19.9421 168.2159,19.2871 C168.0549,16.9931 166.4289,15.7601 164.1509,16.2051 C162.6169,16.5041 161.4399,17.4441 160.4579,18.5951 C157.0009,22.6471 155.2579,27.3891 154.8829,32.6581 C154.8249,34.5721 155.0479,36.4151 156.8109,37.5131 Z M144.2549,43.6911 C143.0379,42.6221 142.1609,41.3371 141.6019,44.1901 C141.2809,45.8231 139.7049,45.7421 138.3149,45.5521 C136.3299,45.2821 134.3519,45.1231 132.3909,45.7961 C130.5359,46.4321 129.5959,45.4991 129.1249,43.7911 C128.4659,41.3971 128.27025,38.9557624 127.58425,36.5697624 C127.45325,36.1167624 126.9859,35.4961 126.3359,35.5551 C126.1489,35.5721 125.8779,36.3491 125.9059,36.7601 C126.0399,38.7511 126.2249,40.7411 126.4649,42.7221 C126.7849,45.3701 125.9599,46.7431 122.9929,46.7401 C118.0059,46.7361 113.0189,47.0251 108.0329,47.1911 C101.5129,47.4178175 98.1139,46.532785 93.7309,46.397785 C90.0019,46.283785 86.1868991,46.2401 83.3698991,43.6911 C81.6378991,42.1231 81.7049,39.7991 79.7659,40.9731 C80.6069,35.5931 83.5799,30.9991 85.3119,25.9461 C87.6449,24.6591 90.0239,24.9951 92.4349,25.6961 C93.0519,25.8761 93.8249,25.9771 94.2499,25.3771 C94.8329,24.5541 94.2159,23.9031 93.7309,23.2391 C92.4609,21.5031 90.0799,21.0281 89.0279,19.0581 C91.2759,15.2041 93.3509,11.2321 96.1669,7.7471 C98.4829,4.8821 99.1629,4.8521 101.5129,7.5801 C104.3239,10.8431 106.6459,14.4701 108.9519,18.0991 C108.7789,19.6431 107.5339,20.1951 106.3859,20.7841 C105.2019,21.3911 104.2059,22.2071 103.3539,23.2031 C102.8449,23.8001 102.1459,24.4751 102.8019,25.2951 C103.2889,25.9041 104.0119,25.4831 104.5939,25.2521 C107.2149,24.2111 109.9239,23.8221 112.7289,24.0901 C113.8309,26.0411 114.9329,27.9931 116.0339,29.9441 C116.6499,31.2291 117.9479,32.1961 119.0609,31.9511 C120.7189,31.5861 119.8969,29.7741 119.9819,28.5991 C120.1219,26.6601 119.9649,24.7011 120.0269,22.7531 C120.1039,20.3061 118.5029,20.8091 117.0629,20.9761 C116.8629,19.3751 116.9799,17.7461 118.8829,17.4291 C124.3159,16.5251 128.6709,16.3671 131.5529,22.3961 C132.6209,24.6291 133.2049,27.0931 134.0219,29.4471 C134.1679,29.8701 134.2519,30.4311 134.8379,30.4381 C135.4079,30.4441 135.6799,30.0001 135.7529,29.4891 C135.9199,28.3371 136.104132,27.1753788 136.1959,26.0231 C136.523303,21.9121 137.0769,21.3331 140.4299,21.9121 C142.5059,22.2711 142.7669,20.6571 143.2769,19.2071 C145.2989,13.4681 149.3339,9.2921 154.2399,6.0031 C164.6359,-0.9679 175.865349,2.9046829 178.9379,14.9791 C179.47037,17.0715859 179.10445,20.2833339 178.9379,20.9761 C179.386147,20.0224208 179.566008,19.7709903 179.709676,19.6427765 C180.694218,18.7641438 181.507096,17.4132104 182.6049,16.7471 C187.2579,13.9251 192.5249,13.9401 197.6279,15.2791 C205.5719,17.3631 209.9669,26.0841 207.8009,34.9111 C204.1309,49.8691 192.4689,51.3061 181.4689,46.6991 C180.442901,46.2690963 178.455999,42.3269208 177.8119,41.2869208 C178.293801,43.6889208 178.110077,46.4208632 177.8119,47.2491 C177.2689,48.7571 175.4849,48.1661 174.2359,47.8321 C172.717774,47.426951 171.231334,46.9000266 169.671778,46.7346885 C169.252774,46.6902673 169.175853,46.189227 168.744261,46.2063806 C168.956261,44.5833806 170.0239,43.0011 168.0839,42.0131 C166.9519,41.4361 165.8139,43.3101 164.9419,44.4151 C157.9179,49.7871 150.9399,49.5661 144.2549,43.6911 Z" id="Fill-3" fill="url(#linearGradient-3)"></path>
                <path d="M20.4598,15.4651 C20.5268422,15.0719838 20.6458,14.5208095 20.6458,14.3831 C20.4895556,14.5208095 20.3163196,14.664215 19.9218,14.9161 C15.8590991,17.5099719 11.3938,20.0221 6.1228,19.6211 C4.5818,16.1251 2.8208,12.6951 3.0208,8.7001 C3.0978,7.1621 2.3808,6.5611 0.8688,6.9991 C0.7428,5.1121 1.7418,4.3271 3.5178,4.1561 C17.5538,2.8001 31.5378,0.7681 45.6928,0.9831 C45.8588,0.9861 46.0248,0.9841 46.1898,0.9941 C50.3938,1.2491 52.0708,2.5911 51.9208,5.5841 C51.7258,9.5071 49.1648,11.9701 45.3328,11.8101 C41.8508,11.6651 38.3658,11.4961 34.8948,11.1911 C32.6968,10.9981 31.8668,11.7011 32.2058,13.9701 C33.4778,22.4931 34.0188,31.1411 36.6818,39.4211 C36.9858,40.3661 37.1678,41.3511 37.3888,42.3211 C38.0408,45.1801 37.0658,47.2701 34.2758,48.2411 C31.9558,49.0481 29.6688,50.1731 27.0788,49.7821 C21.7968,46.2791 20.7048,41.0631 20.9348,35.1941 C21.1168,30.5631 20.9778,25.9201 21.1048,21.2861 C21.1438,19.8801 20.8808,19.0211 19.3368,18.9781 L20.4598,15.4651 Z" id="Fill-5" fill="url(#linearGradient-3)"></path>
                <path d="M48.7838,27.5651 C48.8408,28.4401 48.8238,29.7861 49.0428,31.0931 C49.2718,32.4601 48.8078,34.6631 50.5768,34.7931 C52.2788,34.9191 53.3768,33.0161 53.8048,31.4091 C54.4048,29.1601 54.7128,26.7601 53.0658,24.7371 C52.1388,23.5991 50.9108,22.0651 49.4898,22.5381 C48.1788,22.9741 48.9888,24.8701 48.7918,26.1101 C48.7398,26.4351 48.7838,26.7751 48.7838,27.5651 M38.9628,21.2781 C37.8218,20.1591 38.3218,19.0931 39.3368,18.3401 C45.9988,13.4001 56.3518,11.4251 61.6628,22.0031 C64.2638,27.1851 63.4018,30.6371 58.1818,34.3831 C55.8728,36.0401 55.8588,36.8411 57.9308,38.6071 C60.1868,40.5311 62.2588,42.7351 64.0938,45.0661 C65.9438,47.4181 65.3798,48.8111 62.5998,49.9571 C57.9508,51.8731 55.8268,51.0121 53.5718,46.2961 C53.4288,45.9971 53.3078,45.6841 53.1368,45.4021 C52.3138,44.0491 52.1408,41.3581 50.5828,41.6721 C49.2098,41.9481 49.8918,44.5221 50.0968,46.0281 C50.4788,48.8361 49.2968,49.7511 46.7448,49.1831 C45.0098,48.7961 42.9460371,49.6611171 41.5278,48.0781 C40.2348,46.6348708 40.4794754,25.2408376 40.2348,23.9091 C39.9966337,22.617884 39.7108,22.0121 38.9628,21.2781 Z" id="Fill-7" fill="url(#linearGradient-3)"></path>
                <path d="M67.7592,16.9876 C70.5072,13.5236 73.7932,15.3326 76.7332,16.3646 C79.5882,17.3666 79.6802,20.0726 79.2872,22.6676 C78.3722,28.7146 77.0522,34.7316 78.0762,40.9066 C78.0222,42.2066 77.9672,43.5066 77.9132,44.8066 C76.5862,47.7726 74.4812,49.4136 71.0682,48.8306 C71.0252,44.0616 70.8812,39.2916 70.9652,34.5246 C71.0492,29.7476 70.6922,25.0216 70.0402,20.2966 C69.8232,18.7266 69.6022,17.3496 67.7592,16.9876" id="Fill-9" fill="url(#linearGradient-3)"></path>
                <g id="Group-6" stroke-width="1" fill="none" transform="translate(0.000000, 6.000000)">
                    <path d="M79.5975493,38.3855869 C79.1741035,35.7373246 80.537119,30.8808596 81.1305375,29.9325266 C80.7644461,33.240894 82.7452556,35.3336585 84.9611889,36.774031 C88.274008,38.9273871 91.8050884,38.7810589 94.8829598,39.4178988 C99.6088954,40.3957383 101.993275,40.8587597 108.0331,41.1915 C101.543163,41.8846174 97.3091,42.3855 91.9111,42.5175 C90.4291,42.5535 89.2887455,42.715883 87.43758,42.715883 C82.9343691,42.715883 80.0209951,41.0338492 79.5975493,38.3855869 Z" id="Fill-11" fill="#564F45"></path>
                    <path d="M20.0805298,10.6700229 C21.2909931,11.8973633 21.1438,13.8801 21.1048,15.2861 C20.9778,19.9201 21.1168,24.5631 20.9348,29.1941 C20.7048,35.0631 21.7968,40.2791 27.0788,43.7821 C21.7348,45.0281 19.7738,44.2651 18.3978,39.3361 C15.9338,30.5101 15.8828,21.6511 19.3368,12.9781 L20.0805298,10.6700229 Z" id="Fill-13" fill="#564F45"></path>
                    <path d="M67.7592,10.9876 C69.6022,11.3496 69.8232,12.7266 70.0402,14.2966 C70.6922,19.0216 71.0492,23.7476 70.9652,28.5246 C70.8812,33.2916 71.0252,38.0616 71.0682,42.8306 C67.4372,42.6366 67.7332,39.6426 67.6132,37.4296 C67.2382,30.5406 67.1332,23.6346 67.0402,16.7336 C67.0142,14.8136 66.5292,12.7756 67.7592,10.9876" id="Fill-15" fill="#564F45"></path>
                    <path d="M42.663,20.541 C44.129,27.284 44.183,34.02 42.581,40.748 C42.416,41.438 42.1812186,41.8385435 41.5862186,42.1625435 C40.2912186,40.8775435 39.9379409,38.7663872 40.0529409,37.1463872 C40.5179409,30.6113872 40.4023082,24.5289023 40.2390756,17.8039824 C41.7450756,18.0029824 42.345,19.079 42.663,20.541 Z" id="Fill-17" fill="#564F45"></path>
                    <path d="M54.9566021,39.2547032 C56.3239671,42.0240798 56.5389403,43.4760016 58.4131919,44.9034282 C57.2162034,44.9034282 55.0390087,43.6874914 54.3224842,42.237504 C53.2102982,39.9868404 52.070839,36.5011833 50.9897283,35.6829133 C50.9897283,35.6829133 53.1986739,35.6943039 54.9566021,39.2547032 Z" id="Fill-17-Copy" fill="#564F45"></path>
                    <path d="M54.6065355,20.0917183 C55.3397054,23.4219272 54.4198785,26.9647667 51.9144756,28.5049725 C53.7834753,25.8534939 55.2790317,18.1419926 50.05865,16.4144861 C50.05865,16.4144861 53.6507807,15.7504824 54.6065355,20.0917183 Z" id="Fill-17-Copy-2" fill="#564F45"></path>
                    <path d="M89.0275,13.0577 C90.0805,15.0277 92.4605,15.5027 93.7305,17.2397 C94.2165,17.9027 94.8325,18.5537 94.2495,19.3767 C93.8245,19.9777 93.0515,19.8757 92.4345,19.6967 C90.0245,18.9947 87.6445,18.6587 85.3115,19.9467 C83.6605,16.1117 85.0885,13.4637 89.0275,13.0577" id="Fill-19" fill="#564F45"></path>
                    <path d="M112.729,18.0901 C109.924,17.8221 107.215,18.2111 104.594,19.2521 C104.012,19.4831 103.289,19.9041 102.802,19.2951 C102.146,18.4761 102.845,17.8001 103.354,17.2031 C104.206,16.2071 105.202,15.3911 106.386,14.7841 C107.534,14.1951 108.779,13.6431 108.952,12.0991 C110.877,12.2341 112.621,12.4751 112.327,15.1641 C112.224,16.1131 112.582,17.1131 112.729,18.0901" id="Fill-21" fill="#564F45"></path>
                    <path d="M3.0206,2.7005 C2.8206,6.6945 4.5816,10.1255 6.1236,13.6215 C3.1116,14.3045 1.40943365,12.5155459 0.8686,9.53303645 C0.32776635,6.55052696 0.278483444,4.28198121 0.8686,0.9995 C2.3806,0.5605 3.0976,1.1625 3.0206,2.7005 Z" id="Fill-23" fill="#564F45"></path>
                    <path d="M120.0267,16.7526 C119.9647,18.7006 120.1217,20.6596 119.9817,22.5996 C119.8967,23.7746 120.7187,25.5866 119.0607,25.9506 C117.9477,26.1956 116.6507,25.2286 116.0347,23.9436 C118.0597,21.1476 116.2457,16.1269685 117.0627,13.1919685 C118.5027,13.0249685 120.1047,14.3056 120.0267,16.7526 Z" id="Fill-25" fill="#564F45"></path>
                    <path d="M170.866177,40.9201786 C168.351133,40.7354121 168.284025,39.9713345 168.464608,38.6095837 C168.645192,37.2478329 168.785792,36.3317501 167.778285,35.9000531 C169.299432,36.0343886 170.037361,36.5971831 169.946081,38.0186489 C169.862499,39.3202439 169.322231,40.6517915 170.866177,40.9201786 Z" id="Fill-27" fill="#564F45"></path>
                    <path d="M183.4062,16.161 C183.6692,16.227 184.0402,16.227 184.2982,16.399 C186.1602,17.638 188.6962,18.234 188.9382,21.063 C188.9792,21.55 188.6042,22.257 188.1752,22.042 C186.0022,20.948 183.3502,20.753 181.6852,18.713 C181.2402,18.167 181.2452,17.437 181.6092,16.852 C181.9832,16.251 182.6602,16.118 183.4062,16.161" id="Fill-31" fill="#564F45"></path>
                    <path d="M202.6094,19.1003 C202.4864,19.9313 201.3554,20.3743 200.3274,20.8263 C199.0074,21.4073 197.7044,22.3373 196.1414,21.6293 C195.6014,21.3853 195.5814,20.8793 195.8184,20.3923 C196.4124,19.1723 200.5824,17.1623 201.8324,17.5163 C202.3204,17.6543 202.6794,17.9913 202.6094,19.1003" id="Fill-33" fill="#564F45"></path>
                    <path d="M93.66395,23.6942494 C94.3830036,23.6942494 94.9343,26.7895 94.7383,28.4465 C94.6283,29.3715 94.5571976,30.1978914 92.9833,29.6745 C91.4008923,29.1482786 91.5796867,28.0576241 91.9556867,26.6586241 C92.2396867,25.6026241 92.4871521,23.6942494 93.66395,23.6942494 Z" id="Fill-35" fill="#564F45"></path>
                    <path d="M185.8948,23.9156 C187.1848,24.5516 187.0348,25.7456 186.9618,26.8616 C186.9078,27.6986 186.5768,28.6636 185.5738,28.3776 C184.2068,27.9886 184.1778,26.7306 184.4568,25.5586 C184.6358,24.8096 184.8188,23.9596 185.8948,23.9156" id="Fill-37" fill="#564F45"></path>
                    <path d="M106.349167,24.2676235 C107.293901,24.8584488 107.322442,25.6475002 107.607426,26.8309132 C107.867588,27.9112541 108.607141,29.0091462 106.07726,29.5991014 C104.577198,29.9489081 105.081526,27.4791553 105.081526,26.4673757 C105.081526,25.5608767 104.660385,23.2114792 106.349167,24.2676235 Z" id="Fill-39" fill="#564F45"></path>
                    <path d="M126.444335,29.5512321 C129.482261,29.4469322 130.064359,35.8136129 130.429867,36.8650307 C130.973606,38.4291443 131.901738,39.73988 133.524764,39.4996703 C132.870378,39.6668637 131.863756,39.977181 131.345708,40.1294565 C129.852592,40.568344 129.115307,38.8407151 128.709471,36.5384103 C128.338647,34.4347253 127.875979,29.7248204 126.444335,29.5512321 Z" id="Fill-39-Copy" fill="#564F45"></path>
                    <path d="M148.322261,5 C142.897913,12.1881336 141.619154,23.7991038 143.050137,30.6071244 C144.629053,38.1189449 148.596311,41.1340432 153.892361,42.2734256 C149.906693,41.9722407 147.303515,40.9864853 145.592657,39.4241567 C143.541067,37.5506775 140.81894,35.9713184 140.111941,28.1824532 C139.286336,19.0869325 143.128014,10.6439193 148.322261,5 Z" id="Fill-39-Copy-2" fill="#564F45"></path>
                    <path d="M181.389226,11.8117585 C177.598054,16.2817305 176.737195,20.695136 177.069588,26.6240416 C177.3319,31.3029144 181.244175,36.2609762 183.542694,38.3968766 C185.352663,40.0787916 189.309069,42.5093315 192.51038,43.0682258 C188.049911,43.0682258 182.482184,42.0289352 179.490331,39.6648385 C177.006767,37.7023802 174.406798,32.2643767 174.611693,26.6240416 C174.800192,21.4350276 177.260813,14.9479643 181.389226,11.8117585 Z" id="Fill-39-Copy-3" fill="#564F45"></path>
                    <path d="M199.9799,26.3787 C199.9019,27.0567 200.1049,28.1237 199.0729,28.1957 C197.9569,28.2747 198.0319,27.1687 198.0449,26.4327 C198.0579,25.7007 197.9999,24.6277 199.1749,24.7737 C199.8569,24.8577 199.9589,25.6557 199.9799,26.3787" id="Fill-41" fill="#564F45"></path>
                </g>
            </g>
        </g>
    </g>
</svg>